<svg id="Capa_1" data-name="Capa 1" xmlns="http://www.w3.org/2000/svg" viewBox="0 0 1738.78 597"><defs><style>.cls-1{fill:#fae11f;}.cls-2{fill:#030303;}</style></defs><title>logo-busines-wassi-amarillo</title><rect class="cls-1" width="597" height="597"/><polygon points="147.5 363.5 147.5 320.5 493.5 320.5 493.5 103.5 103.5 103.5 103.5 144.5 449.5 144.5 449.5 187.5 103.5 187.5 103.5 232.5 449.5 232.5 449.5 275.5 103.5 275.5 103.5 493.5 493.5 493.5 493.5 451.5 147.5 451.5 147.5 408.5 493.5 408.5 493.5 363.5 147.5 363.5"/><path class="cls-2" d="M893.9,603.47h26.71l33.75,95.42,22.71-95.42h34.23l-40.67,143H939.31L908,646.56,875.21,746.5H843.88l-40.67-143h34.24l22.7,95.42Z" transform="translate(-102.13 -248.87)"/><path class="cls-2" d="M1071.52,603.47h21.13l67.5,143h-35.82l-42.25-97.68-42.25,97.68H1004Zm-35.09,94.14h92.88v26h-92.88Z" transform="translate(-102.13 -248.87)"/><path class="cls-2" d="M1215.14,748l-12.08-2.07a124,124,0,0,1-22.7-6,92,92,0,0,1-19-9.59L1176.78,708a81.11,81.11,0,0,0,23.55,10.47,102.54,102.54,0,0,0,27.44,3.69q16.26,0,25.25-4.47t9-12.64V705a11.18,11.18,0,0,0-4-9,25.49,25.49,0,0,0-10.44-4.92,152.12,152.12,0,0,0-16.51-2.85,2.47,2.47,0,0,0-.67-.1,2.47,2.47,0,0,1-.67-.1l-2.67-.3a195.91,195.91,0,0,1-29.38-5.65,43.71,43.71,0,0,1-19.79-11.91q-8.13-8.5-8.13-24.15v-.09q0-13.87,7.65-23.71t22.21-15q14.58-5.17,35.21-5.17a110,110,0,0,1,19.37,1.77,123.21,123.21,0,0,1,19.36,5.12,118.57,118.57,0,0,1,18,8.06l-14.09,22.83a98.18,98.18,0,0,0-21.3-8.86,78.45,78.45,0,0,0-21.31-3.14q-15.3,0-23.67,4.08t-8.38,11.46v.1a12,12,0,0,0,4.37,9.78,27.68,27.68,0,0,0,10.81,5.27q6.42,1.66,18.09,3.54c.32.07.64.11,1,.15s.64.08,1,.14c.48.07,1,.15,1.39.25s.91.18,1.4.25a175.19,175.19,0,0,1,28,6.44,43.22,43.22,0,0,1,18.76,12.2q7.53,8.42,7.53,23v.19q0,13.68-7.89,23.42t-23,14.85Q1249,748,1227.77,748Z" transform="translate(-102.13 -248.87)"/><path class="cls-2" d="M1355,746.5h-34.48v-143H1355Z" transform="translate(-102.13 -248.87)"/><path d="M797.71,348.25h30.77V491.44H797.71Zm13.47,117.19h52.11q10.56,0,16.34-4.48t5.79-12.55v-.3A15.26,15.26,0,0,0,875.25,433a32,32,0,0,0-12-2H811.18V405h52.11q9.56,0,14.77-4.24t5.22-11.92a12.56,12.56,0,0,0-5.22-10.73q-5.22-3.84-14.77-3.84H811.18v-26H864.3q15.84,0,27.07,4.58t17.07,13.29q5.84,8.72,5.84,20.93a28.85,28.85,0,0,1-3.76,14.82,29.22,29.22,0,0,1-10.95,10.59,48.34,48.34,0,0,1-17.3,5.61,47.73,47.73,0,0,1,18.48,5.76,30.65,30.65,0,0,1,11.68,11.67,33.89,33.89,0,0,1,4,16.65v.29q0,12.31-5.89,21.08t-17.19,13.34q-11.28,4.59-27.12,4.58h-55Z" transform="translate(-102.13 -248.87)"/><path d="M967.85,486.67a44.79,44.79,0,0,1-20.33-18.22q-7-12-7-28.81V348.25h30.77v92.08q0,12.32,7.53,19.11t21.22,6.79q13.81,0,21.4-6.79t7.58-19.11V348.25h30.77v91.39q0,16.85-7,28.81a45.12,45.12,0,0,1-20.44,18.22q-13.42,6.25-32.29,6.25T967.85,486.67Z" transform="translate(-102.13 -248.87)"/><path d="M1128.67,492.92l-11.17-2.07a107.48,107.48,0,0,1-21-6.06,82,82,0,0,1-17.58-9.6l14.26-22.25A72.35,72.35,0,0,0,1115,463.42a87.81,87.81,0,0,0,25.38,3.7q15,0,23.36-4.48T1172,450v-.1a11.63,11.63,0,0,0-3.71-9.06,22.89,22.89,0,0,0-9.65-4.92,132.73,132.73,0,0,0-15.28-2.86,2.42,2.42,0,0,0-.62-.1,2.37,2.37,0,0,1-.61-.09l-2.47-.3a170.17,170.17,0,0,1-27.18-5.66A40.13,40.13,0,0,1,1094.19,415q-7.51-8.52-7.52-24.18v-.09q0-13.89,7.07-23.74t20.55-15q13.49-5.16,32.57-5.17a93.58,93.58,0,0,1,17.92,1.78,107.19,107.19,0,0,1,17.91,5.12,104.62,104.62,0,0,1,16.62,8.07l-13,22.85a87.33,87.33,0,0,0-19.71-8.86,67.22,67.22,0,0,0-19.71-3.16q-14.14,0-21.9,4.09t-7.75,11.47v.1a12.42,12.42,0,0,0,4,9.8,24.76,24.76,0,0,0,10,5.27q6,1.68,16.74,3.55a8.68,8.68,0,0,0,.89.14q.45.06.9.15c.45.07.88.15,1.3.25a12.31,12.31,0,0,0,1.29.24,152.81,152.81,0,0,1,25.88,6.45,39.76,39.76,0,0,1,17.35,12.22q7,8.42,7,23v.2q0,13.69-7.3,23.44T1174,487.8q-14,5.11-33.64,5.12Z" transform="translate(-102.13 -248.87)"/><path d="M1258,491.44h-31.89V348.25H1258Z" transform="translate(-102.13 -248.87)"/><path d="M1291.74,348.25h37.62L1390.12,458l-2.7,2.56V348.25h29.42V491.34H1379l-60.54-108,2.7-2.56V491.34h-29.42Z" transform="translate(-102.13 -248.87)"/><path d="M1452.78,348.25h30.77V491.44h-30.77Zm11.12,0h98.27v26H1463.9Zm0,59.09h85.91v26H1463.9Zm0,58.1h98.27v26H1463.9Z" transform="translate(-102.13 -248.87)"/><path d="M1629.89,492.92l-11.18-2.07a107.89,107.89,0,0,1-21-6.06,82.46,82.46,0,0,1-17.58-9.6l14.27-22.25a72.41,72.41,0,0,0,21.78,10.48,87.93,87.93,0,0,0,25.39,3.7q15,0,23.35-4.48t8.32-12.66v-.1a11.63,11.63,0,0,0-3.71-9.06,22.87,22.87,0,0,0-9.66-4.92A132.93,132.93,0,0,0,1644.6,433a2.49,2.49,0,0,0-.62-.1,2.44,2.44,0,0,1-.62-.09l-2.47-.3a170.41,170.41,0,0,1-27.18-5.66,40.1,40.1,0,0,1-18.3-11.92q-7.53-8.52-7.53-24.18v-.09q0-13.89,7.08-23.74t20.55-15q13.48-5.16,32.57-5.17a93.4,93.4,0,0,1,17.91,1.78,107.19,107.19,0,0,1,17.91,5.12,105.15,105.15,0,0,1,16.63,8.07l-13,22.85a87.33,87.33,0,0,0-19.71-8.86,67.22,67.22,0,0,0-19.71-3.16q-14.14,0-21.9,4.09t-7.75,11.47v.1a12.45,12.45,0,0,0,4,9.8,24.87,24.87,0,0,0,10,5.27q6,1.68,16.73,3.55c.3.06.6.11.9.14s.6.09.9.15c.45.07.88.15,1.29.25a12.31,12.31,0,0,0,1.29.24,153.2,153.2,0,0,1,25.89,6.45,39.82,39.82,0,0,1,17.35,12.22q7,8.42,7,23v.2q0,13.69-7.3,23.44T1675.2,487.8q-14,5.11-33.63,5.12Z" transform="translate(-102.13 -248.87)"/><path d="M1767,492.92l-11.18-2.07a107.89,107.89,0,0,1-21-6.06,82.14,82.14,0,0,1-17.57-9.6l14.26-22.25a72.35,72.35,0,0,0,21.79,10.48,87.81,87.81,0,0,0,25.38,3.7q15,0,23.36-4.48t8.31-12.66v-.1a11.63,11.63,0,0,0-3.71-9.06,22.89,22.89,0,0,0-9.65-4.92,132.73,132.73,0,0,0-15.28-2.86,2.42,2.42,0,0,0-.62-.1,2.37,2.37,0,0,1-.61-.09l-2.47-.3a170.17,170.17,0,0,1-27.18-5.66A40.13,40.13,0,0,1,1732.53,415q-7.52-8.52-7.52-24.18v-.09q0-13.89,7.07-23.74t20.55-15q13.48-5.16,32.57-5.17a93.58,93.58,0,0,1,17.92,1.78,107.19,107.19,0,0,1,17.91,5.12,104.62,104.62,0,0,1,16.62,8.07l-13,22.85a87.33,87.33,0,0,0-19.71-8.86,67.22,67.22,0,0,0-19.71-3.16q-14.15,0-21.9,4.09t-7.75,11.47v.1a12.42,12.42,0,0,0,4,9.8,24.76,24.76,0,0,0,10,5.27q6,1.68,16.74,3.55a8.68,8.68,0,0,0,.89.14q.45.06.9.15c.45.07.88.15,1.3.25a12.31,12.31,0,0,0,1.29.24,152.81,152.81,0,0,1,25.88,6.45,39.76,39.76,0,0,1,17.35,12.22q7,8.42,7,23v.2q0,13.69-7.3,23.44t-21.28,14.87q-14,5.11-33.64,5.12Z" transform="translate(-102.13 -248.87)"/></svg>