<svg id="Capa_1" data-name="Capa 1" xmlns="http://www.w3.org/2000/svg" viewBox="0 0 247.95 204.89"><defs><style>.cls-1{fill:#fefefe;}.cls-2{fill:#fdf9f6;}.cls-3{fill:none;stroke:#000;stroke-miterlimit:10;stroke-width:2px;}</style></defs><title>moodle</title><path d="M952.61,373.17c23,0,46,0,69,0,31.52.07,55.05,23.51,55.12,55q.1,48,0,96a53.31,53.31,0,0,1-40.29,52.1,58.63,58.63,0,0,1-14.83,1.79q-69,0-138,0c-31.46,0-54.71-23.3-54.75-54.62q-.07-47.49,0-95c0-31.86,23.35-55.15,55.27-55.22C907,373.13,929.79,373.17,952.61,373.17Z" transform="translate(-828.83 -373.15)"/><path class="cls-1" d="M1044.6,477.34c-.36-19.84-10.79-32.29-30.09-37.07a75.58,75.58,0,0,0-29.77-1.06c-5,.75-10.23,1.77-13.87,5.19-4.09,3.84-7.39,4.44-11.38.5-1.57-3.06-4.21-5.16-6.94-7-3.67-2.48-4.23-4.21,0-7,7.46-5,14.59-10.46,21.77-15.85,1.45-1.09,3.43-1.84,4.26-4a7.4,7.4,0,0,0-1.74-.39c-18.35,1.84-36.62,4.22-54.58,8.52A234.06,234.06,0,0,0,856,446c-.21,1,.41,1.38,1.19,1.66,1.23.35,2.29-.27,3.36-.65,15.59-5.48,31.5-9.91,47.42-14.34-15.64,4.47-31.36,8.65-46.63,14.27-1.5.55-3.85.51-3.14,3.27,2.5,1.38,5.24.89,7.81.65,12-1.1,24.05-.76,35.25-1a79.88,79.88,0,0,1-10,.14c-1.15-.07-2.35,0-3.06,1.21-1.38,6.21-2.7,12.43-1.34,18.84a10,10,0,0,0-.59,2.4c-.12,23.14-.18,46.28-.32,69.42,0,2.64,1.44,2.9,3.51,2.89,7.33-.06,14.67-.34,22,.09,5,.29,6.43-1,6.42-6.23,0-21.63-.81-43.27.4-64.89h0a70.85,70.85,0,0,0,23.66-9h0c6.49,3.91,7.34,10.33,7.37,17,.09,19.15.21,38.31-.06,57.46-.07,4.75,1.44,5.93,5.91,5.71,7.15-.35,14.33-.27,21.48,0,3.46.12,4.55-.83,4.5-4.4-.19-15.15-.08-30.31-.08-45.47,0-5.33-.21-10.68.11-16,.65-10.68,6.1-16.12,15.77-16.16s15.08,5.16,16,15.89c.22,2.48.16,5,.16,7.49,0,18,.12,36-.08,54-.05,3.84,1.14,4.81,4.81,4.68,7.65-.27,15.32-.21,23,0,3.11.07,4-1,4-4C1044.66,519.65,1045,498.49,1044.6,477.34Z" transform="translate(-828.83 -373.15)"/><path class="cls-2" d="M854.06,452.07c-1.37,10.61-1.74,21.16.64,31.72,2.53,11.21,2.56,22.6,1.86,34-5.11-9.91-8.56-20.39-6.16-31.46,2.48-11.44.76-22.85,1.48-34.24-.28-1,.25-1.34,1.07-1.53C853.78,450.74,854.33,451.09,854.06,452.07Z" transform="translate(-828.83 -373.15)"/><path d="M858.18,449.17c6.18,1.74,12.43.53,18.65.34,16.53-.49,33.06-1.06,49.59-1.59l.1,1.75-38.35,1.58c-11-1-22,1.11-33,.54C855.09,449.67,855.84,448.52,858.18,449.17Z" transform="translate(-828.83 -373.15)"/><path d="M858.18,449.17c-1.67.1-2.31,1.39-3,2.62l-1.13.28-1.17-1.19a1.42,1.42,0,0,1-.09-1.24c.89-1.78,2.54-2.25,4.33-2.47,17.16-6.38,35-10.53,52.31-16.5,1.13-.39,2.69-.9,2.91.56.32,2.06-1.85,1.9-3.15,2.25C892,438.12,874.91,443,858.18,449.17Z" transform="translate(-828.83 -373.15)"/><path class="cls-1" d="M857.13,447.17,852.94,450c-1.38.88-2.77,1.28-4.16,0,2.21-1.69,4.34-3.54,7.24-4Z" transform="translate(-828.83 -373.15)"/><path class="cls-1" d="M848.78,449.4l4.17,0a8.69,8.69,0,0,0,0,1.14l-1,1.58c-1.39-.31-3.06.84-4.12-.93C847.37,450.51,848.15,449.75,848.78,449.4Z" transform="translate(-828.83 -373.15)"/><path class="cls-3" d="M907.75,475.11a45.89,45.89,0,0,1-23-6.54,42.76,42.76,0,0,1-6.42-4.82" transform="translate(-828.83 -373.15)"/></svg>