<svg id="Capa_1" data-name="Capa 1" xmlns="http://www.w3.org/2000/svg" viewBox="0 0 994 994"><defs><style>.cls-1{fill:#1b1918;}.cls-2{fill:#565757;}.cls-2,.cls-3,.cls-4{fill-rule:evenodd;}.cls-3{fill:#b1b3b4;}.cls-4{fill:#fff;}</style></defs><title>black-business-wassi-consulting</title><circle class="cls-1" cx="497" cy="497" r="497"/><path class="cls-2" d="M788.19,634,969.3,263.13h104.59L895.1,634Zm0,0" transform="translate(-462.06 -38.34)"/><path class="cls-3" d="M980.7,634l181.11-370.89h104.6L1087.61,634Zm0,0" transform="translate(-462.06 -38.34)"/><path class="cls-4" d="M823.67,395.05,757.33,263.13H652.72L767.9,503.61Zm0,0" transform="translate(-462.06 -38.34)"/><path class="cls-4" d="M1121,346.62l-47.11-83.41L1024,366.63l46.21,84.07Zm0,0" transform="translate(-462.06 -38.34)"/><path class="cls-4" d="M647.23,693.64c5.46,1.22,9.54,3.16,12.26,5.87a18.68,18.68,0,0,1,5.63,13.75,22,22,0,0,1-13.9,20.1q-6.45,2.6-19.76,2.61H594.31v-2.25h2.93c3.27,0,5.61-1.11,7-3.3.88-1.41,1.32-4.45,1.32-9.08V667.72c0-5.13-.55-8.35-1.67-9.69-1.51-1.79-3.73-2.68-6.7-2.68h-2.93V653.1h34a63.69,63.69,0,0,1,15.25,1.46c5.82,1.48,10.25,4.06,13.29,7.78a19.68,19.68,0,0,1,4.59,12.86,18.39,18.39,0,0,1-3.6,11.14,21,21,0,0,1-10.61,7.3Zm-30.43-3.4a42.15,42.15,0,0,0,4.9.65c1.85.15,3.87.21,6.07.21,5.65,0,9.92-.65,12.76-1.92a13.89,13.89,0,0,0,6.53-5.88,17.26,17.26,0,0,0,2.24-8.62,16.13,16.13,0,0,0-5.63-12.35q-5.64-5.1-16.41-5.1a37.93,37.93,0,0,0-10.46,1.32Zm0,39.71a56.24,56.24,0,0,0,13.35,1.64q10.56,0,16.11-5a15.88,15.88,0,0,0,5.54-12.29,18.13,18.13,0,0,0-2.58-9.28,17.41,17.41,0,0,0-8.19-7,33.69,33.69,0,0,0-13.95-2.56c-2.4,0-4.44,0-6.15.13a34.64,34.64,0,0,0-4.13.41Zm560.66-76.85v2.25a9.63,9.63,0,0,0-5,1.17,11,11,0,0,0-3.65,4.33,74,74,0,0,0-3.68,10.21l-21.9,66.79h-2.33l-18-53-17.76,53H1103l-23.37-68.75c-1.74-5.17-2.85-8.21-3.31-9.15a7.76,7.76,0,0,0-3.17-3.46,10.9,10.9,0,0,0-5.44-1.14V653.1h29.12v2.25h-1.41a6.76,6.76,0,0,0-4.7,1.48,4.59,4.59,0,0,0-1.62,3.54q0,2.14,2.55,9.89l15.54,46.47,13.11-39.49-2.38-7-1.87-5.59a31,31,0,0,0-2.72-5.41,7.83,7.83,0,0,0-1.86-2,10.35,10.35,0,0,0-2.92-1.58,11.7,11.7,0,0,0-3.49-.37V653.1h30.66v2.25h-2.11q-3.24,0-4.76,1.48a5.31,5.31,0,0,0-1.51,4c0,2.08.88,5.75,2.62,10.95l15.14,45,15-45.62q2.55-7.62,2.56-10.57a4.59,4.59,0,0,0-.84-2.64,4.65,4.65,0,0,0-2.12-1.73,16.5,16.5,0,0,0-5.75-.85V653.1Zm-462,20.84v-1.73h21.34v1.73h-2.28a6.09,6.09,0,0,0-5.49,3.14c-.63,1-.93,3.22-.93,6.76v25.85q0,9.59-1.8,14.86a18.52,18.52,0,0,1-7.11,9.07q-5.29,3.79-14.39,3.79-9.93,0-15.06-3.62a19.39,19.39,0,0,1-7.28-9.73Q681,719.88,681,708.37V683.45c0-3.9-.52-6.47-1.54-7.69s-2.7-1.82-5-1.82h-2.27v-1.73h26.19v1.73H696.1q-3.76,0-5.36,2.48c-.75,1.12-1.12,3.48-1.12,7v27.78a66.45,66.45,0,0,0,.64,8.51,19.21,19.21,0,0,0,2.36,7.48,13.28,13.28,0,0,0,4.9,4.42,16.31,16.31,0,0,0,7.84,1.73A21,21,0,0,0,716,730.65a14.44,14.44,0,0,0,6.42-7q1.71-4.27,1.72-14.41V683.45c0-4-.41-6.45-1.25-7.44a6.38,6.38,0,0,0-5.18-2.07Zm64.4-3.17v22h-1.64a28.54,28.54,0,0,0-2.89-10.1,15.35,15.35,0,0,0-6-6,15.78,15.78,0,0,0-8-2.22,10.57,10.57,0,0,0-7.72,3,9.31,9.31,0,0,0-3,6.79,8.34,8.34,0,0,0,1.93,5.32c1.86,2.35,6.25,5.48,13.21,9.4a91.75,91.75,0,0,1,11.64,7.35,17.84,17.84,0,0,1,4.79,6,16.61,16.61,0,0,1,1.68,7.3,16.88,16.88,0,0,1-5.35,12.47q-5.35,5.24-13.76,5.24a27,27,0,0,1-5-.43,47.91,47.91,0,0,1-5.76-1.74,24.67,24.67,0,0,0-5.53-1.49,2.28,2.28,0,0,0-1.77.71,6.14,6.14,0,0,0-1,2.95h-1.65V715.58h1.65c.78,4.56,1.81,8,3.13,10.26a15.33,15.33,0,0,0,6,5.66,18,18,0,0,0,8.88,2.25c3.72,0,6.69-1,8.84-3.1a9.89,9.89,0,0,0,3.25-7.36,10.56,10.56,0,0,0-1.22-4.77,14.16,14.16,0,0,0-3.82-4.48,105.67,105.67,0,0,0-9.55-6,91.89,91.89,0,0,1-11.12-7.27,19.69,19.69,0,0,1-5-6,15.46,15.46,0,0,1-1.71-7.24,16.08,16.08,0,0,1,5-11.82,17.45,17.45,0,0,1,12.78-4.94,24.81,24.81,0,0,1,10.27,2.48,10.23,10.23,0,0,0,3.54,1.16,2.6,2.6,0,0,0,1.91-.71,6.17,6.17,0,0,0,1.2-2.93ZM817,734.23V736H791v-1.74h2.15c2.52,0,4.34-.76,5.48-2.28.72-1,1.07-3.42,1.07-7.24V683.45a22.31,22.31,0,0,0-.58-6.37,4.08,4.08,0,0,0-1.85-2,8.19,8.19,0,0,0-4.12-1.12H791v-1.73h26v1.73h-2.17c-2.47,0-4.28.77-5.4,2.29-.76,1-1.12,3.42-1.12,7.22v41.26a22.5,22.5,0,0,0,.57,6.39,4.19,4.19,0,0,0,1.88,2,7.92,7.92,0,0,0,4.07,1.11Zm1-62h16.31l37.2,47.87V683.27c0-3.93-.42-6.39-1.26-7.36-1.12-1.32-2.89-2-5.3-2h-2.13v-1.73h21.33v1.73H882c-2.62,0-4.45.81-5.55,2.45-.65,1-1,3.3-1,6.88V737h-1.62l-40-51.36v39.27q0,5.88,1.22,7.36c1.15,1.31,2.91,2,5.31,2h2.17V736H821.26v-1.74h2.13c2.63,0,4.49-.81,5.58-2.45.66-1,1-3.29,1-6.87V680.58a28.78,28.78,0,0,0-4-4.29,14.73,14.73,0,0,0-4-1.94,14.16,14.16,0,0,0-3.93-.41Zm86.5,3.46v25.19H917.9c3.46,0,5.77-.53,6.93-1.63,1.55-1.44,2.41-4,2.6-7.6h1.64v22.22h-1.64a25.62,25.62,0,0,0-1.26-6,5.74,5.74,0,0,0-2.64-2.58,13,13,0,0,0-5.63-.94H904.53v21a21.09,21.09,0,0,0,.35,5.14,2.91,2.91,0,0,0,1.25,1.46,7.19,7.19,0,0,0,3.4.54H919.8a26.74,26.74,0,0,0,7.47-.75,11,11,0,0,0,4.46-3,36.49,36.49,0,0,0,5.68-8.79h1.83L934,736H887.22v-1.74h2.15a8.16,8.16,0,0,0,4.08-1.09,3.86,3.86,0,0,0,1.95-2.26,22.88,22.88,0,0,0,.52-6.17V683.27c0-4-.38-6.53-1.16-7.46-1.09-1.24-2.87-1.87-5.39-1.87h-2.15v-1.73H934l.64,14h-1.74a23.24,23.24,0,0,0-2.07-7,7.39,7.39,0,0,0-3.38-2.91,19.65,19.65,0,0,0-6.3-.7Zm78.84-4.9v22h-1.65a28.13,28.13,0,0,0-2.89-10.1,15.35,15.35,0,0,0-6-6,15.75,15.75,0,0,0-8-2.22,10.54,10.54,0,0,0-7.7,3,9.25,9.25,0,0,0-3.06,6.79,8.28,8.28,0,0,0,1.93,5.32c1.86,2.35,6.25,5.48,13.22,9.4a91.87,91.87,0,0,1,11.62,7.35,17.63,17.63,0,0,1,4.8,6,17,17,0,0,1-3.66,19.77,18.91,18.91,0,0,1-13.77,5.24,27.09,27.09,0,0,1-5-.43,49,49,0,0,1-5.76-1.74,24.5,24.5,0,0,0-5.52-1.49,2.28,2.28,0,0,0-1.77.71,5.93,5.93,0,0,0-1,2.95h-1.65V715.58h1.65c.78,4.56,1.82,8,3.13,10.26a15.33,15.33,0,0,0,6,5.66,18,18,0,0,0,8.88,2.25c3.73,0,6.69-1,8.84-3.1a9.89,9.89,0,0,0,3.25-7.36,10.56,10.56,0,0,0-1.22-4.77,14.43,14.43,0,0,0-3.82-4.48,105.67,105.67,0,0,0-9.55-6,90,90,0,0,1-11.11-7.27,19.63,19.63,0,0,1-5-6,15.45,15.45,0,0,1-1.7-7.24,16.08,16.08,0,0,1,5-11.82,17.45,17.45,0,0,1,12.78-4.94,24.78,24.78,0,0,1,10.27,2.48,10.17,10.17,0,0,0,3.54,1.16,2.57,2.57,0,0,0,1.9-.71,6.07,6.07,0,0,0,1.2-2.93Zm50.93,0v22h-1.64a28.34,28.34,0,0,0-2.89-10.1,15.42,15.42,0,0,0-5.95-6,15.78,15.78,0,0,0-8-2.22,10.56,10.56,0,0,0-7.71,3,9.27,9.27,0,0,0-3,6.79,8.33,8.33,0,0,0,1.92,5.32c1.87,2.35,6.26,5.48,13.22,9.4a92.52,92.52,0,0,1,11.64,7.35,17.84,17.84,0,0,1,4.79,6,16.6,16.6,0,0,1,1.67,7.3,16.87,16.87,0,0,1-5.34,12.47q-5.37,5.24-13.77,5.24a27,27,0,0,1-5-.43,48.52,48.52,0,0,1-5.75-1.74,24.83,24.83,0,0,0-5.54-1.49,2.31,2.31,0,0,0-1.77.71,6.05,6.05,0,0,0-1,2.95h-1.65V715.58h1.65c.78,4.56,1.81,8,3.12,10.26a15.33,15.33,0,0,0,6,5.66,18,18,0,0,0,8.88,2.25c3.73,0,6.69-1,8.84-3.1a9.9,9.9,0,0,0,3.26-7.36,10.69,10.69,0,0,0-1.22-4.77,14.43,14.43,0,0,0-3.82-4.48,105.67,105.67,0,0,0-9.55-6,91.08,91.08,0,0,1-11.12-7.27,19.59,19.59,0,0,1-5-6,15.46,15.46,0,0,1-1.71-7.24,16.12,16.12,0,0,1,5-11.82,17.46,17.46,0,0,1,12.78-4.94,24.74,24.74,0,0,1,10.27,2.48,10.26,10.26,0,0,0,3.55,1.16,2.64,2.64,0,0,0,1.91-.71,6.18,6.18,0,0,0,1.19-2.93Zm186.11,43.94h-23.52l-4.07,10a16.83,16.83,0,0,0-1.52,5.55,3.29,3.29,0,0,0,1.33,2.56c.87.72,2.78,1.2,5.69,1.42V736h-19.14v-1.74q3.79-.69,4.91-1.82,2.29-2.26,5.06-9.17l21.35-52.47H1212l21.11,53c1.7,4.27,3.24,7,4.63,8.31a9.22,9.22,0,0,0,5.8,2.12V736h-23.94v-1.74c2.42-.12,4.05-.54,4.91-1.27a3.3,3.3,0,0,0,1.26-2.63,20.22,20.22,0,0,0-1.79-6.55Zm-1.37-3.46-10.23-25.72-10.51,25.72Zm67.58-40.48v22H1285a27.93,27.93,0,0,0-2.89-10.1,15.22,15.22,0,0,0-5.95-6,15.69,15.69,0,0,0-8-2.22,10.55,10.55,0,0,0-7.71,3,9.28,9.28,0,0,0-3.06,6.79,8.29,8.29,0,0,0,1.94,5.32q2.78,3.52,13.21,9.4a93,93,0,0,1,11.63,7.35,17.6,17.6,0,0,1,4.79,6,16.62,16.62,0,0,1,1.69,7.3,16.88,16.88,0,0,1-5.35,12.47q-5.36,5.24-13.77,5.24a27.17,27.17,0,0,1-5-.43,49.1,49.1,0,0,1-5.75-1.74,24.64,24.64,0,0,0-5.52-1.49,2.27,2.27,0,0,0-1.77.71,5.91,5.91,0,0,0-1,2.95h-1.65V715.58h1.65c.78,4.56,1.82,8,3.14,10.26a15.3,15.3,0,0,0,6,5.66,18,18,0,0,0,8.89,2.25c3.72,0,6.68-1,8.84-3.1a9.92,9.92,0,0,0,3.25-7.36,10.69,10.69,0,0,0-1.22-4.77,14.29,14.29,0,0,0-3.82-4.48,106.46,106.46,0,0,0-9.56-6,91.58,91.58,0,0,1-11.11-7.27,19.41,19.41,0,0,1-5-6,15.34,15.34,0,0,1-1.71-7.24,16,16,0,0,1,5-11.82,17.42,17.42,0,0,1,12.77-4.94,24.82,24.82,0,0,1,10.28,2.48,10.14,10.14,0,0,0,3.53,1.16,2.6,2.6,0,0,0,1.91-.71,6.08,6.08,0,0,0,1.19-2.93Zm37.2,63.46V736h-26v-1.74H1300c2.53,0,4.34-.76,5.49-2.28q1.07-1.51,1.07-7.24V683.45a22.19,22.19,0,0,0-.59-6.37,4.2,4.2,0,0,0-1.84-2,8.22,8.22,0,0,0-4.13-1.12h-2.15v-1.73h26v1.73h-2.18c-2.47,0-4.27.77-5.4,2.29q-1.12,1.51-1.12,7.22v41.26a22.38,22.38,0,0,0,.58,6.39,4.1,4.1,0,0,0,1.88,2,7.88,7.88,0,0,0,4.06,1.11Zm0,0" transform="translate(-462.06 -38.34)"/><path class="cls-4" d="M783.93,760.1l1,15.41h-1q-2.07-6.93-5.9-10a14.39,14.39,0,0,0-9.2-3,14.86,14.86,0,0,0-8.12,2.29,15.09,15.09,0,0,0-5.72,7.32,32.81,32.81,0,0,0-2.08,12.48,26.7,26.7,0,0,0,2,10.69,14.91,14.91,0,0,0,5.91,6.93,16.93,16.93,0,0,0,9,2.4,15.68,15.68,0,0,0,7.77-1.88q3.38-1.89,7.39-7.5l1,.69a23.7,23.7,0,0,1-7.94,8.84,20.16,20.16,0,0,1-10.77,2.8q-11.25,0-17.42-8.37a24,24,0,0,1-4.61-14.65,26.13,26.13,0,0,1,3-12.49,21.87,21.87,0,0,1,8.34-8.83,22.46,22.46,0,0,1,11.61-3.12,21.19,21.19,0,0,1,9.67,2.41,5.25,5.25,0,0,0,2,.74,2.21,2.21,0,0,0,1.56-.64,5.12,5.12,0,0,0,1.24-2.51Zm29.47,0a20.52,20.52,0,0,1,15.28,6.71,23.16,23.16,0,0,1,6.48,16.76q0,10.33-6.52,17.17a21.75,21.75,0,0,1-31.49.15q-6.36-6.66-6.37-17.24,0-10.8,7.35-17.63a21.66,21.66,0,0,1,15.27-5.92Zm-.64,2.4A11.9,11.9,0,0,0,803,767q-4.57,5.64-4.58,16.48,0,11.13,4.74,17.11a11.66,11.66,0,0,0,9.6,4.56,13.13,13.13,0,0,0,10.54-5q4.17-5,4.16-15.75c0-7.77-1.54-13.56-4.58-17.38a12.29,12.29,0,0,0-10.15-4.55Zm24.17-1.37h12.2l27.81,34.09V769q0-4.18-1-5.24a5.06,5.06,0,0,0-4-1.4h-1.61v-1.23h16v1.23h-1.62c-1.95,0-3.32.58-4.14,1.75-.49.72-.75,2.35-.75,4.89v38.26h-1.2l-29.89-36.57v28c0,2.79.31,4.54.91,5.24a5.18,5.18,0,0,0,4,1.4h1.62v1.23h-16V805.3h1.6c2,0,3.34-.58,4.17-1.75.48-.71.74-2.34.74-4.89V767.09a20.44,20.44,0,0,0-3-3.05,9.49,9.49,0,0,0-5.93-1.68Zm81.8-1v15.68h-1.24a19.43,19.43,0,0,0-2.15-7.19,11.17,11.17,0,0,0-4.45-4.24,12.17,12.17,0,0,0-6-1.58,8.11,8.11,0,0,0-5.77,2.13,6.48,6.48,0,0,0-2.28,4.83,5.76,5.76,0,0,0,1.44,3.79c1.39,1.67,4.68,3.91,9.88,6.69a69,69,0,0,1,8.7,5.24,12.63,12.63,0,0,1,3.58,4.3,11.32,11.32,0,0,1,1.26,5.19,11.8,11.8,0,0,1-4,8.89,14.51,14.51,0,0,1-10.3,3.73,20.89,20.89,0,0,1-3.72-.31,36.73,36.73,0,0,1-4.3-1.24,19.15,19.15,0,0,0-4.14-1,1.76,1.76,0,0,0-1.32.5,4.07,4.07,0,0,0-.71,2.1H892V792h1.24a21.82,21.82,0,0,0,2.33,7.31,11.23,11.23,0,0,0,4.51,4,14,14,0,0,0,6.64,1.61,9.45,9.45,0,0,0,6.61-2.21,6.92,6.92,0,0,0,2.43-5.25,7.28,7.28,0,0,0-.91-3.39,10.38,10.38,0,0,0-2.85-3.19,79,79,0,0,0-7.15-4.26,68.49,68.49,0,0,1-8.31-5.18,14,14,0,0,1-3.74-4.28,10.56,10.56,0,0,1-1.28-5.16,11.23,11.23,0,0,1,3.75-8.42,13.48,13.48,0,0,1,9.56-3.52,19.28,19.28,0,0,1,7.68,1.77,7.82,7.82,0,0,0,2.65.83,2,2,0,0,0,1.43-.51,4.24,4.24,0,0,0,.88-2.09Zm39.39,2.26v-1.23h16v1.23h-1.71a4.59,4.59,0,0,0-4.11,2.24c-.46.7-.69,2.29-.69,4.81v18.41a32.41,32.41,0,0,1-1.35,10.59,13.29,13.29,0,0,1-5.32,6.45q-4,2.7-10.76,2.7c-4.94,0-8.7-.85-11.25-2.58a13.84,13.84,0,0,1-5.45-6.93q-1.08-3-1.07-11.17V769.14c0-2.79-.39-4.61-1.15-5.48a4.74,4.74,0,0,0-3.73-1.3h-1.7v-1.23h19.59v1.23h-1.74a4.47,4.47,0,0,0-4,1.77c-.56.79-.83,2.48-.83,5v19.78a45.65,45.65,0,0,0,.47,6.06A13.12,13.12,0,0,0,941,800.3a9.9,9.9,0,0,0,3.66,3.15,12.78,12.78,0,0,0,5.88,1.24,16.34,16.34,0,0,0,8-1.94,10.52,10.52,0,0,0,4.8-5c.85-2,1.28-5.45,1.28-10.26V769.14c0-2.83-.31-4.61-.93-5.31a4.9,4.9,0,0,0-3.87-1.47Zm56,31.64,1.1.24-3.91,12.29H976.21V805.3h1.7a4.55,4.55,0,0,0,4.11-1.86q.69-1.07.69-4.92V769.14c0-2.83-.31-4.61-.93-5.31a4.9,4.9,0,0,0-3.87-1.47h-1.7v-1.23h20.55v1.23a12.76,12.76,0,0,0-5.09.66,4,4,0,0,0-2,1.75c-.36.7-.54,2.39-.54,5.05v28.63a9.29,9.29,0,0,0,.54,3.83,2.39,2.39,0,0,0,1.24,1,21.72,21.72,0,0,0,5.23.34h3.31a24.12,24.12,0,0,0,7.34-.77,9.74,9.74,0,0,0,3.86-2.73,22.85,22.85,0,0,0,3.48-6.16ZM1050,761.13l.48,10.67h-1.27a12.71,12.71,0,0,0-1-4,6.73,6.73,0,0,0-2.76-2.87,9.68,9.68,0,0,0-4.54-.92h-6.39v34.66q0,4.19.9,5.24a5,5,0,0,0,3.91,1.4h1.57v1.23h-19.32V805.3h1.63a4.71,4.71,0,0,0,4.14-1.75c.49-.71.73-2.34.73-4.89V764h-5.43a15.36,15.36,0,0,0-4.53.47,6.17,6.17,0,0,0-3,2.45,9.89,9.89,0,0,0-1.48,4.88h-1.26l.48-10.67Zm23.34,44.17v1.23h-19.44V805.3h1.6a4.91,4.91,0,0,0,4.1-1.63c.54-.72.8-2.44.8-5.15V769.14a14.85,14.85,0,0,0-.44-4.54,3,3,0,0,0-1.38-1.44,6.24,6.24,0,0,0-3.08-.8h-1.6v-1.23h19.44v1.23h-1.63a4.77,4.77,0,0,0-4,1.64c-.56.71-.84,2.42-.84,5.14v29.38a14.85,14.85,0,0,0,.44,4.54,3,3,0,0,0,1.41,1.44,6,6,0,0,0,3,.8Zm.73-44.17h12.2l27.82,34.09V769q0-4.18-.95-5.24a5.06,5.06,0,0,0-4-1.4h-1.59v-1.23h16v1.23H1122c-2,0-3.32.58-4.14,1.75q-.75,1.08-.75,4.89v38.26h-1.21L1086,770.69v28q0,4.19.92,5.24a5.15,5.15,0,0,0,4,1.4h1.62v1.23h-16V805.3h1.6c2,0,3.35-.58,4.17-1.75.49-.71.74-2.34.74-4.89V767.09a21,21,0,0,0-3-3.05,11.08,11.08,0,0,0-3-1.38,10.75,10.75,0,0,0-3-.3Zm92.35-1,1.17,14.31h-1.24a19.65,19.65,0,0,0-4.56-8,14.39,14.39,0,0,0-10.38-3.88q-8.62,0-13.13,6.85a24.61,24.61,0,0,0-3.77,13.78,27.46,27.46,0,0,0,2.51,11.84,17.71,17.71,0,0,0,6.56,7.84,15.88,15.88,0,0,0,8.35,2.49,18.71,18.71,0,0,0,4.85-.64,19.82,19.82,0,0,0,4.51-1.89V789.61a12,12,0,0,0-.52-4.47,3.49,3.49,0,0,0-1.61-1.61,9.26,9.26,0,0,0-3.83-.56v-1.23h17.53V783h-.83a3.72,3.72,0,0,0-3.57,1.75c-.45.82-.67,2.45-.67,4.89v13.91a33.7,33.7,0,0,1-7.58,3.07,33,33,0,0,1-8.32,1q-13.12,0-19.93-8.44a22.47,22.47,0,0,1-5.12-14.58A25.63,25.63,0,0,1,1139.1,763a22.87,22.87,0,0,1,11.76-2.91,23.8,23.8,0,0,1,4.49.4,42.53,42.53,0,0,1,5.73,1.77,9.26,9.26,0,0,0,2.51.71,1.35,1.35,0,0,0,1.08-.59,4.5,4.5,0,0,0,.55-2.29Zm0,0" transform="translate(-462.06 -38.34)"/></svg>