<svg id="Capa_1" data-name="Capa 1" xmlns="http://www.w3.org/2000/svg" viewBox="0 0 1363.39 1053.26"><defs><style>.cls-1{fill:#c3399f;}.cls-2{fill:#1f0453;}.cls-3{fill:#e6e6e6;}.cls-4{fill:#fff;}</style></defs><title>busines-wassi-estrategia-digital</title><path class="cls-1" d="M1637.39,29c0-15.16-3.05-18.26-18.22-18.22q-331.74.93-663.48.43-331.74,0-663.48-.43C277.05,10.7,274,13.8,274,29q.83,508.43,0,1016.83c0,15.17,3.06,18.23,18.22,18.21q663.48-.76,1327,0c15.17,0,18.24-3,18.22-18.21Q1636.56,537.38,1637.39,29Z" transform="translate(-274 -10.74)"/><path class="cls-2" d="M956.4,891c-188,0-376.07-1.32-564.07.79-57.5.65-88.8-34-88.3-87.65,2-221,.83-442.1.86-663.16,0-57.67,25.82-83.25,84-83.26q564.08-.07,1128.15-.08c70.18,0,93.42,22.93,93.44,92.27q.06,326.51-.09,653c-.05,50.19-17.25,77-54.6,85.84-9.73,2.29-20.15,2.15-30.26,2.16Q1241,891.12,956.4,891Z" transform="translate(-274 -10.74)"/><path class="cls-3" d="M1317.34,206c56.74,0,113.49.6,170.22-.33,16.23-.26,22.55,3.47,21.74,20.91-1.41,30.42-1.29,61,0,91.43.69,16.14-4.91,19.79-20.16,19.62-67.74-.77-135.5,0-203.25-.63-14.36-.14-18.38,2.15-21,18.84-6.86,43.15-15.47,52.31-.91,65.4,13.27,11.93,43.47,5.83,66.23,6.22,35,.59,68.47,7.65,101.45,19.17,129.93,45.4,147.07,212.25,63.85,299.18-43.89,45.85-99.88,66.3-160.47,71.81-91.27,8.29-180.27-2.93-263.53-45.24-15.23-7.74-21-14-11-31.86,16.44-29.3,29.51-60.54,43.25-91.3,5.72-12.81,11-15.62,24.34-7.63,49.74,29.77,104.37,42,162.14,40.76,20.58-.44,40.08-5.53,57.73-15.92,19.1-11.25,28.13-28.66,26.7-51s-12.59-37.31-33.86-45.86c-18.44-7.43-37.44-10.26-56.86-10.53-54.19-.73-108.42-2-162.57-.63-21,.52-25.74-6.45-23.94-25.64,6.54-69.85,12-139.79,18-209.7,2.66-31.15,7.2-62.26,7.64-93.43.27-18.71,4.67-24.65,24.07-24.19C1203.83,206.85,1260.6,206,1317.34,206Z" transform="translate(-274 -10.74)"/><path class="cls-3" d="M388.62,205.92c56.32,0,112.82.39,169.31-.26,14.93-.17,15.12,11.29,18.68,19.78Q651.84,404.59,726.48,584c1.26,3,1.08,6.8,8.23,8.64,17.59-41.24,35.54-83.15,53.38-125.12C822,387.7,856.29,308.09,889.34,228c7.18-17.42,16.37-23.25,35.45-22.53,46.39,1.75,92.9.57,142.8.57-19.72,46.74-38.39,91.59-57.52,136.22-64,149.19-128.39,298.19-191.76,447.63-6.42,15.13-14.08,19.8-29.9,19.41-43.16-1.09-86.38-.77-129.57-.12-11.33.16-18.42-2.55-23.07-13.49Q512,504,387.85,212.45C387.32,211.19,388.17,209.34,388.62,205.92Z" transform="translate(-274 -10.74)"/><path class="cls-4" d="M455.42,975.18H417v29.47H460v15.09H398.41V919.29h59.3v15.1H417v25.82h38.39Z" transform="translate(-274 -10.74)"/><path class="cls-4" d="M475.17,1002.87a41.15,41.15,0,0,0,18.77,5.29c8.19,0,11.84-3.38,11.84-8.14,0-4.92-3-7.41-12.08-10.58-14.4-4.86-20.4-12.59-20.34-21.19,0-12.76,10.76-22.7,27.93-22.7,8.1,0,15.19,2,19.51,4.33l-3.69,12.88a33.74,33.74,0,0,0-15.56-4.17c-6.62,0-10.3,3.22-10.3,7.68s3.54,6.82,12.84,10.16c13.39,4.67,19.57,11.41,19.63,22.1,0,13.23-10.45,22.78-29.88,22.78-8.9,0-17-2.1-22.41-5.09Z" transform="translate(-274 -10.74)"/><path class="cls-4" d="M560.37,926.41v20.78h17.7v13.67h-17.7v32c0,8.88,2.4,13.39,9.52,13.39a28.17,28.17,0,0,0,7.23-.8l.37,14a42,42,0,0,1-13.54,1.89c-6.84,0-12.53-2.3-16-6-4-4.17-5.82-10.84-5.82-20.35V960.86h-10.5V947.19h10.5V930.75Z" transform="translate(-274 -10.74)"/><path class="cls-4" d="M592.12,970.52c0-9.72-.21-16.87-.61-23.33h16.12l.69,13.79h.52c3.62-10.22,12.2-15.43,20.14-15.43a17.92,17.92,0,0,1,4.37.4v17.27a26.33,26.33,0,0,0-5.46-.51c-8.86,0-15,5.56-16.68,13.87a30.34,30.34,0,0,0-.47,5.53v37.63H592.12Z" transform="translate(-274 -10.74)"/><path class="cls-4" d="M686,1019.74l-1.28-8.08h-.44c-4.46,5.72-12.16,9.72-21.69,9.72-14.93,0-23.19-10.51-23.19-21.58,0-18.31,16.54-27.58,43.64-27.47v-1.2c0-4.77-1.91-12.7-14.94-12.65a39.63,39.63,0,0,0-19.78,5.41L644.6,952c5.56-3.33,15.09-6.44,26.67-6.44,23.6,0,30.34,14.67,30.34,30.59v26.12a107.43,107.43,0,0,0,1.14,17.48Zm-2.47-35.53c-13.12-.17-25.68,2.56-25.68,13.6,0,7.11,4.73,10.45,10.61,10.45a15.11,15.11,0,0,0,14.55-10,13.61,13.61,0,0,0,.52-4Z" transform="translate(-274 -10.74)"/><path class="cls-4" d="M741.73,926.41v20.78h17.71v13.67H741.73v32c0,8.88,2.4,13.39,9.52,13.39a28.17,28.17,0,0,0,7.23-.8l.37,14a42,42,0,0,1-13.54,1.89c-6.84,0-12.53-2.3-16-6-4-4.17-5.82-10.84-5.82-20.35V960.86H713V947.19h10.5V930.75Z" transform="translate(-274 -10.74)"/><path class="cls-4" d="M785.68,988.54c.5,13.15,10.82,18.9,22.73,18.9a56.82,56.82,0,0,0,20.3-3.36l2.76,12.62c-6.3,2.64-15,4.61-25.72,4.61-23.89,0-37.88-14.56-37.88-36.79,0-20,12.32-39,36-39,23.91,0,31.7,19.39,31.7,35.29a37.44,37.44,0,0,1-.66,7.7ZM818,975.75c.08-6.72-2.88-17.68-15.34-17.68-11.45,0-16.22,10.26-17.05,17.68Z" transform="translate(-274 -10.74)"/><path class="cls-4" d="M917.81,947.19c-.36,4.88-.63,10.9-.63,20.83v41.16c0,15.22-3.13,26-10.88,32.89s-18.34,8.82-28.48,8.82c-9.35,0-19.29-2-25.61-5.74l4-14a44,44,0,0,0,21.47,5.6c12.09,0,21.15-6.3,21.15-21.92v-6.2h-.3c-4.19,6.34-11.68,10.65-21.44,10.65-18.23,0-31.22-14.93-31.22-35.4,0-23.94,15.7-38.33,33.28-38.33,11.3,0,17.88,5.29,21.41,11.29h.3l.67-9.65ZM898.58,976.3a18.42,18.42,0,0,0-.58-4.95c-2-6.73-7.28-11.79-15.21-11.79-10.3,0-18.07,8.9-18.07,23.71,0,12.33,6.32,22.34,18,22.34a15.66,15.66,0,0,0,15-11.12,23.27,23.27,0,0,0,.83-6.44Z" transform="translate(-274 -10.74)"/><path class="cls-4" d="M956.28,926.88c0,5.48-4,9.9-10.61,9.9-6.16,0-10.21-4.42-10.19-9.9S939.65,917,945.9,917,956.21,921.24,956.28,926.88Zm-19.71,92.86V947.19h18.62v72.55Z" transform="translate(-274 -10.74)"/><path class="cls-4" d="M1016.65,1019.74l-1.28-8.08h-.44c-4.46,5.72-12.16,9.72-21.69,9.72-14.93,0-23.19-10.51-23.19-21.58,0-18.31,16.54-27.58,43.64-27.47v-1.2c0-4.77-1.91-12.7-14.94-12.65A39.63,39.63,0,0,0,979,963.89L975.28,952c5.56-3.33,15.09-6.44,26.67-6.44,23.6,0,30.34,14.67,30.34,30.59v26.12a107.43,107.43,0,0,0,1.14,17.48Zm-2.47-35.53c-13.12-.17-25.68,2.56-25.68,13.6,0,7.11,4.73,10.45,10.61,10.45a15.13,15.13,0,0,0,14.56-10,13.94,13.94,0,0,0,.51-4Z" transform="translate(-274 -10.74)"/><path class="cls-4" d="M1084,920.67a193.05,193.05,0,0,1,29.68-2.16c19.11,0,32.13,3.92,41.51,11.61,9.92,7.94,16,19.91,16,37,0,18-6.23,31.32-15.86,40-10.22,9.06-26.33,13.68-46.13,13.68a206.53,206.53,0,0,1-25.16-1.32Zm18.59,85.08a72.13,72.13,0,0,0,10.38.49c24.16.12,38.54-13.1,38.54-38.53.09-22.15-12.84-34.92-36.22-34.92a64,64,0,0,0-12.7,1.07Z" transform="translate(-274 -10.74)"/><path class="cls-4" d="M1206.7,926.88c0,5.48-4,9.9-10.6,9.9-6.17,0-10.22-4.42-10.19-9.9s4.16-9.91,10.41-9.91S1206.64,921.24,1206.7,926.88ZM1187,1019.74V947.19h18.62v72.55Z" transform="translate(-274 -10.74)"/><path class="cls-4" d="M1292.92,947.19c-.36,4.88-.63,10.9-.63,20.83v41.16c0,15.22-3.13,26-10.88,32.89s-18.34,8.82-28.48,8.82c-9.35,0-19.29-2-25.61-5.74l4-14a44,44,0,0,0,21.47,5.6c12.09,0,21.15-6.3,21.15-21.92v-6.2h-.3c-4.19,6.34-11.68,10.65-21.44,10.65-18.23,0-31.22-14.93-31.22-35.4,0-23.94,15.7-38.33,33.28-38.33,11.3,0,17.88,5.29,21.41,11.29h.3l.67-9.65Zm-19.23,29.11a18.42,18.42,0,0,0-.58-4.95c-2-6.73-7.28-11.79-15.21-11.79-10.3,0-18.07,8.9-18.07,23.71,0,12.33,6.32,22.34,18,22.34a15.66,15.66,0,0,0,15-11.12,23.27,23.27,0,0,0,.83-6.44Z" transform="translate(-274 -10.74)"/><path class="cls-4" d="M1331.39,926.88c0,5.48-4,9.9-10.61,9.9-6.17,0-10.21-4.42-10.19-9.9S1314.75,917,1321,917,1331.32,921.24,1331.39,926.88Zm-19.71,92.86V947.19h18.62v72.55Z" transform="translate(-274 -10.74)"/><path class="cls-4" d="M1371.66,926.41v20.78h17.7v13.67h-17.7v32c0,8.88,2.39,13.39,9.51,13.39a28.17,28.17,0,0,0,7.23-.8l.37,14a42,42,0,0,1-13.54,1.89c-6.84,0-12.53-2.3-16-6-4-4.17-5.82-10.84-5.82-20.35V960.86h-10.5V947.19h10.5V930.75Z" transform="translate(-274 -10.74)"/><path class="cls-4" d="M1444.81,1019.74l-1.28-8.08h-.45c-4.45,5.72-12.15,9.72-21.68,9.72-14.93,0-23.2-10.51-23.2-21.58,0-18.31,16.55-27.58,43.65-27.47v-1.2c0-4.77-1.92-12.7-14.94-12.65a39.63,39.63,0,0,0-19.78,5.41l-3.69-11.9c5.56-3.33,15.09-6.44,26.67-6.44,23.6,0,30.33,14.67,30.33,30.59v26.12a107.31,107.31,0,0,0,1.15,17.48Zm-2.47-35.53c-13.13-.17-25.68,2.56-25.68,13.6,0,7.11,4.72,10.45,10.6,10.45a15.11,15.11,0,0,0,14.56-10,13.61,13.61,0,0,0,.52-4Z" transform="translate(-274 -10.74)"/><path class="cls-4" d="M1480.19,913.93h18.62v105.81h-18.62Z" transform="translate(-274 -10.74)"/></svg>