<svg id="Capa_1" data-name="Capa 1" xmlns="http://www.w3.org/2000/svg" viewBox="0 0 1849.14 498.62"><defs><style>.cls-1,.cls-4{fill:none;stroke-miterlimit:10;}.cls-1{stroke:#000;stroke-width:20px;}.cls-2{fill:#898445;}.cls-3{fill:#0b5c29;}.cls-4{stroke:#0b5c29;stroke-width:10px;}</style></defs><title>logo-amazone-lab</title><line class="cls-1" x1="547.94" x2="547.94" y2="498.62"/><path class="cls-2" d="M414.52,606.37c-37.08,73-94.06,130.47-175.95,130.47A148.27,148.27,0,0,1,90.3,588.57c0-81.88,59.31-144.31,130.48-179.89,16.09-8.05,199.26-66.55,245.14-59.31C477.78,428.44,421.64,592.34,414.52,606.37Z" transform="translate(-23.54 -285.56)"/><path class="cls-3" d="M455.11,304.55c-34.73,2.74-69.48,5.85-104,10.57-65.18,8.93-129.49,21.82-189.37,50.67C91.43,399.66,42.1,451,27.8,530.35,17.42,588,25,642.83,61.69,689.93c56,71.78,131.89,86.45,216.41,68.89a159.52,159.52,0,0,0,80.26-43h0c52.61-40.2,78.9-96.45,96.44-158h0c1.7-3.6,3.89-7,5-10.82C479,482.9,489.77,417.19,498.3,351,503,314.9,491.35,301.7,455.11,304.55ZM308.74,437.79c-.26-1.49-.35-3-.52-4.52,0-19.84-1.23-37.77,0-56.22.43-6.48-1.25-19.8,8.08-20.22.57-3.92,16.78-3.33,22.3-4.87,8.8-2.46,17.91-3.2,26.79-4,19.1-1.65,48.36-5.44,68.15-3.28-8.09,8.08-27.13,24.36-27.51,25.3-26.83,25.18-53.57,50.45-80.57,75.44-4.18,3.86-7.89,12.05-14.1,9.13C305.4,451.78,309.73,443.53,308.74,437.79Zm-121.8-40.53c2.1-5.34,18.49-11.37,23.94-13.15,17.23-5.61,34.12-12.23,51.74-16.66,14.46-3.63,15.49-3.11,18.24,12.39,1.54,2.48.92,66.53-.21,95.63-.73,18.81-.73,14.77-10.16,24-22.6,22.22-45.94,43.68-69.05,65.37-3.12,2.93-6.36,7.79-11.4,5.7-5.25-2.17-3.41-7.85-3.43-12.11C186.44,518.7,181.76,398.44,186.94,397.26ZM99.62,662.12h0c-.09-1.48-13-11.41-16.66-18.52-17-32.87-21.52-67.45-15.49-103.88,8.23-49.65,33-88.82,73.47-118.21,10.49-7.63,19.19-17.28,21.75-4,0,12.13-7.93,109.79-5.69,153.31,1.72,33.2-12.23,54.06-36.8,71.74C113.77,647.13,101.36,661.5,99.62,662.12Zm279-11.7c-28.46,40.06-77.29,71-128.44,76.89-1,.39-2.07.74-3.09,1.16s-2.12,1-3.2,1.44c-3.19-1.06-6.94-.37-10.36-.73-32.53-.48-63.22-8-91.94-23.45-7.06-3.79-21-20-23.42-21.44.56-1.9,30-24.94,40.45-35.78,11.89-12.34,25-18,42.74-17.51,55.88,1.67,111.81,1.63,167.72,2.5,5.17.08,12.25-2.53,15,3.6C386.34,641.94,381.44,646.5,378.66,650.42Zm30.6-55.8c-2.89,7.31-8.71,8.87-15.87,8.76-55.47-.86-110.95-1.56-166.42-2.39-3.39,0-7.76.86-9.49-3-2.24-4.92,2.65-7,5.36-9.61,18.85-18.19,36-38.34,56.39-54.71,29-23.27,20.9-23.27,47.36-21.34,26.1,2.12,41,1.35,61.54,2.46,15.56.85,31.18.67,46.77,1C430.63,543.46,419.46,568.88,409.26,594.62ZM447.6,466.93c-1.78,12.82-7.74,18.07-21.07,17.61-24.65-.85-49.36-.2-74-.38-4.28,0-9.8,1.17-11.64-4.47-1.55-4.79,3.07-7,5.82-9.7,34.61-33.63,56.26-55.32,90.91-88.9,8.09-8.09,16.17-16.17,28.3-24.26C461.3,387.16,451.81,436.56,447.6,466.93Z" transform="translate(-23.54 -285.56)"/><path d="M684.38,437,666,492.73H627.4l68-192.23h47.78l70,192.23H772.85L753.06,437Zm62-27.44L728.87,361.1c-4.16-11.69-7.54-23.21-10.72-33.6h-.57c-3,10.51-6,22.15-9.74,33.4l-17,48.65Z" transform="translate(-23.54 -285.56)"/><path d="M839,395.9c0-16.16-.44-30.08-1.14-42H869l1.63,21.66h.89c6.74-10.78,19.86-25.08,46.26-25.08,19.73,0,35.13,11.38,41.45,27.48h.57a60.81,60.81,0,0,1,18-18.3c8.68-5.95,18.14-9.18,31.2-9.18,23.22,0,50.19,15.29,50.19,63.24v79h-35.56V418.37c0-25.26-10-38.4-27.76-38.4-13.43,0-23.07,9.31-27,19.22a38.19,38.19,0,0,0-2,11.95v81.59H931.31V415.29c0-21.94-9.84-35.32-26.77-35.32-15.14,0-24.5,11.83-28.06,20.78a33.55,33.55,0,0,0-1.91,11.79v80.19H839Z" transform="translate(-23.54 -285.56)"/><path d="M1184.15,492.73l-2.6-15.91h-.9c-8.91,11-24.85,19.34-44.76,19.34-30.92,0-46.72-21.27-46.72-41.39,0-34.82,31.57-53.44,89.29-53.08v-1.83c0-7.35-2.93-24.19-30.67-24.07-14.83,0-31,4.88-41.15,11.24l-7.32-23.45c11.7-7.06,30.81-13.12,54.31-13.12,47.47,0,61.37,29.28,61.37,60.05v48.17c0,13.23.73,25.69,2.28,34.05Zm-4.72-67.49c-29.08-.49-53.51,5.37-53.51,25.51,0,12.9,9.1,19.55,21.67,19.55,16.13,0,27.15-10.33,30.78-20.32a26.07,26.07,0,0,0,1.06-7.82Z" transform="translate(-23.54 -285.56)"/><path d="M1240.61,472l56.86-64.75c8.14-8.95,14.33-15.23,23-23.86v-.57H1246V353.88h120.57l-.13,21.71-55.23,63.29c-7.7,8.51-14.78,16.45-23.24,24.35v.57h80.59v28.93h-127.9Z" transform="translate(-23.54 -285.56)"/><path d="M1537.13,421.6c0,49.39-38.14,74.56-78.45,74.56-42.41,0-76.13-27.84-76.13-71.59,0-44,31.79-74.11,78.94-74.11C1506.87,350.46,1537.13,380.74,1537.13,421.6Zm-116.58,1.95c0,27.84,16.46,46.43,39.31,46.43,21.79,0,39.27-16.77,39.27-47,0-22.38-11.71-46.3-38.78-46.3C1432.92,376.64,1420.55,399.4,1420.55,423.55Z" transform="translate(-23.54 -285.56)"/><path d="M1568,395.9c0-16.16-.45-30.08-1.14-42H1599l1.79,22.35h.9c6-10.66,22.14-25.77,48.06-25.77,24.56,0,54,14.79,54,62.62v79.65H1667v-75.1c0-21.94-8.77-37.66-29.92-37.66-16.12,0-26.74,11.22-30.74,21.8a30.8,30.8,0,0,0-1.64,10.64v80.32H1568Z" transform="translate(-23.54 -285.56)"/><path d="M1769.18,433.53c1.13,23.22,22.3,35.07,46.86,35.07,18.15,0,30.7-2.62,42.79-6.94l5.49,24.92c-13,5.37-30.48,9.58-53.11,9.58-48.18,0-77-28.49-77-70.89,0-35.78,23.66-74.81,73.33-74.81,50.44,0,65.13,40.68,65.13,68.84a62.83,62.83,0,0,1-1.39,14.23Zm68.82-25.4c.13-9.72-4.89-33.28-32.65-33.28-24.41,0-34.41,19.76-36.29,33.28Z" transform="translate(-23.54 -285.56)"/><path d="M1243.88,620.56a21.38,21.38,0,0,1-13.39,4.11q-10.35,0-16.57-9.64t-6.22-25.3q0-16.83,7-27.21t17.75-10.37a20.85,20.85,0,0,1,11.43,2.89v8.76a17.83,17.83,0,0,0-11.49-4.21q-8.36,0-13.55,8.07t-5.19,21.58q0,12.82,4.85,20.43t12.74,7.61a18.51,18.51,0,0,0,12.64-4.69Z" transform="translate(-23.54 -285.56)"/><path d="M1280.84,600.45H1256.4q.13,8.37,3.11,12.92a9.29,9.29,0,0,0,8.18,4.55q5.85,0,10.75-5.58v7.54q-4.56,4.8-12.07,4.79-7.33,0-11.53-6.82t-4.19-19.21q0-11.7,4.58-19.06t11.38-7.37q6.8,0,10.52,6.37t3.71,17.66Zm-5.68-6.8q0-6.95-2.31-10.82a7.06,7.06,0,0,0-6.34-3.86q-3.93,0-6.67,4.06a22.86,22.86,0,0,0-3.38,10.62Z" transform="translate(-23.54 -285.56)"/><path d="M1318,623.5h-5.55V594.92q0-16-8-15.95c-2.77,0-5.07,1.51-6.88,4.52a21.83,21.83,0,0,0-2.72,11.43V623.5h-5.55V573.39h5.55v8.32h.13q3.93-9.5,11.37-9.5,5.67,0,8.69,5.31t3,15.34Z" transform="translate(-23.54 -285.56)"/><path d="M1344.49,623a8.08,8.08,0,0,1-5.18,1.57q-9.09,0-9.09-14.69V580.24h-6v-6.85h6V561.15l5.54-2.59v14.83h8.73v6.85h-8.73v28.24c0,3.36.4,5.75,1.19,7.19a4.11,4.11,0,0,0,3.92,2.15,4.75,4.75,0,0,0,3.62-1.66Z" transform="translate(-23.54 -285.56)"/><path d="M1370,581.51a5.34,5.34,0,0,0-4.19-1.61q-3.55,0-5.94,4.84T1357.44,598V623.5h-5.55V573.39h5.55v10.32h.14a19.5,19.5,0,0,1,3.61-8.24,7,7,0,0,1,5.45-3,6.59,6.59,0,0,1,3.31.68Z" transform="translate(-23.54 -285.56)"/><path d="M1389.53,624.67q-7.68,0-12.26-7T1372.69,599q0-12.63,4.77-19.72t12.88-7.1q7.74,0,12.09,6.9t4.35,19.14q0,12-4.69,19.21T1389.53,624.67Zm.41-45.7q-5.34,0-8.46,5.26t-3.11,14.51c0,5.93,1.05,10.62,3.15,14s4.9,5.14,8.42,5.14,6.34-1.68,8.27-5,2.89-8.14,2.89-14.34-1-11.09-2.89-14.48S1393.52,579,1389.94,579Z" transform="translate(-23.54 -285.56)"/><path d="M1483.13,623.5h-5.54V615h-.14q-3.85,9.69-11.9,9.69-6.52,0-10.43-6.73t-3.91-18.32q0-12.43,4.33-19.92t11.53-7.49q7.14,0,10.38,8.13h.14v-31h5.54Zm-5.54-22.66v-7.39a18.37,18.37,0,0,0-2.77-10.28q-2.77-4.2-7-4.2-5.07,0-8,5.38t-2.91,14.88q0,8.65,2.79,13.67t7.49,5q4.63,0,7.53-4.84T1477.59,600.84Z" transform="translate(-23.54 -285.56)"/><path d="M1522.19,600.45h-24.45q.13,8.37,3.11,12.92a9.32,9.32,0,0,0,8.19,4.55q5.85,0,10.75-5.58v7.54q-4.56,4.8-12.07,4.79-7.34,0-11.53-6.82t-4.2-19.21q0-11.7,4.59-19.06t11.38-7.37q6.8,0,10.51,6.37t3.72,17.66Zm-5.68-6.8q0-6.95-2.31-10.82a7.07,7.07,0,0,0-6.35-3.86q-3.91,0-6.66,4.06a22.86,22.86,0,0,0-3.38,10.62Z" transform="translate(-23.54 -285.56)"/><path d="M1556,623.5h-5.69V553.32H1556Z" transform="translate(-23.54 -285.56)"/><path d="M1596.72,623.5h-5.54V594.92q0-16-8-15.95c-2.77,0-5.07,1.51-6.88,4.52a21.83,21.83,0,0,0-2.72,11.43V623.5H1568V573.39h5.55v8.32h.13q3.93-9.5,11.36-9.5,5.68,0,8.69,5.31t3,15.34Z" transform="translate(-23.54 -285.56)"/><path d="M1635.92,623.5h-5.55V594.92q0-16-8-15.95-4.15,0-6.88,4.52a21.93,21.93,0,0,0-2.72,11.43V623.5h-5.55V573.39h5.55v8.32h.13q3.93-9.5,11.37-9.5,5.67,0,8.69,5.31t3,15.34Z" transform="translate(-23.54 -285.56)"/><path d="M1660.84,624.67q-7.68,0-12.26-7T1644,599q0-12.63,4.77-19.72t12.88-7.1q7.74,0,12.09,6.9t4.35,19.14q0,12-4.69,19.21T1660.84,624.67Zm.41-45.7c-3.57,0-6.38,1.75-8.46,5.26s-3.11,8.34-3.11,14.51c0,5.93,1,10.62,3.15,14s4.9,5.14,8.42,5.14,6.34-1.68,8.26-5,2.9-8.14,2.9-14.34-1-11.09-2.9-14.48S1664.83,579,1661.25,579Z" transform="translate(-23.54 -285.56)"/><path d="M1714.17,573.39l-13.8,50.11h-5.44l-13.12-50.11h6.08l8.8,36.41a44.32,44.32,0,0,1,1.21,7h.14a44.88,44.88,0,0,1,1.08-6.8l9.2-36.6Z" transform="translate(-23.54 -285.56)"/><path d="M1743.66,623.5h-5.55v-7.83H1738q-3.63,9-10.66,9a9.51,9.51,0,0,1-8.1-4q-2.92-4-2.92-10.52,0-14,11.43-16.35l10.38-2.1q0-12.78-7.13-12.77-6.27,0-11.3,6.16v-8.22a16.88,16.88,0,0,1,11.77-4.7q12.21,0,12.21,18.7Zm-5.55-25.35-8.35,1.66a11.18,11.18,0,0,0-5.82,2.77q-2,2-2,7a9.46,9.46,0,0,0,1.81,6,5.8,5.8,0,0,0,4.82,2.32q4.13,0,6.81-4.18a19.28,19.28,0,0,0,2.69-10.6Z" transform="translate(-23.54 -285.56)"/><path d="M1777.71,621.2a14,14,0,0,1-9.47,3.47q-7.41,0-12-7t-4.55-18.08q0-12.39,4.9-19.9t13.09-7.51a13.67,13.67,0,0,1,8,2.45v8.22q-3.85-3.92-8.25-3.91-5.31,0-8.71,5.5t-3.4,14.46q0,8.8,3.2,13.9t8.57,5.09q4.53,0,8.52-4.36Z" transform="translate(-23.54 -285.56)"/><path d="M1788.94,560.66a3.07,3.07,0,0,1-2.54-1.46,6.24,6.24,0,0,1-1.05-3.72,6.38,6.38,0,0,1,1.05-3.75,3.05,3.05,0,0,1,2.54-1.49,3.12,3.12,0,0,1,2.58,1.49,6.32,6.32,0,0,1,1.07,3.75,6.24,6.24,0,0,1-1.07,3.67A3.09,3.09,0,0,1,1788.94,560.66Zm2.7,62.84h-5.54V573.39h5.54Z" transform="translate(-23.54 -285.56)"/><path d="M1817.34,624.67q-7.68,0-12.26-7T1800.5,599q0-12.63,4.77-19.72t12.88-7.1q7.75,0,12.09,6.9t4.35,19.14q0,12-4.68,19.21T1817.34,624.67Zm.41-45.7q-5.34,0-8.46,5.26t-3.11,14.51c0,5.93,1,10.62,3.15,14s4.9,5.14,8.42,5.14,6.34-1.68,8.27-5,2.89-8.14,2.89-14.34-1-11.09-2.89-14.48S1821.33,579,1817.75,579Zm8.11-31.13-8.86,16h-4.29l7.54-16Z" transform="translate(-23.54 -285.56)"/><path d="M1872.19,623.5h-5.54V594.92q0-16-8.05-15.95c-2.77,0-5.07,1.51-6.88,4.52a21.83,21.83,0,0,0-2.73,11.43V623.5h-5.54V573.39H1849v8.32h.14q3.91-9.5,11.36-9.5,5.68,0,8.69,5.31t3,15.34Z" transform="translate(-23.54 -285.56)"/><path d="M1236.58,743.77h-25.7V673.59h24.62V681h-18.94v23.34h17.52v7.39h-17.52v24.57h20Z" transform="translate(-23.54 -285.56)"/><path d="M1294.34,743.77h-5.55V715q0-8.31-1.77-12a6.14,6.14,0,0,0-6-3.72q-3.55,0-6,4.7a23.88,23.88,0,0,0-2.48,11.26v28.58H1267V714q0-14.78-7.88-14.78-3.64,0-6,4.43t-2.37,11.53v28.58h-5.54V693.66h5.54v7.92h.14q3.69-9.11,10.75-9.1a8.16,8.16,0,0,1,6.19,2.86,15.56,15.56,0,0,1,3.62,7.52q3.85-10.38,11.5-10.38,11.43,0,11.43,20.41Z" transform="translate(-23.54 -285.56)"/><path d="M1310.5,736.52h-.13v30.3h-5.55V693.66h5.55v8.8h.13q4.1-10,12-10,6.71,0,10.45,6.73t3.76,18q0,12.59-4.23,20.14t-11.57,7.56Q1314.16,744.94,1310.5,736.52Zm-.13-20.21v7a19.1,19.1,0,0,0,2.79,10.55c1.86,2.88,4.22,4.33,7.08,4.33q5,0,7.9-5.58T1331,717.1q0-8.37-2.67-13.12c-1.78-3.16-4.19-4.75-7.23-4.75q-4.85,0-7.78,4.87A23.29,23.29,0,0,0,1310.37,716.31Z" transform="translate(-23.54 -285.56)"/><path d="M1363.59,701.78a5.33,5.33,0,0,0-4.19-1.62q-3.56,0-5.93,4.85t-2.39,13.21v25.55h-5.54V693.66h5.54V704h.14a19.62,19.62,0,0,1,3.61-8.24,7,7,0,0,1,5.45-3,6.48,6.48,0,0,1,3.31.69Z" transform="translate(-23.54 -285.56)"/><path d="M1396.53,720.72h-24.45q.14,8.37,3.11,12.92a9.31,9.31,0,0,0,8.19,4.55q5.85,0,10.75-5.58v7.54q-4.56,4.79-12.07,4.79-7.33,0-11.53-6.83t-4.2-19.2q0-11.7,4.59-19.06t11.37-7.37q6.81,0,10.52,6.36t3.72,17.67Zm-5.68-6.8q0-7-2.32-10.82a7,7,0,0,0-6.34-3.87q-3.92,0-6.66,4.07a22.78,22.78,0,0,0-3.38,10.62Z" transform="translate(-23.54 -285.56)"/><path d="M1402.82,742v-8.62q4.53,4.85,10,4.85,7.31,0,7.3-7.05a7.7,7.7,0,0,0-2.32-5.87,12.69,12.69,0,0,0-2.5-1.94c-1-.57-2-1.16-3.09-1.78a34.52,34.52,0,0,1-4-2.67,13.65,13.65,0,0,1-2.91-3,12.49,12.49,0,0,1-1.76-3.84,19,19,0,0,1-.59-5,16.39,16.39,0,0,1,1.11-6.24,13.57,13.57,0,0,1,3-4.55,12.31,12.31,0,0,1,4.24-2.77,13.43,13.43,0,0,1,4.92-.93,14.7,14.7,0,0,1,8,2.25v8.13a12.4,12.4,0,0,0-8.79-3.63,7.4,7.4,0,0,0-2.81.52,6.12,6.12,0,0,0-2.14,1.44,6.43,6.43,0,0,0-1.39,2.23,8,8,0,0,0-.49,2.86,9.41,9.41,0,0,0,.49,3.28,7.2,7.2,0,0,0,1.44,2.35,10.86,10.86,0,0,0,2.3,1.86c.9.55,1.92,1.16,3.07,1.81a37.31,37.31,0,0,1,4.13,2.62,15.18,15.18,0,0,1,3.11,3,12.53,12.53,0,0,1,2,3.89,17.61,17.61,0,0,1,.69,5.24,17,17,0,0,1-1.13,6.46,13.24,13.24,0,0,1-3,4.55,12.08,12.08,0,0,1-4.36,2.69,15.22,15.22,0,0,1-5.17.88A14.87,14.87,0,0,1,1402.82,742Z" transform="translate(-23.54 -285.56)"/><path d="M1459.09,743.77h-5.54v-7.83h-.14q-3.62,9-10.65,9a9.51,9.51,0,0,1-8.1-4q-2.92-4-2.93-10.52,0-14.06,11.43-16.35l10.39-2.1q0-12.78-7.14-12.78-6.26,0-11.29,6.17v-8.22a16.85,16.85,0,0,1,11.76-4.7q12.21,0,12.21,18.69Zm-5.54-25.35-8.36,1.66a11,11,0,0,0-5.81,2.77q-2,2-2,7a9.49,9.49,0,0,0,1.8,6,5.82,5.82,0,0,0,4.82,2.33q4.13,0,6.82-4.19a19.27,19.27,0,0,0,2.69-10.59Z" transform="translate(-23.54 -285.56)"/><path d="M1487.6,701.78a5.35,5.35,0,0,0-4.19-1.62q-3.56,0-5.94,4.85t-2.38,13.21v25.55h-5.55V693.66h5.55V704h.13a19.62,19.62,0,0,1,3.62-8.24,7,7,0,0,1,5.44-3,6.52,6.52,0,0,1,3.32.69Z" transform="translate(-23.54 -285.56)"/><path d="M1496.46,680.93a3.07,3.07,0,0,1-2.54-1.47,6.22,6.22,0,0,1-1.05-3.72,6.35,6.35,0,0,1,1.05-3.74,3.07,3.07,0,0,1,2.54-1.49A3.12,3.12,0,0,1,1499,672a6.29,6.29,0,0,1,1.07,3.74,6.21,6.21,0,0,1-1.07,3.67A3.08,3.08,0,0,1,1496.46,680.93Zm2.7,62.84h-5.54V693.66h5.54Z" transform="translate(-23.54 -285.56)"/><path d="M1535.18,743.77h-5.55v-7.83h-.13q-3.63,9-10.66,9a9.5,9.5,0,0,1-8.09-4q-2.93-4-2.93-10.52,0-14.06,11.43-16.35l10.38-2.1q0-12.78-7.13-12.78-6.26,0-11.3,6.17v-8.22a16.89,16.89,0,0,1,11.77-4.7q12.21,0,12.21,18.69Zm-5.55-25.35-8.35,1.66a11,11,0,0,0-5.82,2.77c-1.3,1.32-2,3.66-2,7a9.43,9.43,0,0,0,1.81,6,5.81,5.81,0,0,0,4.82,2.33q4.13,0,6.81-4.19a19.18,19.18,0,0,0,2.69-10.59Z" transform="translate(-23.54 -285.56)"/><path d="M1551.17,743.77h-5.54V669.58h5.54Z" transform="translate(-23.54 -285.56)"/><path d="M1608.93,693.66,1593,751.79q-4.26,15.57-12,15.56a9.05,9.05,0,0,1-3.61-.63v-7.2a7.47,7.47,0,0,0,3.28.89q4.18,0,6.28-7.25l2.78-9.49-13.53-50h6.16l9.36,38.56c.12.49.35,1.76.71,3.81h.21c.11-.78.33-2,.67-3.71l9.84-38.66Z" transform="translate(-23.54 -285.56)"/><path d="M1632.33,740.93v-9.69a13.88,13.88,0,0,0,2.76,2.64,18.9,18.9,0,0,0,3.38,2,19.7,19.7,0,0,0,3.57,1.25,13.6,13.6,0,0,0,3.31.44q5.25,0,7.83-2.81t2.59-8.1a13.06,13.06,0,0,0-.86-4.94,13.63,13.63,0,0,0-2.39-3.85,24.72,24.72,0,0,0-3.6-3.32q-2.09-1.59-4.48-3.36c-1.69-1.23-3.27-2.49-4.73-3.76a24.11,24.11,0,0,1-3.83-4.21,19,19,0,0,1-2.55-5.21,22.52,22.52,0,0,1-.93-6.83,21.86,21.86,0,0,1,1.45-8.34,17,17,0,0,1,3.83-5.85,15.15,15.15,0,0,1,5.39-3.43,17.57,17.57,0,0,1,6.17-1.12q7.17,0,10.45,2.49v9.25a14.9,14.9,0,0,0-11-4.31,12.64,12.64,0,0,0-3.72.57,8.94,8.94,0,0,0-3.32,1.83,9.38,9.38,0,0,0-2.36,3.28,11.77,11.77,0,0,0-.92,4.9,13.69,13.69,0,0,0,.7,4.64,11.5,11.5,0,0,0,2,3.58,21.65,21.65,0,0,0,3.3,3.13c1.29,1,2.79,2.12,4.48,3.33s3.38,2.54,4.94,3.91a26.27,26.27,0,0,1,4.09,4.55,21.92,21.92,0,0,1,2.79,5.53,21.53,21.53,0,0,1,1,6.95,24.4,24.4,0,0,1-1.4,8.79,15.86,15.86,0,0,1-3.79,5.84,14.32,14.32,0,0,1-5.5,3.26,21.18,21.18,0,0,1-6.56,1,18.65,18.65,0,0,1-2.84-.27,28.77,28.77,0,0,1-3.45-.78,22.06,22.06,0,0,1-3.33-1.27A9.45,9.45,0,0,1,1632.33,740.93Z" transform="translate(-23.54 -285.56)"/><path d="M1685.12,744.94q-7.68,0-12.26-7t-4.58-18.62q0-12.63,4.77-19.72t12.88-7.1q7.74,0,12.09,6.9t4.35,19.13q0,12-4.69,19.21T1685.12,744.94Zm.41-45.71c-3.57,0-6.38,1.76-8.46,5.27S1674,712.84,1674,719q0,8.91,3.15,14t8.42,5.14q5.37,0,8.26-5t2.9-14.34c0-6.27-1-11.09-2.9-14.49S1689.11,699.23,1685.53,699.23Z" transform="translate(-23.54 -285.56)"/><path d="M1734.83,741.47a14,14,0,0,1-9.47,3.47q-7.41,0-11.95-7t-4.55-18.08q0-12.39,4.9-19.9t13.09-7.51a13.67,13.67,0,0,1,8.05,2.45v8.22q-3.86-3.92-8.25-3.92-5.31,0-8.71,5.51t-3.4,14.46q0,8.81,3.2,13.9t8.57,5.09q4.53,0,8.52-4.36Z" transform="translate(-23.54 -285.56)"/><path d="M1746.06,680.93a3.07,3.07,0,0,1-2.54-1.47,6.22,6.22,0,0,1-1-3.72,6.35,6.35,0,0,1,1-3.74,3.07,3.07,0,0,1,2.54-1.49,3.12,3.12,0,0,1,2.58,1.49,6.29,6.29,0,0,1,1.07,3.74,6.21,6.21,0,0,1-1.07,3.67A3.08,3.08,0,0,1,1746.06,680.93Zm2.7,62.84h-5.54V693.66h5.54Z" transform="translate(-23.54 -285.56)"/><path d="M1784.78,743.77h-5.55v-7.83h-.13q-3.63,9-10.66,9a9.51,9.51,0,0,1-8.1-4q-2.92-4-2.92-10.52,0-14.06,11.43-16.35l10.38-2.1q0-12.78-7.13-12.78-6.27,0-11.3,6.17v-8.22a16.89,16.89,0,0,1,11.77-4.7q12.21,0,12.21,18.69Zm-5.55-25.35-8.35,1.66a11,11,0,0,0-5.82,2.77q-2,2-2,7a9.43,9.43,0,0,0,1.81,6,5.81,5.81,0,0,0,4.82,2.33q4.13,0,6.81-4.19a19.27,19.27,0,0,0,2.69-10.59Z" transform="translate(-23.54 -285.56)"/><path d="M1800.77,743.77h-5.54V669.58h5.54Z" transform="translate(-23.54 -285.56)"/><path d="M656.1,552.19h36.7V713.75h88.28v30.68h-125Z" transform="translate(-23.54 -285.56)"/><path d="M893.64,744.43,891,728.52h-.9c-8.91,11-24.85,19.33-44.76,19.33-30.92,0-46.72-21.27-46.72-41.38,0-34.82,31.57-53.45,89.29-53.08v-1.84c0-7.34-2.93-24.19-30.68-24.07-14.82,0-31,4.89-41.14,11.25l-7.32-23.45c11.7-7.07,30.8-13.12,54.31-13.12,47.47,0,61.37,29.28,61.37,60.05v48.16c0,13.24.73,25.7,2.28,34.06Zm-4.72-67.5c-29.08-.49-53.51,5.38-53.51,25.51,0,12.91,9.1,19.56,21.67,19.56,16.13,0,27.15-10.33,30.78-20.32a26.1,26.1,0,0,0,1.06-7.83Z" transform="translate(-23.54 -285.56)"/><path d="M963.49,744.43c.69-9,1.14-24.23,1.14-39.41V540.21h36.7V626h.57c9.05-14.19,26.09-23.86,49.42-23.86,37,0,64.58,28.08,64.26,70.85,0,50.11-35.53,74.84-69.47,74.84-19.57,0-38-7-49.21-25.56h-.57l-1.5,22.14Zm37.84-60.16a40.88,40.88,0,0,0,.78,8.12c3.59,14.08,17.43,26.85,35.88,26.85,24.41,0,40.24-16.9,40.24-45,0-24-13.72-44.27-39.67-44.27a36.86,36.86,0,0,0-36.08,28.15,38,38,0,0,0-1.15,9.14Z" transform="translate(-23.54 -285.56)"/><line class="cls-4" x1="1150.51" y1="263.09" x2="1150.51" y2="496.06"/></svg>