<svg id="Capa_1" data-name="Capa 1" xmlns="http://www.w3.org/2000/svg" viewBox="0 0 1855 725.8"><defs><style>.cls-1{fill:#1b1918;}.cls-2{fill:#565757;}.cls-2,.cls-3,.cls-4{fill-rule:evenodd;}.cls-3{fill:#b1b3b4;}.cls-4{fill:#fff;}</style></defs><title>logo-oficial</title><rect class="cls-1" width="1855" height="725.8" rx="80.84"/><path class="cls-2" d="M283.58,787l227.09-465H641.82L417.63,787Zm0,0" transform="translate(-26.1 -191.56)"/><path class="cls-3" d="M525,787l227.08-465H883.2L659,787Zm0,0" transform="translate(-26.1 -191.56)"/><path class="cls-4" d="M328.07,487.35,244.89,321.94H113.74L258.15,623.46Zm0,0" transform="translate(-26.1 -191.56)"/><path class="cls-4" d="M700.86,426.62,641.79,322,579.26,451.71,637.2,557.12Zm0,0" transform="translate(-26.1 -191.56)"/><path class="cls-4" d="M1050.55,410.57c-5.33-5.31-13.33-9.11-24-11.51q13.76-4.67,20.81-14.31a36.13,36.13,0,0,0,7.05-21.84,38.63,38.63,0,0,0-9-25.22c-6-7.31-14.65-12.36-26.07-15.26q-11.23-2.9-29.9-2.87H922.73V324h5.75c5.83,0,10.19,1.76,13.14,5.27q3.28,3.93,3.29,19V453.38c0,9.08-.87,15-2.61,17.82-2.81,4.29-7.4,6.46-13.82,6.46h-5.75v4.41h72.86q26.08,0,38.75-5.11a43.21,43.21,0,0,0,27.26-39.41A36.68,36.68,0,0,0,1050.55,410.57Zm-83.71-80.31a74.18,74.18,0,0,1,20.51-2.6q21.12,0,32.17,10c7.35,6.7,11,14.74,11,24.22a33.7,33.7,0,0,1-4.4,16.92,27.09,27.09,0,0,1-12.79,11.51c-5.58,2.5-14,3.77-25,3.77-4.32,0-8.28-.12-11.89-.42a79.69,79.69,0,0,1-9.62-1.26Zm57.77,133.47q-10.86,9.74-31.59,9.76a109.62,109.62,0,0,1-26.18-3.23V403.71a66.86,66.86,0,0,1,8.09-.81c3.35-.17,7.36-.24,12.07-.24,10.85,0,20,1.66,27.35,5s12.71,7.93,16.06,13.77a35.52,35.52,0,0,1,5.06,18.18A31.11,31.11,0,0,1,1024.61,463.73Z" transform="translate(-26.1 -191.56)"/><path class="cls-4" d="M1160.29,360.42V357h41.85v3.38h-4.46a11.94,11.94,0,0,0-10.77,6.17c-1.23,1.91-1.82,6.32-1.82,13.27v50.67q0,18.81-3.55,29.15c-2.36,6.92-7,12.86-13.94,17.79s-16.31,7.43-28.22,7.43q-19.45,0-29.52-7.1a37.93,37.93,0,0,1-14.28-19.09q-2.83-8.2-2.81-30.77V379.09c0-7.65-1-12.69-3-15.09s-5.28-3.58-9.76-3.58h-4.46V357h51.36v3.38h-4.54c-4.92,0-8.43,1.64-10.51,4.88-1.48,2.19-2.19,6.83-2.19,13.79v54.48a129.07,129.07,0,0,0,1.25,16.68q1.3,9.39,4.62,14.66a26.08,26.08,0,0,0,9.6,8.67,32.15,32.15,0,0,0,15.39,3.4,41,41,0,0,0,20.89-5.35c6.13-3.56,10.33-8.14,12.57-13.66s3.39-15,3.39-28.26V379.09c0-7.78-.82-12.66-2.45-14.6q-3.42-4.07-10.16-4.07Z" transform="translate(-26.1 -191.56)"/><path class="cls-4" d="M1286.59,354.21V397.4h-3.23c-1.06-8.31-2.94-14.9-5.66-19.82A30.25,30.25,0,0,0,1266,365.9a31,31,0,0,0-15.63-4.35,20.77,20.77,0,0,0-15.13,5.86c-4,3.9-6,8.35-6,13.32a16.31,16.31,0,0,0,3.79,10.43q5.46,6.9,25.91,18.43,16.71,9.42,22.81,14.43a34.75,34.75,0,0,1,9.4,11.84,32.65,32.65,0,0,1,3.3,14.31c0,9.47-3.51,17.59-10.49,24.45s-16,10.28-27,10.28a52.9,52.9,0,0,1-9.75-.85,94.21,94.21,0,0,1-11.29-3.41c-5.68-1.94-9.31-2.91-10.84-2.91a4.46,4.46,0,0,0-3.47,1.39c-.84.93-1.46,2.85-1.89,5.78h-3.24V442.09h3.24c1.52,9,3.56,15.69,6.14,20.11a29.84,29.84,0,0,0,11.83,11.1,35.15,35.15,0,0,0,17.42,4.43c7.29,0,13.11-2.05,17.33-6.1a19.36,19.36,0,0,0,6.37-14.43,20.81,20.81,0,0,0-2.4-9.34,27.72,27.72,0,0,0-7.48-8.79q-3.4-2.77-18.74-11.72c-10.21-5.94-17.47-10.73-21.79-14.27a38.1,38.1,0,0,1-9.81-11.79,30.36,30.36,0,0,1-3.36-14.21,31.43,31.43,0,0,1,9.85-23.17c6.55-6.47,14.93-9.7,25.06-9.7q9.51,0,20.14,4.86c3.28,1.54,5.6,2.29,6.93,2.29A5.13,5.13,0,0,0,1281,360c1-1,1.74-2.87,2.35-5.75Z" transform="translate(-26.1 -191.56)"/><path class="cls-4" d="M1359.52,478.67v3.4h-51v-3.4h4.22c5,0,8.51-1.5,10.75-4.48q2.1-3,2.1-14.19V379.09c0-6.3-.4-10.49-1.15-12.5a8,8,0,0,0-3.61-4,16.05,16.05,0,0,0-8.09-2.21h-4.22V357h51v3.38h-4.27c-4.84,0-8.39,1.52-10.59,4.5-1.48,2-2.19,6.71-2.19,14.17V460q0,9.48,1.13,12.52a8.05,8.05,0,0,0,3.68,4,15.42,15.42,0,0,0,8,2.19Z" transform="translate(-26.1 -191.56)"/><path class="cls-4" d="M1361.45,357h32l73,93.88V378.73q0-11.57-2.48-14.43-3.29-3.89-10.39-3.88h-4.18V357h41.83v3.38h-4.24c-5.12,0-8.71,1.6-10.87,4.81-1.28,2-1.94,6.48-1.94,13.5V484.09h-3.18l-78.37-100.71v77c0,7.69.82,12.5,2.39,14.43,2.26,2.57,5.72,3.86,10.43,3.86h4.25v3.4h-41.85v-3.4H1372c5.16,0,8.79-1.6,10.94-4.81,1.29-2,1.95-6.46,1.95-13.48V373.45A55.73,55.73,0,0,0,1377,365a29.11,29.11,0,0,0-7.85-3.8,27.21,27.21,0,0,0-7.71-.82Z" transform="translate(-26.1 -191.56)"/><path class="cls-4" d="M1531.07,363.83v49.4h26.23c6.79,0,11.32-1.06,13.59-3.21,3-2.81,4.73-7.79,5.09-14.9h3.23v43.57H1576c-.81-6.09-1.65-10-2.46-11.76a11.18,11.18,0,0,0-5.18-5.05c-2.39-1.23-6.08-1.86-11-1.86h-26.23v41.25c0,5.52.25,8.89.7,10.08a5.62,5.62,0,0,0,2.45,2.85c1.16.73,3.42,1.08,6.67,1.08H1561q10,0,14.64-1.48a21.71,21.71,0,0,0,8.75-5.81q5.43-5.72,11.13-17.23h3.6l-10.27,31.31h-91.75v-3.4h4.22a16,16,0,0,0,8-2.14,7.53,7.53,0,0,0,3.82-4.43c.7-2,1-6,1-12.1V378.73c0-7.92-.74-12.8-2.27-14.63-2.14-2.44-5.63-3.68-10.57-3.68h-4.22V357h91.77l1.27,27.52h-3.42c-1.24-6.63-2.57-11.18-4.06-13.66a14.46,14.46,0,0,0-6.62-5.7c-2.34-.9-6.48-1.37-12.37-1.37Z" transform="translate(-26.1 -191.56)"/><path class="cls-4" d="M1685.68,354.21V397.4h-3.23c-1-8.31-2.93-14.9-5.66-19.82a30.25,30.25,0,0,0-11.67-11.68,31,31,0,0,0-15.63-4.35,20.72,20.72,0,0,0-15.11,5.86q-6,5.85-6,13.32a16.29,16.29,0,0,0,3.77,10.43c3.67,4.6,12.28,10.75,25.93,18.43q16.7,9.42,22.8,14.43a34.66,34.66,0,0,1,9.41,11.84,32.91,32.91,0,0,1,3.28,14.31c0,9.47-3.49,17.59-10.47,24.45s-16,10.28-27,10.28a53,53,0,0,1-9.76-.85,94.77,94.77,0,0,1-11.29-3.41c-5.68-1.94-9.31-2.91-10.84-2.91a4.5,4.5,0,0,0-3.47,1.39c-.83.93-1.46,2.85-1.88,5.78h-3.22V442.09h3.22c1.53,9,3.57,15.69,6.13,20.11a29.9,29.9,0,0,0,11.83,11.1,35.23,35.23,0,0,0,17.42,4.43c7.31,0,13.11-2.05,17.33-6.1A19.34,19.34,0,0,0,1678,457.2a20.68,20.68,0,0,0-2.4-9.34,28.06,28.06,0,0,0-7.5-8.79q-3.4-2.77-18.72-11.72c-10.21-5.94-17.49-10.73-21.79-14.27a38.32,38.32,0,0,1-9.83-11.79,30.35,30.35,0,0,1-3.35-14.21,31.53,31.53,0,0,1,9.84-23.17q9.85-9.71,25.06-9.7a48.66,48.66,0,0,1,20.14,4.86c3.31,1.54,5.6,2.29,6.95,2.29a5.16,5.16,0,0,0,3.74-1.4c1-1,1.73-2.87,2.34-5.75Z" transform="translate(-26.1 -191.56)"/><path class="cls-4" d="M1785.56,354.21V397.4h-3.22c-1-8.31-2.94-14.9-5.67-19.82A30.12,30.12,0,0,0,1765,365.9a31,31,0,0,0-15.62-4.35,20.74,20.74,0,0,0-15.11,5.86q-6,5.85-6,13.32a16.33,16.33,0,0,0,3.76,10.43c3.67,4.6,12.28,10.75,25.93,18.43q16.69,9.42,22.82,14.43a34.72,34.72,0,0,1,9.39,11.84,32.5,32.5,0,0,1,3.29,14.31c0,9.47-3.49,17.59-10.47,24.45s-16,10.28-27,10.28a52.9,52.9,0,0,1-9.75-.85,94.3,94.3,0,0,1-11.27-3.41c-5.7-1.94-9.33-2.91-10.86-2.91a4.5,4.5,0,0,0-3.47,1.39c-.84.93-1.46,2.85-1.88,5.78h-3.23V442.09h3.23c1.53,9,3.56,15.69,6.13,20.11a29.84,29.84,0,0,0,11.83,11.1,35.22,35.22,0,0,0,17.41,4.43c7.32,0,13.11-2.05,17.34-6.1a19.38,19.38,0,0,0,6.39-14.43,20.81,20.81,0,0,0-2.4-9.34,28.29,28.29,0,0,0-7.49-8.79c-2.27-1.85-8.54-5.74-18.73-11.72s-17.49-10.73-21.8-14.27a38.46,38.46,0,0,1-9.83-11.79,30.35,30.35,0,0,1-3.35-14.21,31.54,31.54,0,0,1,9.85-23.17q9.86-9.71,25.06-9.7,9.54,0,20.14,4.86c3.3,1.54,5.59,2.29,7,2.29A5.2,5.2,0,0,0,1780,360c1-1,1.74-2.87,2.33-5.75Z" transform="translate(-26.1 -191.56)"/><path class="cls-4" d="M1105.14,517.38v4a17.27,17.27,0,0,0-9,2.1c-2.27,1.38-4.48,4-6.55,7.77-1.38,2.54-3.59,8.68-6.6,18.33l-39.3,119.87h-4.2l-32.26-95.13-31.87,95.13h-3.81l-42-123.39c-3.13-9.28-5.12-14.73-6-16.42a13.84,13.84,0,0,0-5.68-6.21c-2.4-1.38-5.63-2.05-9.77-2.05v-4h52.27v4H958c-3.65,0-6.47.89-8.44,2.65a8.26,8.26,0,0,0-2.91,6.36q0,3.87,4.59,17.75l27.88,83.42,23.54-70.89-4.27-12.48-3.36-10a55.63,55.63,0,0,0-4.88-9.71,14.13,14.13,0,0,0-3.33-3.56,18.58,18.58,0,0,0-5.25-2.84,21,21,0,0,0-6.26-.67v-4h55v4h-3.78c-3.87,0-6.72.89-8.55,2.65a9.56,9.56,0,0,0-2.7,7.19c0,3.73,1.57,10.31,4.7,19.66l27.17,80.73L1074,549.76q4.57-13.68,4.59-19a8.23,8.23,0,0,0-1.51-4.74,8.37,8.37,0,0,0-3.79-3.12,29.83,29.83,0,0,0-10.34-1.52v-4Z" transform="translate(-26.1 -191.56)"/><path class="cls-4" d="M1213.35,659.19c-2.5-2.3-5.26-7.25-8.3-14.91l-37.89-95.19h-2.72l-38.32,94.19c-3.32,8.25-6.33,13.75-9.07,16.45q-2,2-8.82,3.28v3.11h34.36V663c-5.23-.4-8.66-1.26-10.22-2.56a5.9,5.9,0,0,1-2.39-4.6c0-2.19.94-5.53,2.74-10L1140,628h42.22l6.44,16.28q3.21,8,3.21,11.75a6,6,0,0,1-2.28,4.73c-1.54,1.31-4.46,2-8.8,2.28v3.11h43V663C1219.3,662.72,1215.85,661.46,1213.35,659.19Zm-70.79-37.43,18.85-46.18,18.36,46.18Z" transform="translate(-26.1 -191.56)"/><path class="cls-4" d="M1301.07,549.09v39.53h-3q-1.44-11.4-5.19-18.13a27.46,27.46,0,0,0-10.68-10.7,28.33,28.33,0,0,0-14.3-4,19,19,0,0,0-13.83,5.36c-3.64,3.58-5.49,7.64-5.49,12.19a15,15,0,0,0,3.47,9.55c3.34,4.21,11.22,9.84,23.71,16.87q15.29,8.63,20.89,13.21a31.7,31.7,0,0,1,8.6,10.84,29.92,29.92,0,0,1,3,13.09,30.27,30.27,0,0,1-9.6,22.38q-9.62,9.41-24.72,9.41a47.88,47.88,0,0,1-8.93-.78,86.55,86.55,0,0,1-10.32-3.11q-7.82-2.67-9.91-2.67a4.09,4.09,0,0,0-3.18,1.27c-.78.86-1.35,2.61-1.73,5.29h-3V629.53h3c1.4,8.19,3.25,14.36,5.62,18.41a27.38,27.38,0,0,0,10.81,10.16,32.29,32.29,0,0,0,16,4c6.67,0,12-1.88,15.86-5.58a17.77,17.77,0,0,0,5.83-13.21,19,19,0,0,0-2.19-8.55,25.45,25.45,0,0,0-6.85-8c-2.08-1.7-7.82-5.26-17.15-10.73s-16-9.82-20-13.07a35,35,0,0,1-9-10.79,27.63,27.63,0,0,1-3.07-13,28.79,28.79,0,0,1,9-21.21c6-5.92,13.66-8.88,22.92-8.88a44.75,44.75,0,0,1,18.45,4.45c3,1.42,5.12,2.1,6.34,2.1a4.69,4.69,0,0,0,3.43-1.29c.88-.89,1.59-2.62,2.14-5.26Z" transform="translate(-26.1 -191.56)"/><path class="cls-4" d="M1367.84,663v3.11h-46.68V663H1325c4.53,0,7.79-1.37,9.84-4.11q1.94-2.71,1.93-13v-74c0-5.77-.37-9.6-1-11.45a7.59,7.59,0,0,0-3.31-3.62,14.73,14.73,0,0,0-7.41-2h-3.86v-3.1h46.68v3.1h-3.91c-4.43,0-7.67,1.38-9.69,4.12-1.35,1.81-2,6.13-2,13v74c0,5.79.35,9.62,1,11.46a7.3,7.3,0,0,0,3.37,3.62,14,14,0,0,0,7.29,2Z" transform="translate(-26.1 -191.56)"/><path class="cls-4" d="M1367.84,663" transform="translate(-26.1 -191.56)"/><path class="cls-4" d="M998.43,715.2l1.6,24.07h-1.6c-2.16-7.2-5.22-12.41-9.21-15.56A22.42,22.42,0,0,0,974.84,719a23.3,23.3,0,0,0-12.69,3.58c-3.79,2.4-6.76,6.19-8.94,11.43S950,745.69,950,753.47a41.66,41.66,0,0,0,3.07,16.7A23.2,23.2,0,0,0,962.26,781a26.55,26.55,0,0,0,14.07,3.76,24.31,24.31,0,0,0,12.14-3q5.26-2.94,11.55-11.72l1.62,1.09c-3.54,6.29-7.68,10.88-12.41,13.82a31.55,31.55,0,0,1-16.83,4.36q-17.56,0-27.21-13.07A37.44,37.44,0,0,1,938,753.39a40.77,40.77,0,0,1,4.75-19.51,34.29,34.29,0,0,1,13-13.8,35.19,35.19,0,0,1,18.15-4.88A33.09,33.09,0,0,1,989,719a8.07,8.07,0,0,0,3.11,1.16,3.5,3.5,0,0,0,2.45-1,8,8,0,0,0,1.93-3.93Zm46,0q13.79,0,23.88,10.49t10.12,26.18q0,16.15-10.19,26.82a34,34,0,0,1-49.2.25q-9.93-10.43-9.94-26.94,0-16.87,11.48-27.54a33.87,33.87,0,0,1,23.85-9.26Zm-1,3.75a18.61,18.61,0,0,0-15.21,7.06q-7.14,8.79-7.15,25.74,0,17.37,7.4,26.73a18.26,18.26,0,0,0,15,7.13,20.53,20.53,0,0,0,16.47-7.79c4.33-5.22,6.48-13.4,6.48-24.6q0-18.22-7.15-27.16c-3.82-4.74-9.09-7.11-15.85-7.11Zm37.75-2.14h19.07l43.45,53.26v-41q0-6.54-1.48-8.18c-1.3-1.47-3.37-2.2-6.18-2.2h-2.51v-1.92h24.94v1.92H1156c-3,0-5.18.91-6.47,2.74-.76,1.12-1.16,3.67-1.16,7.64v59.78h-1.88l-46.7-57.14v43.69c0,4.37.49,7.1,1.43,8.19,1.34,1.45,3.42,2.19,6.21,2.19h2.53v1.92H1085v-1.92h2.5c3.06,0,5.22-.9,6.51-2.73.76-1.12,1.16-3.67,1.16-7.65V726.12a32.08,32.08,0,0,0-4.68-4.76,17.11,17.11,0,0,0-4.67-2.16,16.84,16.84,0,0,0-4.6-.47ZM1209,715.2v24.5h-1.93a30.53,30.53,0,0,0-3.37-11.23,17.56,17.56,0,0,0-7-6.63,19.06,19.06,0,0,0-9.32-2.46,12.7,12.7,0,0,0-9,3.32,10.08,10.08,0,0,0-3.56,7.55,9.07,9.07,0,0,0,2.24,5.93c2.17,2.6,7.31,6.1,15.44,10.44q10,5.36,13.59,8.19a19.9,19.9,0,0,1,5.6,6.72,17.84,17.84,0,0,1,2,8.11,18.4,18.4,0,0,1-6.24,13.88q-6.27,5.84-16.09,5.83a33.32,33.32,0,0,1-5.81-.48,60.78,60.78,0,0,1-6.73-1.93,29.91,29.91,0,0,0-6.46-1.65,2.73,2.73,0,0,0-2.06.78,6.51,6.51,0,0,0-1.12,3.28h-1.94V765.06h1.94c.9,5.08,2.11,8.9,3.65,11.42a17.54,17.54,0,0,0,7,6.29,21.77,21.77,0,0,0,10.38,2.52c4.36,0,7.82-1.16,10.32-3.46a10.79,10.79,0,0,0,3.81-8.19,11.38,11.38,0,0,0-1.43-5.3,16.29,16.29,0,0,0-4.45-5,125.79,125.79,0,0,0-11.17-6.66,104.52,104.52,0,0,1-13-8.09,21.86,21.86,0,0,1-5.84-6.68,16.53,16.53,0,0,1-2-8.07,17.47,17.47,0,0,1,5.86-13.14c3.92-3.67,8.91-5.51,14.93-5.51a30.21,30.21,0,0,1,12,2.77,12.25,12.25,0,0,0,4.14,1.3,3.17,3.17,0,0,0,2.22-.8,6.57,6.57,0,0,0,1.39-3.27Zm61.54,3.53v-1.92h24.93v1.92h-2.67a7.17,7.17,0,0,0-6.41,3.5c-.73,1.09-1.09,3.58-1.09,7.52v28.76c0,7.11-.69,12.61-2.1,16.54a20.79,20.79,0,0,1-8.31,10.09c-4.13,2.81-9.72,4.21-16.81,4.21-7.72,0-13.6-1.33-17.59-4A21.68,21.68,0,0,1,1232,774.5c-1.12-3.12-1.67-8.92-1.67-17.46V729.33c0-4.36-.61-7.21-1.8-8.57s-3.14-2-5.82-2h-2.66v-1.92h30.6v1.92H1248c-2.92,0-5,.93-6.25,2.76-.88,1.25-1.3,3.88-1.3,7.84v30.91a70.69,70.69,0,0,0,.74,9.46,20.66,20.66,0,0,0,2.74,8.31,15.45,15.45,0,0,0,5.73,4.91,19.84,19.84,0,0,0,9.18,1.94,25.36,25.36,0,0,0,12.43-3,16.28,16.28,0,0,0,7.5-7.76q2-4.74,2-16V729.33c0-4.43-.49-7.2-1.46-8.29-1.35-1.54-3.37-2.31-6-2.31Zm87.54,49.43,1.71.38-6.1,19.2h-54.88v-1.92h2.65c3,0,5.14-1,6.42-2.91q1.08-1.67,1.08-7.68v-45.9c0-4.43-.48-7.2-1.45-8.29-1.35-1.54-3.38-2.31-6-2.31h-2.65v-1.92H1331v1.92c-3.77,0-6.41.3-7.94,1a6.31,6.31,0,0,0-3.1,2.72c-.56,1.11-.85,3.75-.85,7.9v44.73c0,2.91.29,4.89.85,6a3.69,3.69,0,0,0,1.93,1.63c.86.35,3.58.53,8.18.53h5.16q8.19,0,11.47-1.21a15.12,15.12,0,0,0,6-4.26,35.45,35.45,0,0,0,5.44-9.63Zm56.06-51.35.75,16.67h-2a20,20,0,0,0-1.57-6.27,10.47,10.47,0,0,0-4.31-4.47,15.15,15.15,0,0,0-7.09-1.44h-10v54.14q0,6.55,1.4,8.19c1.33,1.45,3.37,2.19,6.11,2.19H1400v1.92h-30.17v-1.92h2.55c3,0,5.17-.9,6.46-2.73.76-1.12,1.15-3.67,1.15-7.65V721.3h-8.5a23.71,23.71,0,0,0-7.07.74,9.67,9.67,0,0,0-4.65,3.81,15.65,15.65,0,0,0-2.3,7.63h-2l.75-16.67Zm36.47,69v1.92h-30.38v-1.92h2.5c3,0,5.06-.86,6.41-2.55.84-1.12,1.24-3.8,1.24-8v-45.9c0-3.59-.22-6-.68-7.1a4.58,4.58,0,0,0-2.16-2.24,9.69,9.69,0,0,0-4.81-1.26h-2.5v-1.92h30.38v1.92h-2.55c-2.89,0-5,.86-6.32,2.56-.87,1.12-1.3,3.79-1.3,8v45.9c0,3.59.23,5.95.68,7.1a4.6,4.6,0,0,0,2.2,2.24,9.49,9.49,0,0,0,4.74,1.25Zm1.13-69h19.07l43.45,53.26v-41q0-6.54-1.48-8.18-2-2.2-6.18-2.2h-2.49v-1.92h24.93v1.92h-2.53c-3.06,0-5.19.91-6.48,2.74q-1.15,1.68-1.16,7.64v59.78H1517l-46.69-57.14v43.69c0,4.37.49,7.1,1.43,8.19,1.34,1.45,3.41,2.19,6.21,2.19h2.53v1.92h-24.93v-1.92h2.5c3.07,0,5.22-.9,6.51-2.73.76-1.12,1.15-3.67,1.15-7.65V726.12a32.22,32.22,0,0,0-4.66-4.76,17.64,17.64,0,0,0-4.68-2.16,16.87,16.87,0,0,0-4.61-.47Zm144.29-1.61,1.83,22.36H1596c-1.83-5.54-4.22-9.72-7.13-12.54q-6.3-6.06-16.21-6.07-13.47,0-20.52,10.71-5.89,9-5.89,21.53a42.77,42.77,0,0,0,3.93,18.49c2.6,5.57,6,9.65,10.25,12.25a24.74,24.74,0,0,0,13,3.89,29,29,0,0,0,7.58-1,30,30,0,0,0,7-3V761.32q0-5.36-.81-7a5.52,5.52,0,0,0-2.51-2.52q-1.71-.87-6-.87V749h27.39v1.93h-1.3q-4.07,0-5.58,2.72c-.7,1.29-1,3.83-1,7.66v21.73a53.27,53.27,0,0,1-11.85,4.79,51.9,51.9,0,0,1-13,1.51q-20.5,0-31.15-13.18a35.12,35.12,0,0,1-8-22.78,40,40,0,0,1,19.1-33.64,35.79,35.79,0,0,1,18.38-4.55,37.53,37.53,0,0,1,7,.62,67.15,67.15,0,0,1,9,2.77,14.67,14.67,0,0,0,3.93,1.11,2.13,2.13,0,0,0,1.69-.91,7.06,7.06,0,0,0,.86-3.59Zm0,0" transform="translate(-26.1 -191.56)"/></svg>