<svg id="Capa_1" data-name="Capa 1" xmlns="http://www.w3.org/2000/svg" xmlns:xlink="http://www.w3.org/1999/xlink" viewBox="0 0 619.82 241.17"><defs><style>.cls-1,.cls-5,.cls-7,.cls-9{fill:none;}.cls-1{clip-rule:evenodd;}.cls-2{fill:url(#GradientFill_1);}.cls-3{fill:#3a9647;}.cls-4{fill:#690b11;}.cls-10,.cls-4,.cls-8,.cls-9{fill-rule:evenodd;}.cls-6{clip-path:url(#clip-path);}.cls-7{stroke:#fff;stroke-width:1.5px;}.cls-10,.cls-7{stroke-miterlimit:22.93;}.cls-9{stroke:#690b11;stroke-linecap:round;stroke-linejoin:round;stroke-width:5.25px;}.cls-10{stroke:#221f1f;stroke-width:0.22px;}</style><radialGradient id="GradientFill_1" cx="306.39" cy="180.16" r="202.52" gradientTransform="translate(-24.31 -468.56) scale(1.09 3.27)" gradientUnits="userSpaceOnUse"><stop offset="0" stop-color="#fff"/><stop offset="0.16" stop-color="#fcdec4"/><stop offset="0.31" stop-color="#f9c192"/><stop offset="0.46" stop-color="#f7aa68"/><stop offset="0.61" stop-color="#f59748"/><stop offset="0.75" stop-color="#f48a31"/><stop offset="0.88" stop-color="#f38324"/><stop offset="1" stop-color="#f3801f"/></radialGradient><clipPath id="clip-path" transform="translate(-8 -119.19)"><path id="SVGID" class="cls-1" d="M233.28,258.64c-11.24-.13-22.55,5.67-30,18V238.34c19.33-11.17,38.64-11.67,57.94-2.49,25.16,14.88,34.17,44.11,43,73.51l25.86-66.66c4.35-13.52,22.87-11.13,25.85,0q12,33.48,24,67c8.72-22.84,17.85-46.29,26.57-69.14,3.26-11.21,29.57-9.64,26.91,8.69Q415,299.54,396.64,349.85H364.32l-21.87-66.59c-7.4,22.09-14.76,44.45-22.16,66.53H289.61c-6.7-18-13.26-36.25-20-54.24C262.82,277.21,257,259.12,233.28,258.64Z"/></clipPath></defs><title>prueba2</title><rect class="cls-2" width="617.51" height="240.63" rx="36.68"/><path d="M568.78,149.64q7.79-9.12,15.62-10.88c-2.48,2.42-3.87,4.6-4.15,6.52q6.79-7.67,14.81-9.71a15.41,15.41,0,0,0-7,7.86q13.78-12.12,21.24-6.55-28.56,21.52-20.42,41a24.47,24.47,0,0,1,5.53-11.7,17.6,17.6,0,0,0-.78,4.81,31.09,31.09,0,0,1,8.76-16.18,14.72,14.72,0,0,0-3.66,7.68A37.43,37.43,0,0,1,608,150.8q-8.36,10.11-.59,23.69a36.39,36.39,0,0,1-1.78-11.12q6.74,31.24,22.2,39.48-10.58-14.49-12.93-30,1.67,6.47,5.65,8.13-6.46-15.13-4.43-23.57-.37,7.08,3,11.1c-.14-.3-2.68-5.79.53-10.69a10.86,10.86,0,0,1,6.77-4.53,39.48,39.48,0,0,0-7.69-18.68,38.94,38.94,0,0,0-13.19-11,44,44,0,0,0-16.43,4.66A46,46,0,0,0,568.78,149.64Z" transform="translate(-8 -119.19)"/><path class="cls-3" d="M633,141.16" transform="translate(-8 -119.19)"/><path d="M582.46,128.18a15.42,15.42,0,0,0-6.9,3.58q9.66-4.26,18.44-2.25a9.13,9.13,0,0,0-5.28,3.92c1.68-.74,3.42-1.57,5.2-2.5a83.05,83.05,0,0,0,11.61-7.35,28.64,28.64,0,0,0-16.6-4.21A45.8,45.8,0,0,0,562.33,130Q573.19,125.2,582.46,128.18Z" transform="translate(-8 -119.19)"/><polygon class="cls-4" points="160 72.85 196.36 72.85 196.36 58.8 177.84 58.8 160 58.8 160 72.85"/><path class="cls-5" d="M422.69,119.28c-.77,0-1.5.09-2.22.15l.81.71C421.75,119.85,422.21,119.55,422.69,119.28Z" transform="translate(-8 -119.19)"/><path class="cls-5" d="M448,149.72c-.08.08-.14.16-.21.24l.24.35C448,150.11,448,149.92,448,149.72Z" transform="translate(-8 -119.19)"/><path class="cls-4" d="M172.68,297.33c0,26.2,22.83,61,56.62,62.92,17.06.95,38.68-3.9,52.67-25.62-4.61-12.27-8.75-24.53-13.35-36.8-6.59,45.42-67.55,45.44-67.55-3.5V196.52H172.68Z" transform="translate(-8 -119.19)"/><path class="cls-4" d="M233.28,258.64c-11.24-.13-22.55,5.67-30,18V238.34c19.33-11.17,38.64-11.67,57.94-2.49,25.16,14.88,34.17,44.11,43,73.51l25.86-66.66c4.35-13.52,22.87-11.13,25.85,0q12,33.48,24,67c8.72-22.84,17.85-46.29,26.57-69.14,3.26-11.21,29.57-9.64,26.91,8.69Q415,299.54,396.64,349.85H364.32l-21.87-66.59c-7.4,22.09-14.76,44.45-22.16,66.53H289.61c-6.7-18-13.26-36.25-20-54.24C262.82,277.21,257,259.12,233.28,258.64Z" transform="translate(-8 -119.19)"/><g class="cls-6"><line class="cls-7" x1="185.96" y1="114.47" x2="454.04" y2="114.47"/><line class="cls-7" x1="185.96" y1="123.1" x2="454.04" y2="123.1"/><line class="cls-7" x1="185.96" y1="130.35" x2="454.04" y2="130.35"/><line class="cls-7" x1="185.96" y1="137.39" x2="454.04" y2="137.39"/><line class="cls-7" x1="185.96" y1="145.18" x2="454.04" y2="145.18"/><line class="cls-7" x1="185.96" y1="151.77" x2="454.04" y2="151.77"/><line class="cls-7" x1="185.96" y1="160.35" x2="454.04" y2="160.35"/><line class="cls-7" x1="185.96" y1="167.33" x2="454.04" y2="167.33"/><line class="cls-7" x1="185.96" y1="175.17" x2="454.04" y2="175.17"/></g><path class="cls-8" d="M225.69,200.42h8a21.87,21.87,0,0,1,3.55.21,5.28,5.28,0,0,1,2.1.86,5.36,5.36,0,0,1,1.54,1.75,4.87,4.87,0,0,1,.62,2.45,5.06,5.06,0,0,1-.76,2.69,4.76,4.76,0,0,1-2.06,1.84,5.33,5.33,0,0,1,2.82,1.91,5.26,5.26,0,0,1,1,3.17,6.43,6.43,0,0,1-.64,2.79,5.59,5.59,0,0,1-1.74,2.17,5.71,5.71,0,0,1-2.72,1c-.67.07-2.3.12-4.89.14h-6.83v-21Zm4.06,3.49v4.83h2.66c1.57,0,2.55,0,2.94-.07a2.68,2.68,0,0,0,1.63-.75,2.25,2.25,0,0,0,.59-1.63,2.38,2.38,0,0,0-.51-1.58,2.27,2.27,0,0,0-1.52-.73c-.4,0-1.56-.07-3.46-.07Zm0,8.31v5.63h3.76a18.27,18.27,0,0,0,2.78-.13,2.49,2.49,0,0,0,1.47-.84,2.66,2.66,0,0,0,.57-1.78,2.77,2.77,0,0,0-.44-1.61,2.46,2.46,0,0,0-1.26-1,13.19,13.19,0,0,0-3.6-.31Z" transform="translate(-8 -119.19)"/><path class="cls-8" d="M255.52,221.39v-2.27a6,6,0,0,1-2.1,1.94,5.62,5.62,0,0,1-2.73.71,5.12,5.12,0,0,1-2.63-.67,3.93,3.93,0,0,1-1.69-1.89,8.81,8.81,0,0,1-.52-3.38v-9.64h3.84v7a20.63,20.63,0,0,0,.21,3.94,2.07,2.07,0,0,0,.78,1.14,2.25,2.25,0,0,0,1.43.43,3,3,0,0,0,1.77-.57,2.81,2.81,0,0,0,1.07-1.4,17.18,17.18,0,0,0,.29-4.11v-6.43h3.84v15.2Z" transform="translate(-8 -119.19)"/><path class="cls-8" d="M261.65,217.12l3.87-.62a2.89,2.89,0,0,0,1,1.77,3.28,3.28,0,0,0,2.1.6,3.69,3.69,0,0,0,2.25-.57,1.31,1.31,0,0,0,.51-1.08,1.09,1.09,0,0,0-.28-.75,3,3,0,0,0-1.28-.53q-4.67-1.08-5.91-2a4,4,0,0,1-1.73-3.42,4.27,4.27,0,0,1,1.5-3.33,6.71,6.71,0,0,1,4.62-1.35,7.79,7.79,0,0,1,4.44,1,5.2,5.2,0,0,1,2,3l-3.62.7a2.39,2.39,0,0,0-.88-1.37,3.13,3.13,0,0,0-1.87-.47,4.06,4.06,0,0,0-2.19.44,1,1,0,0,0-.44.82.89.89,0,0,0,.39.73,14.15,14.15,0,0,0,3.6,1.13,10.54,10.54,0,0,1,4.3,1.79,3.8,3.8,0,0,1,1.21,3,4.65,4.65,0,0,1-1.67,3.59,7.18,7.18,0,0,1-4.95,1.5,7.89,7.89,0,0,1-4.7-1.25A5.75,5.75,0,0,1,261.65,217.12Z" transform="translate(-8 -119.19)"/><path class="cls-8" d="M278.61,204.14v-3.72h3.84v3.72Zm0,17.25v-15.2h3.84v15.2Z" transform="translate(-8 -119.19)"/><path class="cls-8" d="M299.63,221.39h-3.84v-7.74a12.62,12.62,0,0,0-.25-3.18,2.21,2.21,0,0,0-.81-1.13,2.28,2.28,0,0,0-1.34-.4,3,3,0,0,0-1.81.58,2.84,2.84,0,0,0-1.1,1.51,13.41,13.41,0,0,0-.3,3.49v6.87h-3.84v-15.2h3.56v2.23a5.81,5.81,0,0,1,4.82-2.55,5.63,5.63,0,0,1,2.34.48,3.85,3.85,0,0,1,1.6,1.22,4.54,4.54,0,0,1,.75,1.69,12.36,12.36,0,0,1,.22,2.7Z" transform="translate(-8 -119.19)"/><path class="cls-8" d="M311.93,216.59l3.84.67a6.58,6.58,0,0,1-2.33,3.36,6.65,6.65,0,0,1-4,1.15,6.37,6.37,0,0,1-5.61-2.59,9,9,0,0,1-1.44-5.25,8.64,8.64,0,0,1,1.89-5.92,6.07,6.07,0,0,1,4.77-2.14,6.35,6.35,0,0,1,5.12,2.24c1.24,1.49,1.84,3.78,1.78,6.87h-9.61a4.2,4.2,0,0,0,.93,2.78,2.86,2.86,0,0,0,2.21,1,2.24,2.24,0,0,0,1.51-.52,3.18,3.18,0,0,0,.93-1.65Zm.22-4.07a4,4,0,0,0-.86-2.66,2.57,2.57,0,0,0-2-.92,2.63,2.63,0,0,0-2.08,1,3.86,3.86,0,0,0-.8,2.61Z" transform="translate(-8 -119.19)"/><path class="cls-8" d="M317.74,217.12l3.86-.62a3,3,0,0,0,1,1.77,3.31,3.31,0,0,0,2.11.6,3.73,3.73,0,0,0,2.25-.57,1.33,1.33,0,0,0,.5-1.08,1.08,1.08,0,0,0-.27-.75,3.08,3.08,0,0,0-1.29-.53c-3.11-.72-5.07-1.38-5.9-2a4,4,0,0,1-1.73-3.42,4.3,4.3,0,0,1,1.49-3.33,6.76,6.76,0,0,1,4.63-1.35,7.79,7.79,0,0,1,4.44,1,5.23,5.23,0,0,1,2,3l-3.61.7a2.4,2.4,0,0,0-.89-1.37,3.08,3.08,0,0,0-1.86-.47,4,4,0,0,0-2.19.44,1,1,0,0,0-.44.82.88.88,0,0,0,.38.73,14.13,14.13,0,0,0,3.61,1.13,10.6,10.6,0,0,1,4.3,1.79,3.8,3.8,0,0,1,1.21,3,4.68,4.68,0,0,1-1.67,3.59,7.2,7.2,0,0,1-5,1.5,8,8,0,0,1-4.71-1.25A5.78,5.78,0,0,1,317.74,217.12Z" transform="translate(-8 -119.19)"/><path class="cls-8" d="M333.32,217.12l3.87-.62a3,3,0,0,0,1,1.77,3.31,3.31,0,0,0,2.11.6,3.73,3.73,0,0,0,2.25-.57,1.33,1.33,0,0,0,.5-1.08,1,1,0,0,0-.28-.75,3,3,0,0,0-1.28-.53c-3.11-.72-5.07-1.38-5.91-2a4,4,0,0,1-1.72-3.42,4.3,4.3,0,0,1,1.49-3.33,6.76,6.76,0,0,1,4.63-1.35,7.73,7.73,0,0,1,4.43,1,5.2,5.2,0,0,1,2,3l-3.61.7a2.45,2.45,0,0,0-.89-1.37,3.1,3.1,0,0,0-1.86-.47,4,4,0,0,0-2.19.44,1,1,0,0,0-.44.82.88.88,0,0,0,.38.73,14.13,14.13,0,0,0,3.61,1.13,10.6,10.6,0,0,1,4.3,1.79,3.8,3.8,0,0,1,1.21,3,4.68,4.68,0,0,1-1.67,3.59,7.22,7.22,0,0,1-4.95,1.5,8,8,0,0,1-4.71-1.25A5.84,5.84,0,0,1,333.32,217.12Z" transform="translate(-8 -119.19)"/><polygon class="cls-8" points="352.86 102.21 348.14 81.23 352.31 81.23 355.3 95.64 358.96 81.23 363.79 81.23 367.3 95.89 370.35 81.23 374.43 81.23 369.6 102.21 365.26 102.21 361.3 86.53 357.31 102.21 352.86 102.21"/><path class="cls-8" d="M386.35,210.88l-3.48-.65a5.74,5.74,0,0,1,2-3.29,7.11,7.11,0,0,1,4.27-1.07,8.94,8.94,0,0,1,3.83.63,3.92,3.92,0,0,1,1.77,1.62,8.62,8.62,0,0,1,.52,3.6l-.06,4.68a17.54,17.54,0,0,0,.18,3,8.55,8.55,0,0,0,.69,2h-3.81a12.16,12.16,0,0,1-.37-1.17,4.45,4.45,0,0,0-.14-.47,6.76,6.76,0,0,1-2.1,1.52,5.85,5.85,0,0,1-2.39.5,4.78,4.78,0,0,1-3.52-1.27,4.32,4.32,0,0,1-1.29-3.22,4.39,4.39,0,0,1,.59-2.29,3.81,3.81,0,0,1,1.64-1.54,12.57,12.57,0,0,1,3.06-.94,20.35,20.35,0,0,0,3.73-1v-.4a2.23,2.23,0,0,0-.54-1.68,3.2,3.2,0,0,0-2.08-.5,2.65,2.65,0,0,0-1.6.43,2.93,2.93,0,0,0-.93,1.51Zm5.15,3.25a24,24,0,0,1-2.34.61,7.22,7.22,0,0,0-2.09.7,1.72,1.72,0,0,0-.75,1.42,2.07,2.07,0,0,0,2.13,2.07,3.3,3.3,0,0,0,2-.71,2.55,2.55,0,0,0,.91-1.33,8.32,8.32,0,0,0,.15-2Z" transform="translate(-8 -119.19)"/><path class="cls-8" d="M397.7,217.12l3.87-.62a2.89,2.89,0,0,0,1,1.77,3.29,3.29,0,0,0,2.11.6,3.68,3.68,0,0,0,2.24-.57,1.31,1.31,0,0,0,.51-1.08,1.09,1.09,0,0,0-.28-.75,3,3,0,0,0-1.28-.53q-4.67-1.08-5.91-2a4,4,0,0,1-1.73-3.42,4.27,4.27,0,0,1,1.5-3.33,6.73,6.73,0,0,1,4.62-1.35,7.79,7.79,0,0,1,4.44,1,5.2,5.2,0,0,1,2,3l-3.62.7a2.39,2.39,0,0,0-.88-1.37,3.13,3.13,0,0,0-1.87-.47,4.06,4.06,0,0,0-2.19.44,1,1,0,0,0-.44.82.89.89,0,0,0,.39.73,14.15,14.15,0,0,0,3.6,1.13,10.66,10.66,0,0,1,4.31,1.79,3.84,3.84,0,0,1,1.21,3,4.66,4.66,0,0,1-1.68,3.59,7.17,7.17,0,0,1-4.94,1.5,7.93,7.93,0,0,1-4.71-1.25A5.8,5.8,0,0,1,397.7,217.12Z" transform="translate(-8 -119.19)"/><path class="cls-8" d="M414.66,204.14v-3.72h3.84v3.72Zm0,17.25v-15.2h3.84v15.2Z" transform="translate(-8 -119.19)"/><polyline class="cls-9" points="203.29 75.62 312.67 40.31 422.05 75.62"/><path d="M329.45,191.63H310.84V175.08h18.61Zm-17.26-1.35H328.1V176.42H312.19Z" transform="translate(-8 -119.19)"/><rect x="311.47" y="56.84" width="1.35" height="14.65"/><rect x="303.32" y="63.49" width="17.65" height="1.35"/><path class="cls-10" d="M358.74,128.92c5.31.81,11.43,2.67,17.14,2.32-4.89-.94-11.9-2.7-16.69-4-5.85-1.29-4.95-.88-8.77,2.31a1.28,1.28,0,0,1-1,.38c-.32-.05-1.47-1.6-1.82-2-5.28-5.56-12.75-8.11-21.43-8-2.58,0-3,3.11.05,3.07,8.57-.4,16,1.86,21.44,8.3a2.13,2.13,0,0,0,1.38,1.11c1.51.08,2.14-2,4.19-2.94A10.83,10.83,0,0,1,358.74,128.92Z" transform="translate(-8 -119.19)"/><path class="cls-10" d="M371.39,153.7c3.33.51,7.16,1.67,10.74,1.45-3.06-.59-7.45-1.68-10.45-2.5-3.66-.8-3.1-.55-5.49,1.45a.8.8,0,0,1-.61.24c-.2,0-.92-1-1.14-1.23-3.31-3.48-8-5.08-13.42-5-1.62,0-1.88,1.95,0,1.92,5.37-.25,10.05,1.16,13.43,5.2a1.33,1.33,0,0,0,.86.69c.94,0,1.34-1.27,2.63-1.84A6.77,6.77,0,0,1,371.39,153.7Z" transform="translate(-8 -119.19)"/><path class="cls-10" d="M335.22,138.54c1.82.28,3.91.91,5.86.79-1.67-.32-4.07-.92-5.7-1.36-2-.44-1.7-.3-3,.79a.45.45,0,0,1-.33.13c-.11,0-.51-.55-.62-.67a9.51,9.51,0,0,0-7.33-2.73c-.88,0-1,1.06,0,1,2.93-.14,5.48.63,7.32,2.84.13.19.31.37.48.37.51,0,.73-.69,1.43-1A3.66,3.66,0,0,1,335.22,138.54Z" transform="translate(-8 -119.19)"/></svg>