<svg id="Capa_1" data-name="Capa 1" xmlns="http://www.w3.org/2000/svg" xmlns:xlink="http://www.w3.org/1999/xlink" viewBox="0 0 1150.86 1053.96"><defs><style>.cls-1,.cls-10,.cls-2,.cls-8{fill:none;}.cls-2{clip-rule:evenodd;}.cls-3{fill:url(#GradientFill_1);}.cls-4{clip-path:url(#clip-path);}.cls-5{fill:#61964e;}.cls-10,.cls-12,.cls-13,.cls-5,.cls-6,.cls-9{fill-rule:evenodd;}.cls-6{fill:#5a1318;}.cls-7{clip-path:url(#clip-path-2);}.cls-8{stroke:#fff;stroke-width:1.5px;}.cls-12,.cls-8{stroke-miterlimit:22.93;}.cls-11,.cls-12,.cls-9{fill:#262424;}.cls-10{stroke:#5a1318;stroke-linecap:round;stroke-linejoin:round;stroke-width:5.25px;}.cls-12{stroke:#262424;stroke-width:0.22px;}.cls-13{fill:#edc294;}</style><radialGradient id="GradientFill_1" cx="934.02" cy="532" r="523" gradientTransform="translate(649.75 -504.63) rotate(45)" gradientUnits="userSpaceOnUse"><stop offset="0" stop-color="#fff"/><stop offset="0.13" stop-color="#f7e3d1"/><stop offset="0.29" stop-color="#eec5a0"/><stop offset="0.44" stop-color="#e7ac76"/><stop offset="0.59" stop-color="#e19956"/><stop offset="0.74" stop-color="#dd8b3f"/><stop offset="0.88" stop-color="#db8332"/><stop offset="1" stop-color="#da802d"/></radialGradient><clipPath id="clip-path" transform="translate(-411.02 -1.04)"><circle id="SVGID" class="cls-1" cx="934.02" cy="532" r="523" transform="translate(-102.61 816.27) rotate(-45)"/></clipPath><clipPath id="clip-path-2" transform="translate(-411.02 -1.04)"><path id="SVGID-2" data-name="SVGID" class="cls-2" d="M725.19,554.06c-33.39-.41-67,16.82-89.05,53.48V493.77c57.4-33.16,114.74-34.65,172-7.4,74.69,44.19,101.46,131,127.64,218.28l76.77-197.93c12.91-40.13,67.91-33,76.77,0q35.6,99.43,71.21,198.86c25.9-67.83,53-137.46,78.9-205.29,9.68-33.28,87.79-28.63,79.92,25.8q-54.6,149.4-109.18,298.79h-96l-64.94-197.72c-22,65.58-43.8,132-65.77,197.54H892.44c-19.89-53.42-39.38-107.63-59.27-161.05C812.9,609.19,795.64,555.48,725.19,554.06Z"/></clipPath></defs><title>busines-wassi-inmobiliaria</title><circle class="cls-3" cx="934.02" cy="532" r="523" transform="translate(-513.63 815.23) rotate(-45)"/><g class="cls-4"><path class="cls-5" d="M1448.32,250.38q-23.7-16.27-31.14-33.41c14,106.9,71.47,268.15,144.7,386.29-12.85,12-29.88-4.81-29.73-9.32-59.92-120.22-98.68-225.55-110-259.61q-3,12.81,5.2,24.59-28.51-24.33-34.79-58.07-1.09,16.13,4.4,28.41-33.67-50.83-34.39-98.6-25.15,26.67-19.43,62.34-10.1-12-9-33.18-6.1,25.2,13.21,70.46-11.88-5-16.87-24.32,7,46.5,38.64,89.79-46.23-24.58-66.35-118a109.23,109.23,0,0,0,5.31,33.23q-23.19-40.61,1.76-70.8-15.69,12.62-27.63,35,1.28-11.42,10.94-23a93.13,93.13,0,0,0-26.2,48.39,52.81,52.81,0,0,1,2.33-14.38q-12.2,13.68-16.54,35-24.3-58.28,61.05-122.62-22.26-16.66-63.49,19.57,7.06-16.2,20.9-23.48-24,6.12-44.26,29,1.24-8.61,12.41-19.49-23.43,5.3-46.71,32.53,43.08-79.94,128.83-80c-14.18-12.27-33.65-14.62-50-6a157.15,157.15,0,0,1,16-10.44q-31.83,1.53-45.07,11.86a27.44,27.44,0,0,1,15.79-11.73q-26.24-6-55.14,6.75a46.09,46.09,0,0,1,20.62-10.71q-27.72-8.91-60.15,5.54c39.73-33.06,92.61-41.29,139.38-21.69q-82.8-24.23-101.84-70.43,21.58,19.86,35.1,23.47a128.46,128.46,0,0,0-13.74-10.83q21.15,6.81,30.44,16.63-6.72-11.61-8.38-18.33,16.34,16.29,24.19,21.56-6.11-7.86-6.93-13.6,24.4,10.55,37.31,27.8-29.19-52.2-24.22-83.17,14.53,4.71,25.43,28.77,2.27-4.5.44-19.67A73.94,73.94,0,0,1,1317.27,65a99.05,99.05,0,0,0,14.21-25.82,53.35,53.35,0,0,1,8.11,51.07,27.09,27.09,0,0,0,9.68-19.69c8.72,7.34,10.37,20.86,3.71,30.38,21.73-47.12,59.91-83,106.16-99.85q-20.85,18.11-32.89,40a184.28,184.28,0,0,1,19.36-12.67,457.12,457.12,0,0,1-43.18,44.37q20-13.87,30-17.62-26.94,18.65-45.32,49.81,16.3-11.67,30.48-22.08a70,70,0,0,1-22.74,31.36,241.56,241.56,0,0,1,154.31,8.55,46.74,46.74,0,0,1-48.68,5.94q8.16,7.95,21.57,10.78-19.52,7.13-37.09-5.56,8.14,10.64,15.84,12.42a84.57,84.57,0,0,1-36.79-8.63q12.73,9.21,19.93,9.73c-18.9,3.11-31-7.42-47.54-4.3,59.74,9.91,102.54,21.24,121.1,43.51q-20.79-.31-33.2-12.42a20.1,20.1,0,0,0,7.11,10.66q-17.17-.06-24.68-9.58,3.72,8.06,5.94,10.12-14.09.47-33.1-14.65a69.11,69.11,0,0,0,20,17.12q-27.46-5.33-45.68-18.94,12.76,11.55,21.56,16.53-23.94-3-41.41-17,56.76,54.36,72.22,93.48-8.2-10.38-12.41-14,21.52,37.93,15.89,52.54a337,337,0,0,0-22.09-29.7q6.15,12.06,11.17,20-22.24-18.21-38.76-47.51a100.21,100.21,0,0,0,16.16,29.81q-24.7-19.56-38.15-43.16Q1444.45,243.77,1448.32,250.38Z" transform="translate(-411.02 -1.04)"/></g><path class="cls-6" d="M545.27,668.92c0,77.8,67.77,181.25,168.11,186.82,50.64,2.81,114.83-11.59,156.36-76-13.67-36.45-26-72.83-39.64-109.27C810.54,805.26,629.55,805.34,629.55,660V369.62H545.27Z" transform="translate(-411.02 -1.04)"/><path class="cls-6" d="M725.19,554.06c-33.39-.41-67,16.82-89.05,53.48V493.77c57.4-33.16,114.74-34.65,172-7.4,74.69,44.19,101.46,131,127.64,218.28l76.77-197.93c12.91-40.13,67.91-33,76.77,0q35.6,99.43,71.21,198.86c25.9-67.83,53-137.46,78.9-205.29,9.68-33.28,87.79-28.63,79.92,25.8q-54.6,149.4-109.18,298.79h-96l-64.94-197.72c-22,65.58-43.8,132-65.77,197.54H892.44c-19.89-53.42-39.38-107.63-59.27-161.05C812.9,609.19,795.64,555.48,725.19,554.06Z" transform="translate(-411.02 -1.04)"/><g class="cls-7"><line class="cls-8" x1="197.42" y1="478.84" x2="993.38" y2="478.84"/><line class="cls-8" x1="197.42" y1="504.47" x2="993.38" y2="504.47"/><line class="cls-8" x1="197.42" y1="525.97" x2="993.38" y2="525.97"/><line class="cls-8" x1="197.42" y1="546.88" x2="993.38" y2="546.88"/><line class="cls-8" x1="197.42" y1="570.02" x2="993.38" y2="570.02"/><line class="cls-8" x1="197.42" y1="589.58" x2="993.38" y2="589.58"/><line class="cls-8" x1="197.42" y1="615.04" x2="993.38" y2="615.04"/><line class="cls-8" x1="197.42" y1="635.78" x2="993.38" y2="635.78"/><line class="cls-8" x1="197.42" y1="659.05" x2="993.38" y2="659.05"/></g><path class="cls-9" d="M702.65,381.19h23.83a66.19,66.19,0,0,1,10.56.61,15.36,15.36,0,0,1,6.22,2.57,15.81,15.81,0,0,1,4.58,5.18,14.58,14.58,0,0,1,1.83,7.28,14.92,14.92,0,0,1-2.25,8,14,14,0,0,1-6.1,5.47,15,15,0,0,1,11.26,15.07,19.24,19.24,0,0,1-1.88,8.28,16.45,16.45,0,0,1-5.18,6.43,16.63,16.63,0,0,1-8.07,3q-3,.33-14.51.42H702.65V381.19Zm12.07,10.35v14.35h7.88q7,0,8.72-.22a7.7,7.7,0,0,0,4.85-2.21,6.73,6.73,0,0,0,1.77-4.85,7,7,0,0,0-1.53-4.68,6.69,6.69,0,0,0-4.52-2.17c-1.19-.15-4.62-.22-10.26-.22Zm0,24.7v16.7h11.15a52.84,52.84,0,0,0,8.25-.38,7.4,7.4,0,0,0,4.37-2.49,7.92,7.92,0,0,0,1.69-5.31,8.4,8.4,0,0,0-1.3-4.77,7.34,7.34,0,0,0-3.76-2.85q-2.46-.9-10.68-.9Z" transform="translate(-411.02 -1.04)"/><path class="cls-9" d="M791.21,443.46v-6.75a17.59,17.59,0,0,1-6.21,5.75,16.53,16.53,0,0,1-8.12,2.13,15.35,15.35,0,0,1-7.82-2,11.64,11.64,0,0,1-5-5.62c-1-2.42-1.55-5.76-1.55-10V398.32h11.4v20.79q0,9.54.64,11.68a6.29,6.29,0,0,0,2.3,3.41,6.85,6.85,0,0,0,4.25,1.26,8.81,8.81,0,0,0,5.25-1.68,8.41,8.41,0,0,0,3.18-4.18q.86-2.49.86-12.2V398.32h11.4v45.14Z" transform="translate(-411.02 -1.04)"/><path class="cls-9" d="M809.42,430.76l11.49-1.82a8.64,8.64,0,0,0,3,5.24,9.63,9.63,0,0,0,6.25,1.8c3,0,5.17-.56,6.67-1.69a3.9,3.9,0,0,0,1.5-3.21,3.2,3.2,0,0,0-.82-2.24,8.68,8.68,0,0,0-3.81-1.58q-13.84-3.19-17.53-5.83A11.81,11.81,0,0,1,811,411.25a12.81,12.81,0,0,1,4.44-9.88q4.44-4,13.73-4,8.87,0,13.18,3a15.54,15.54,0,0,1,5.94,9l-10.74,2.09a7.08,7.08,0,0,0-2.63-4.08,9.31,9.31,0,0,0-5.54-1.4c-3,0-5.18.43-6.5,1.32a2.83,2.83,0,0,0-1.31,2.42,2.67,2.67,0,0,0,1.14,2.17c1,.8,4.61,1.91,10.71,3.36s10.36,3.22,12.77,5.32,3.59,5.09,3.59,8.89a13.87,13.87,0,0,1-5,10.67q-5,4.46-14.69,4.46-8.82,0-14-3.72A17.14,17.14,0,0,1,809.42,430.76Z" transform="translate(-411.02 -1.04)"/><path class="cls-9" d="M859.79,392.24V381.19h11.4v11.05Zm0,51.22V398.32h11.4v45.14Z" transform="translate(-411.02 -1.04)"/><path class="cls-9" d="M922.19,443.46h-11.4v-23q0-7.31-.74-9.44a6.41,6.41,0,0,0-6.39-4.52,9,9,0,0,0-5.37,1.69,8.48,8.48,0,0,0-3.26,4.5c-.6,1.87-.89,5.32-.89,10.36v20.41h-11.4V398.32h10.57V405c3.79-5.06,8.54-7.58,14.3-7.58a16.82,16.82,0,0,1,6.94,1.42,11.78,11.78,0,0,1,4.75,3.62,13.38,13.38,0,0,1,2.25,5,37.93,37.93,0,0,1,.64,8Z" transform="translate(-411.02 -1.04)"/><path class="cls-9" d="M958.71,429.2l11.4,2a19.56,19.56,0,0,1-6.92,10,19.77,19.77,0,0,1-11.85,3.42q-11.25,0-16.66-7.7-4.26-6.17-4.27-15.58,0-11.22,5.61-17.58a18,18,0,0,1,14.17-6.36q9.62,0,15.19,6.65t5.31,20.4H942.15c.08,3.53,1,6.29,2.76,8.26a8.39,8.39,0,0,0,6.54,2.95,6.74,6.74,0,0,0,4.5-1.52,9.49,9.49,0,0,0,2.76-4.91Zm.66-12.09c-.08-3.46-.93-6.1-2.55-7.9a7.64,7.64,0,0,0-5.92-2.71,7.75,7.75,0,0,0-6.16,2.86,11.43,11.43,0,0,0-2.39,7.75Z" transform="translate(-411.02 -1.04)"/><path class="cls-9" d="M976,430.76l11.48-1.82a8.69,8.69,0,0,0,3,5.24,9.66,9.66,0,0,0,6.26,1.8q4.43,0,6.67-1.69a3.89,3.89,0,0,0,1.49-3.21,3.2,3.2,0,0,0-.81-2.24,8.74,8.74,0,0,0-3.82-1.58q-13.83-3.19-17.53-5.83a11.8,11.8,0,0,1-5.13-10.18,12.78,12.78,0,0,1,4.44-9.88q4.42-4,13.73-4,8.87,0,13.17,3a15.49,15.49,0,0,1,5.94,9l-10.73,2.09a7.1,7.1,0,0,0-2.64-4.08,9.28,9.28,0,0,0-5.53-1.4c-3,0-5.19.43-6.51,1.32a2.85,2.85,0,0,0-1.3,2.42,2.66,2.66,0,0,0,1.13,2.17c1,.8,4.61,1.91,10.71,3.36s10.36,3.22,12.78,5.32,3.59,5.09,3.59,8.89a13.85,13.85,0,0,1-5,10.67q-5,4.46-14.68,4.46-8.83,0-14-3.72A17.12,17.12,0,0,1,976,430.76Z" transform="translate(-411.02 -1.04)"/><path class="cls-9" d="M1022.23,430.76l11.49-1.82a8.68,8.68,0,0,0,3,5.24,9.68,9.68,0,0,0,6.26,1.8q4.43,0,6.67-1.69a3.9,3.9,0,0,0,1.5-3.21,3.2,3.2,0,0,0-.82-2.24,8.68,8.68,0,0,0-3.81-1.58q-13.85-3.19-17.53-5.83a11.81,11.81,0,0,1-5.14-10.18,12.81,12.81,0,0,1,4.44-9.88q4.44-4,13.73-4,8.87,0,13.18,3a15.58,15.58,0,0,1,5.94,9l-10.74,2.09a7.13,7.13,0,0,0-2.63-4.08,9.31,9.31,0,0,0-5.54-1.4c-3,0-5.19.43-6.5,1.32a2.83,2.83,0,0,0-1.31,2.42,2.67,2.67,0,0,0,1.14,2.17c1,.8,4.6,1.91,10.71,3.36s10.36,3.22,12.77,5.32,3.59,5.09,3.59,8.89a13.87,13.87,0,0,1-5,10.67q-5,4.46-14.69,4.46-8.82,0-14-3.72A17.14,17.14,0,0,1,1022.23,430.76Z" transform="translate(-411.02 -1.04)"/><polygon class="cls-9" points="692.97 442.42 678.96 380.15 691.36 380.15 700.22 422.93 711.1 380.15 725.44 380.15 735.84 423.65 744.91 380.15 757.02 380.15 742.66 442.42 729.78 442.42 718.03 395.87 706.2 442.42 692.97 442.42"/><path class="cls-9" d="M1179.66,412.24l-10.32-1.91q1.74-6.61,6-9.79t12.68-3.17q7.64,0,11.38,1.88a11.5,11.5,0,0,1,5.26,4.8c1,1.94,1.53,5.49,1.53,10.68l-.17,13.92a51.46,51.46,0,0,0,.54,8.77,25.92,25.92,0,0,0,2,6H1197.3c-.29-.78-.66-1.94-1.09-3.48-.19-.71-.32-1.17-.41-1.39a20.36,20.36,0,0,1-6.24,4.49,17.06,17.06,0,0,1-7.09,1.51c-4.42,0-7.92-1.26-10.47-3.78a12.85,12.85,0,0,1-3.83-9.55,13.37,13.37,0,0,1,1.75-6.82,11.66,11.66,0,0,1,4.9-4.58,37.72,37.72,0,0,1,9.07-2.78,59.9,59.9,0,0,0,11.08-2.93V413c0-2.32-.54-4-1.62-5s-3.15-1.48-6.16-1.48a7.81,7.81,0,0,0-4.76,1.27,8.86,8.86,0,0,0-2.77,4.47Zm15.31,9.65a68.2,68.2,0,0,1-7,1.83,21,21,0,0,0-6.21,2.07,5.06,5.06,0,0,0-2.23,4.21,6,6,0,0,0,1.78,4.33,6.1,6.1,0,0,0,4.55,1.83,9.67,9.67,0,0,0,5.9-2.12,7.54,7.54,0,0,0,2.72-4,25,25,0,0,0,.44-5.81Z" transform="translate(-411.02 -1.04)"/><path class="cls-9" d="M1213.38,430.76l11.48-1.82a8.69,8.69,0,0,0,3,5.24,9.65,9.65,0,0,0,6.25,1.8c3,0,5.18-.56,6.68-1.69a3.92,3.92,0,0,0,1.49-3.21,3.2,3.2,0,0,0-.81-2.24,8.74,8.74,0,0,0-3.82-1.58q-13.83-3.19-17.53-5.83a11.8,11.8,0,0,1-5.13-10.18,12.78,12.78,0,0,1,4.44-9.88q4.42-4,13.73-4,8.86,0,13.17,3a15.49,15.49,0,0,1,5.94,9l-10.73,2.09a7.1,7.1,0,0,0-2.64-4.08,9.28,9.28,0,0,0-5.53-1.4c-3,0-5.19.43-6.51,1.32a2.85,2.85,0,0,0-1.3,2.42,2.66,2.66,0,0,0,1.13,2.17c1,.8,4.61,1.91,10.71,3.36s10.36,3.22,12.78,5.32,3.59,5.09,3.59,8.89a13.85,13.85,0,0,1-5,10.67q-4.95,4.46-14.69,4.46-8.82,0-14-3.72A17.12,17.12,0,0,1,1213.38,430.76Z" transform="translate(-411.02 -1.04)"/><path class="cls-9" d="M1263.74,392.24V381.19h11.4v11.05Zm0,51.22V398.32h11.4v45.14Z" transform="translate(-411.02 -1.04)"/><polyline class="cls-10" points="248.88 363.48 573.64 258.65 898.39 363.48"/><path class="cls-11" d="M1010.72,355.09H955.48V305.94h55.24Zm-51.24-4h47.24V309.94H959.48Z" transform="translate(-411.02 -1.04)"/><rect class="cls-11" x="570.09" y="307.72" width="4" height="43.51"/><rect class="cls-11" x="545.88" y="327.47" width="52.41" height="4"/><polygon class="cls-6" points="120.35 355.25 228.29 355.25 228.29 313.54 173.31 313.54 120.35 313.54 120.35 355.25"/><path class="cls-12" d="M1109.29,173.37c13.15,2,28.28,6.61,42.39,5.75-12.08-2.33-29.41-6.66-41.26-9.88-14.46-3.17-12.25-2.17-21.69,5.73a3.21,3.21,0,0,1-2.4.95c-.79-.13-3.65-4-4.5-4.88-13.07-13.76-31.53-20.07-53-19.71-6.4-.05-7.42,7.69.12,7.58,21.19-1,39.67,4.61,53,20.53.89,1.44,2.22,2.67,3.41,2.74,3.73.2,5.29-5,10.37-7.25C1100.12,173,1104.33,173,1109.29,173.37Z" transform="translate(-411.02 -1.04)"/><path class="cls-12" d="M1140.59,234.66c8.24,1.27,17.71,4.13,26.54,3.6-7.56-1.46-18.41-4.17-25.83-6.19-9.06-2-7.67-1.36-13.58,3.59a2,2,0,0,1-1.51.59c-.49-.08-2.28-2.49-2.81-3.05-8.19-8.61-19.75-12.57-33.18-12.34-4,0-4.65,4.81.07,4.75,13.27-.62,24.84,2.88,33.2,12.85a3.24,3.24,0,0,0,2.13,1.71c2.34.13,3.31-3.14,6.49-4.54C1134.85,234.43,1137.49,234.42,1140.59,234.66Z" transform="translate(-411.02 -1.04)"/><path class="cls-12" d="M1027.86,197.45c5.4.83,11.61,2.71,17.4,2.36-5-1-12.07-2.73-16.93-4.05-5.94-1.31-5-.89-8.9,2.35a1.36,1.36,0,0,1-1,.39c-.32-.06-1.5-1.64-1.85-2-5.36-5.65-12.94-8.24-21.74-8.09-2.63,0-3.05,3.15,0,3.11,8.7-.41,16.29,1.89,21.76,8.42a2.18,2.18,0,0,0,1.4,1.13c1.53.08,2.17-2.06,4.26-3A10.89,10.89,0,0,1,1027.86,197.45Z" transform="translate(-411.02 -1.04)"/><path class="cls-13" d="M867.81,890.38c-61.34-1.74-125.12-3.39-186.45-5.13,63.77-3.72,127.82-3.26,191.74-3,23.17-.61,19.88,8.48-8.08,19.85,36.58-5.64,75.14-7.83,111.85-10,22.72-1,17.85,14.31,4.94,18.77-12.67,4.88-25.32,10.34-38,15.22,80.93,2.09,167.22-3.53,248.95-11.47,9.86,1,10.92,16.48-1.14,16.94-77,7.35-160.58,12.17-240.92,9.06-39.76-4-33-23.55,13.46-36.74-41.45,2.62-96.94,7.13-138.4,9.75-13.56-.15-12.11-6.2,1.13-12.42C835.54,897.15,854.55,894.29,867.81,890.38Z" transform="translate(-411.02 -1.04)"/></svg>