<svg id="Capa_1" data-name="Capa 1" xmlns="http://www.w3.org/2000/svg" viewBox="0 0 1047 1047"><defs><style>.cls-1{fill:#fae11f;}.cls-2{fill:#030303;}</style></defs><title>round-busines-wassi-amarillo</title><circle class="cls-1" cx="523.5" cy="523.5" r="523.5"/><polygon points="309.28 528.97 309.28 467.96 800.15 467.96 800.15 160.11 246.85 160.11 246.85 218.27 737.72 218.27 737.72 279.28 246.85 279.28 246.85 343.12 737.72 343.12 737.72 404.12 246.85 404.12 246.85 713.4 800.15 713.4 800.15 653.81 309.28 653.81 309.28 592.81 800.15 592.81 800.15 528.97 309.28 528.97"/><path class="cls-2" d="M1118.07,827h10.6l13.39,37.87,9-37.87h13.59l-16.14,56.77h-12.43l-12.44-39.67-13,39.67h-12.43L1082.08,827h13.58l9,37.87Z" transform="translate(-444.81 -14)"/><path class="cls-2" d="M1188.55,827h8.39l26.78,56.77h-14.21L1192.74,845,1176,883.74h-14.22Zm-13.92,37.36h36.86v10.31h-36.86Z" transform="translate(-444.81 -14)"/><path class="cls-2" d="M1245.55,884.32l-4.79-.82a49.75,49.75,0,0,1-9-2.4,35.71,35.71,0,0,1-7.54-3.81l6.11-8.82a32.3,32.3,0,0,0,9.35,4.16,40.51,40.51,0,0,0,10.89,1.46q6.45,0,10-1.77t3.57-5v0a4.42,4.42,0,0,0-1.59-3.59,10.14,10.14,0,0,0-4.15-1.95,57.46,57.46,0,0,0-6.55-1.13.87.87,0,0,0-.26,0,1.36,1.36,0,0,1-.27,0l-1.06-.12a79.21,79.21,0,0,1-11.66-2.24,17.42,17.42,0,0,1-7.85-4.73q-3.23-3.37-3.23-9.58v0a14.83,14.83,0,0,1,3-9.41,18.69,18.69,0,0,1,8.81-5.95,41.93,41.93,0,0,1,14-2.05,43.46,43.46,0,0,1,7.69.7,49.33,49.33,0,0,1,7.68,2,46.45,46.45,0,0,1,7.13,3.2l-5.58,9.06a39.51,39.51,0,0,0-8.46-3.52,31.11,31.11,0,0,0-8.46-1.24q-6.06,0-9.39,1.62t-3.33,4.54v0a4.76,4.76,0,0,0,1.74,3.89,11.1,11.1,0,0,0,4.29,2.09q2.55.66,7.18,1.4a2.32,2.32,0,0,0,.38.06,2.63,2.63,0,0,1,.39.06,4.86,4.86,0,0,1,.55.1,4.85,4.85,0,0,0,.55.09,70.27,70.27,0,0,1,11.11,2.56,17.15,17.15,0,0,1,7.44,4.84q3,3.35,3,9.12v.07a14.3,14.3,0,0,1-3.13,9.3,19.4,19.4,0,0,1-9.13,5.89,45.36,45.36,0,0,1-14.43,2Z" transform="translate(-444.81 -14)"/><path class="cls-2" d="M1301.05,883.74h-13.68V827h13.68Z" transform="translate(-444.81 -14)"/><path d="M635.57,831.69h12.21v56.83H635.57Zm5.35,46.51H661.6a10.34,10.34,0,0,0,6.48-1.78,6,6,0,0,0,2.3-5v-.12a6.07,6.07,0,0,0-4-6,12.7,12.7,0,0,0-4.74-.8H640.92V854.2H661.6a9.09,9.09,0,0,0,5.86-1.68,5.75,5.75,0,0,0,2.07-4.73,5,5,0,0,0-2.07-4.26A9.8,9.8,0,0,0,661.6,842H640.92V831.69H662a28.45,28.45,0,0,1,10.74,1.82,13.74,13.74,0,0,1,9.09,13.58A11.06,11.06,0,0,1,676,857.17a19.11,19.11,0,0,1-6.86,2.23,18.82,18.82,0,0,1,7.33,2.29,12.11,12.11,0,0,1,4.63,4.63,13.32,13.32,0,0,1,1.59,6.6V873a13.82,13.82,0,0,1-9.16,13.66,28.66,28.66,0,0,1-10.76,1.82H640.92Z" transform="translate(-444.81 -14)"/><path d="M703.09,886.62a17.69,17.69,0,0,1-8.07-7.23A22.4,22.4,0,0,1,692.26,868V831.69h12.21v36.54a9.68,9.68,0,0,0,3,7.58c2,1.8,4.79,2.7,8.42,2.7s6.48-.9,8.49-2.7a9.62,9.62,0,0,0,3-7.58V831.69h12.21V868a22.2,22.2,0,0,1-2.79,11.43,17.79,17.79,0,0,1-8.11,7.23,34.27,34.27,0,0,1-25.6,0Z" transform="translate(-444.81 -14)"/><path d="M766.91,889.1l-4.43-.82a43.38,43.38,0,0,1-8.34-2.4,33.36,33.36,0,0,1-7-3.81l5.66-8.83a28.87,28.87,0,0,0,8.64,4.16,35.26,35.26,0,0,0,10.08,1.46q6,0,9.27-1.78a5.49,5.49,0,0,0,3.29-5v0a4.59,4.59,0,0,0-1.47-3.59,9.08,9.08,0,0,0-3.83-2,54.5,54.5,0,0,0-6.06-1.13.77.77,0,0,0-.25,0,.75.75,0,0,1-.24,0l-1-.11a67.24,67.24,0,0,1-10.79-2.25,15.94,15.94,0,0,1-7.26-4.73q-3-3.37-3-9.6v0a15.71,15.71,0,0,1,2.81-9.42,17.26,17.26,0,0,1,8.16-6,36.06,36.06,0,0,1,12.92-2.06,37.26,37.26,0,0,1,7.11.71,42.37,42.37,0,0,1,13.7,5.23l-5.17,9.07a34.89,34.89,0,0,0-7.82-3.52,26.75,26.75,0,0,0-7.82-1.25c-3.74,0-6.64.55-8.69,1.63s-3.08,2.59-3.08,4.55v0a4.94,4.94,0,0,0,1.61,3.89,10,10,0,0,0,4,2.09q2.35.66,6.64,1.4a2,2,0,0,0,.35.06l.36.06.51.1.51.1a59.33,59.33,0,0,1,10.28,2.56,15.85,15.85,0,0,1,6.88,4.84c1.84,2.23,2.77,5.27,2.77,9.13v.08a15.09,15.09,0,0,1-2.9,9.3,17.84,17.84,0,0,1-8.45,5.9,38.79,38.79,0,0,1-13.34,2Z" transform="translate(-444.81 -14)"/><path d="M818.25,888.52H805.59V831.69h12.66Z" transform="translate(-444.81 -14)"/><path d="M831.62,831.69h14.93l24.11,43.54-1.07,1V831.69h11.68v56.79h-15l-24-42.88,1.07-1v43.89H831.62Z" transform="translate(-444.81 -14)"/><path d="M895.53,831.69h12.21v56.83H895.53Zm4.41,0h39V842h-39Zm0,23.45H934v10.32h-34.1Zm0,23.06h39v10.32h-39Z" transform="translate(-444.81 -14)"/><path d="M965.82,889.1l-4.44-.82a43.27,43.27,0,0,1-8.33-2.4,33.44,33.44,0,0,1-7-3.81l5.66-8.83a29,29,0,0,0,8.65,4.16,35.19,35.19,0,0,0,10.07,1.46q6,0,9.27-1.78a5.49,5.49,0,0,0,3.3-5v0a4.59,4.59,0,0,0-1.47-3.59,9.08,9.08,0,0,0-3.83-2,54.29,54.29,0,0,0-6.07-1.13.71.71,0,0,0-.24,0,.77.77,0,0,1-.25,0l-1-.11a67.33,67.33,0,0,1-10.78-2.25,16,16,0,0,1-7.27-4.73q-3-3.37-3-9.6v0a15.64,15.64,0,0,1,2.81-9.42,17.28,17.28,0,0,1,8.15-6A36.11,36.11,0,0,1,973,831.1a37.23,37.23,0,0,1,7.1.71A42.54,42.54,0,0,1,993.85,837l-5.17,9.07a35.09,35.09,0,0,0-7.82-3.52,26.81,26.81,0,0,0-7.82-1.25c-3.75,0-6.64.55-8.69,1.63s-3.08,2.59-3.08,4.55v0a4.94,4.94,0,0,0,1.6,3.89,10,10,0,0,0,4,2.09q2.37.66,6.64,1.4l.36.06.35.06.52.1.51.1a59.19,59.19,0,0,1,10.27,2.56,15.82,15.82,0,0,1,6.89,4.84q2.76,3.35,2.76,9.13v.08a15,15,0,0,1-2.9,9.3,17.81,17.81,0,0,1-8.44,5.9,38.82,38.82,0,0,1-13.35,2Z" transform="translate(-444.81 -14)"/><path d="M1020.23,889.1l-4.43-.82a43.38,43.38,0,0,1-8.34-2.4,33.36,33.36,0,0,1-7-3.81l5.66-8.83a29,29,0,0,0,8.65,4.16,35.14,35.14,0,0,0,10.07,1.46q6,0,9.27-1.78a5.49,5.49,0,0,0,3.3-5v0a4.59,4.59,0,0,0-1.47-3.59,9.06,9.06,0,0,0-3.84-2,53.62,53.62,0,0,0-6.06-1.13.75.75,0,0,0-.24,0,.77.77,0,0,1-.25,0l-1-.11a67.09,67.09,0,0,1-10.78-2.25,15.91,15.91,0,0,1-7.27-4.73q-3-3.37-3-9.6v0a15.71,15.71,0,0,1,2.81-9.42,17.26,17.26,0,0,1,8.16-6,36.06,36.06,0,0,1,12.92-2.06,37.26,37.26,0,0,1,7.11.71,42.54,42.54,0,0,1,13.71,5.23l-5.17,9.07a35.29,35.29,0,0,0-7.82-3.52,26.82,26.82,0,0,0-7.83-1.25c-3.74,0-6.64.55-8.69,1.63a5,5,0,0,0-3.07,4.55v0a4.94,4.94,0,0,0,1.6,3.89,10,10,0,0,0,4,2.09c1.57.44,3.79.91,6.64,1.4l.36.06.35.06.51.1.52.1a59.19,59.19,0,0,1,10.27,2.56,15.88,15.88,0,0,1,6.89,4.84q2.76,3.35,2.76,9.13v.08a15.09,15.09,0,0,1-2.9,9.3,17.81,17.81,0,0,1-8.44,5.9,38.82,38.82,0,0,1-13.35,2Z" transform="translate(-444.81 -14)"/></svg>