<svg id="Capa_1" data-name="Capa 1" xmlns="http://www.w3.org/2000/svg" viewBox="0 0 1008 1008"><defs><style>.cls-1{fill:#c3399f;}.cls-2{fill:#1f0453;}.cls-3{fill:#e6e6e6;}.cls-4{fill:#fff;}</style></defs><title>round-busines-wassi-estrategia-digital</title><circle class="cls-1" cx="504" cy="504" r="504"/><path class="cls-2" d="M974.09,754.86c-112.32,0-224.64-.79-336.94.47-34.35.39-53-20.32-52.75-52.36,1.22-132,.5-264.09.52-396.13,0-34.46,15.42-49.74,50.18-49.74q337,0,673.9-.05c41.92,0,55.81,13.7,55.82,55.12q0,195,0,390.07c0,30-10.31,46-32.62,51.27-5.81,1.37-12,1.29-18.07,1.29Q1144.09,754.91,974.09,754.86Z" transform="translate(-470.62 -42.02)"/><path class="cls-3" d="M1189.7,345.66c33.89,0,67.79.36,101.68-.19,9.7-.16,13.47,2.07,13,12.49-.84,18.17-.77,36.43,0,54.61.41,9.64-2.94,11.83-12,11.72-40.46-.46-80.94,0-121.4-.38-8.58-.08-11,1.29-12.57,11.26-4.1,25.77-9.24,31.24-.54,39.06,7.92,7.13,26,3.49,39.56,3.72,20.92.35,40.9,4.57,60.6,11.45,77.62,27.12,87.85,126.79,38.14,178.72-26.21,27.38-59.66,39.6-95.86,42.89-54.52,5-107.68-1.75-157.41-27-9.1-4.62-12.56-8.37-6.58-19,9.82-17.51,17.63-36.17,25.84-54.54,3.41-7.65,6.57-9.33,14.53-4.56,29.72,17.78,62.35,25.08,96.86,24.35A70,70,0,0,0,1208,620.7c11.41-6.72,16.8-17.12,15.94-30.44s-7.52-22.29-20.22-27.4c-11-4.43-22.37-6.13-34-6.28-32.37-.44-64.76-1.18-97.11-.38-12.56.31-15.37-3.86-14.3-15.32,3.91-41.72,7.19-83.5,10.76-125.26,1.59-18.61,4.3-37.19,4.56-55.81.16-11.18,2.79-14.73,14.38-14.45C1121.9,346.16,1155.8,345.65,1189.7,345.66Z" transform="translate(-470.62 -42.02)"/><path class="cls-3" d="M634.93,345.61c33.64,0,67.39.23,101.14-.16,8.92-.1,9,6.75,11.16,11.82q44.92,107,89.52,214.16c.76,1.81.65,4.06,4.92,5.16,10.51-24.63,21.23-49.67,31.88-74.74,20.26-47.65,40.74-95.21,60.48-143.08,4.3-10.4,9.78-13.88,21.18-13.45,27.72,1,55.5.33,85.3.33-11.78,27.93-22.93,54.71-34.36,81.38-38.21,89.12-76.69,178.12-114.54,267.39-3.84,9-8.42,11.83-17.86,11.59-25.79-.65-51.61-.46-77.4-.07-6.77.1-11-1.52-13.78-8.06q-74-174.23-148.1-348.37C634.15,348.76,634.66,347.65,634.93,345.61Z" transform="translate(-470.62 -42.02)"/><path class="cls-4" d="M672.84,840.66H649.35v18h26.26v9.24H638V806.46h36.29v9.24H649.35v15.8h23.49Z" transform="translate(-470.62 -42.02)"/><path class="cls-4" d="M684.92,857.6a25.26,25.26,0,0,0,11.49,3.24c5,0,7.25-2.07,7.25-5s-1.86-4.54-7.4-6.48c-8.81-3-12.48-7.7-12.44-13,0-7.81,6.58-13.89,17.08-13.89a26.25,26.25,0,0,1,11.94,2.65l-2.25,7.88a20.68,20.68,0,0,0-9.53-2.55c-4,0-6.3,2-6.3,4.7s2.17,4.17,7.86,6.22c8.19,2.85,12,7,12,13.52,0,8.09-6.39,13.93-18.28,13.93a29.44,29.44,0,0,1-13.72-3.11Z" transform="translate(-470.62 -42.02)"/><path class="cls-4" d="M737.06,810.82v12.71h10.83v8.36H737.06v19.59c0,5.44,1.47,8.2,5.82,8.2a17.38,17.38,0,0,0,4.42-.49l.23,8.54a25.9,25.9,0,0,1-8.28,1.15c-4.19,0-7.67-1.4-9.79-3.65-2.44-2.55-3.56-6.64-3.56-12.46V831.89h-6.42v-8.36h6.42V813.47Z" transform="translate(-470.62 -42.02)"/><path class="cls-4" d="M756.48,837.8c0-5.94-.12-10.31-.37-14.27H766l.43,8.44h.32c2.21-6.26,7.46-9.44,12.32-9.44a11,11,0,0,1,2.67.24v10.57a15.68,15.68,0,0,0-3.34-.32c-5.42,0-9.18,3.41-10.2,8.5a18.51,18.51,0,0,0-.29,3.38v23h-11.4Z" transform="translate(-470.62 -42.02)"/><path class="cls-4" d="M813.91,867.93l-.78-4.95h-.27c-2.73,3.5-7.44,5.95-13.27,5.95-9.14,0-14.2-6.44-14.2-13.21,0-11.2,10.13-16.87,26.71-16.8v-.74c0-2.92-1.17-7.77-9.14-7.74a24.29,24.29,0,0,0-12.11,3.31l-2.25-7.28c3.4-2,9.23-3.94,16.32-3.94,14.44,0,18.56,9,18.56,18.72v16a65.33,65.33,0,0,0,.7,10.7Zm-1.51-21.75c-8-.1-15.71,1.57-15.71,8.33,0,4.34,2.89,6.39,6.49,6.39a9.27,9.27,0,0,0,8.91-6.14,8.51,8.51,0,0,0,.31-2.44Z" transform="translate(-470.62 -42.02)"/><path class="cls-4" d="M848,810.82v12.71h10.84v8.36H848v19.59c0,5.44,1.47,8.2,5.83,8.2a17.51,17.51,0,0,0,4.42-.49l.23,8.54a26,26,0,0,1-8.29,1.15c-4.18,0-7.67-1.4-9.78-3.65-2.45-2.55-3.56-6.64-3.56-12.46V831.89h-6.43v-8.36h6.43V813.47Z" transform="translate(-470.62 -42.02)"/><path class="cls-4" d="M874.93,848.83c.3,8,6.61,11.57,13.9,11.57a34.63,34.63,0,0,0,12.43-2.06l1.68,7.73a41.28,41.28,0,0,1-15.73,2.81c-14.62,0-23.18-8.9-23.18-22.51,0-12.25,7.54-23.84,22-23.84,14.63,0,19.4,11.86,19.4,21.59a22.76,22.76,0,0,1-.41,4.71Zm19.8-7.82c0-4.11-1.77-10.82-9.39-10.82-7,0-9.92,6.28-10.43,10.82Z" transform="translate(-470.62 -42.02)"/><path class="cls-4" d="M955.77,823.53c-.22,3-.38,6.67-.38,12.75v25.18c0,9.31-1.91,15.93-6.66,20.13s-11.22,5.4-17.42,5.4c-5.72,0-11.81-1.23-15.67-3.52l2.45-8.56a26.94,26.94,0,0,0,13.14,3.43c7.39,0,12.94-3.86,12.94-13.42v-3.79H944c-2.56,3.87-7.14,6.51-13.11,6.51-11.16,0-19.11-9.13-19.11-21.66,0-14.65,9.61-23.45,20.37-23.45,6.91,0,10.94,3.24,13.09,6.91h.19l.41-5.91ZM944,841.34a11.07,11.07,0,0,0-.36-3c-1.21-4.12-4.45-7.22-9.3-7.22-6.31,0-11.06,5.45-11.06,14.51,0,7.54,3.87,13.67,11,13.67a9.59,9.59,0,0,0,9.2-6.81,14.24,14.24,0,0,0,.51-3.94Z" transform="translate(-470.62 -42.02)"/><path class="cls-4" d="M979.31,811.11c0,3.35-2.45,6-6.49,6a5.93,5.93,0,0,1-6.23-6c0-3.43,2.55-6.07,6.37-6.07A6,6,0,0,1,979.31,811.11Zm-12.06,56.82v-44.4h11.4v44.4Z" transform="translate(-470.62 -42.02)"/><path class="cls-4" d="M1016.25,867.93l-.78-4.95h-.27c-2.73,3.5-7.44,5.95-13.27,5.95-9.13,0-14.19-6.44-14.19-13.21,0-11.2,10.12-16.87,26.7-16.8v-.74c0-2.92-1.17-7.77-9.14-7.74a24.25,24.25,0,0,0-12.1,3.31l-2.26-7.28c3.4-2,9.23-3.94,16.32-3.94,14.44,0,18.56,9,18.56,18.72v16a66.46,66.46,0,0,0,.7,10.7Zm-1.5-21.75c-8-.1-15.72,1.57-15.72,8.33,0,4.34,2.89,6.39,6.49,6.39a9.26,9.26,0,0,0,8.91-6.14,8.53,8.53,0,0,0,.32-2.44Z" transform="translate(-470.62 -42.02)"/><path class="cls-4" d="M1057.43,807.31a117.46,117.46,0,0,1,18.16-1.33c11.7,0,19.67,2.4,25.41,7.11,6.07,4.86,9.76,12.18,9.76,22.61,0,11-3.81,19.16-9.7,24.46-6.26,5.54-16.12,8.36-28.23,8.36a127.82,127.82,0,0,1-15.4-.8Zm11.38,52.05a44,44,0,0,0,6.35.3c14.79.08,23.58-8,23.58-23.57.06-13.56-7.85-21.37-22.16-21.37a39.47,39.47,0,0,0-7.77.65Z" transform="translate(-470.62 -42.02)"/><path class="cls-4" d="M1132.55,811.11c0,3.35-2.46,6-6.49,6a5.94,5.94,0,0,1-6.24-6c0-3.43,2.55-6.07,6.38-6.07A6,6,0,0,1,1132.55,811.11Zm-12.06,56.82v-44.4h11.39v44.4Z" transform="translate(-470.62 -42.02)"/><path class="cls-4" d="M1185.3,823.53c-.22,3-.38,6.67-.38,12.75v25.18c0,9.31-1.92,15.93-6.66,20.13S1167,887,1160.84,887c-5.72,0-11.81-1.23-15.67-3.52l2.45-8.56a26.91,26.91,0,0,0,13.14,3.43c7.39,0,12.94-3.86,12.94-13.42v-3.79h-.19c-2.56,3.87-7.14,6.51-13.11,6.51-11.16,0-19.11-9.13-19.11-21.66,0-14.65,9.61-23.45,20.37-23.45,6.91,0,10.94,3.24,13.09,6.91h.19l.41-5.91Zm-11.76,17.81a11.07,11.07,0,0,0-.36-3c-1.21-4.12-4.45-7.22-9.3-7.22-6.31,0-11.06,5.45-11.06,14.51,0,7.54,3.87,13.67,11,13.67a9.59,9.59,0,0,0,9.2-6.81,14.24,14.24,0,0,0,.51-3.94Z" transform="translate(-470.62 -42.02)"/><path class="cls-4" d="M1208.84,811.11c0,3.35-2.45,6-6.49,6a5.93,5.93,0,0,1-6.23-6c0-3.43,2.55-6.07,6.37-6.07A6,6,0,0,1,1208.84,811.11Zm-12.06,56.82v-44.4h11.4v44.4Z" transform="translate(-470.62 -42.02)"/><path class="cls-4" d="M1233.48,810.82v12.71h10.83v8.36h-10.83v19.59c0,5.44,1.47,8.2,5.83,8.2a17.51,17.51,0,0,0,4.42-.49l.23,8.54a26,26,0,0,1-8.29,1.15c-4.18,0-7.67-1.4-9.78-3.65-2.45-2.55-3.56-6.64-3.56-12.46V831.89h-6.43v-8.36h6.43V813.47Z" transform="translate(-470.62 -42.02)"/><path class="cls-4" d="M1278.24,867.93l-.78-4.95h-.27c-2.73,3.5-7.44,5.95-13.27,5.95-9.13,0-14.19-6.44-14.19-13.21,0-11.2,10.12-16.87,26.7-16.8v-.74c0-2.92-1.17-7.77-9.14-7.74a24.25,24.25,0,0,0-12.1,3.31l-2.26-7.28c3.4-2,9.23-3.94,16.32-3.94,14.44,0,18.56,9,18.56,18.72v16a66.46,66.46,0,0,0,.7,10.7Zm-1.5-21.75c-8-.1-15.72,1.57-15.72,8.33,0,4.34,2.89,6.39,6.49,6.39a9.26,9.26,0,0,0,8.91-6.14,8.53,8.53,0,0,0,.32-2.44Z" transform="translate(-470.62 -42.02)"/><path class="cls-4" d="M1299.9,803.18h11.39v64.75H1299.9Z" transform="translate(-470.62 -42.02)"/></svg>