<svg id="Capa_1" data-name="Capa 1" xmlns="http://www.w3.org/2000/svg" viewBox="0 0 851 396"><defs><style>.cls-1{fill:#c3399f;}.cls-2{fill:#1f0453;}.cls-3{fill:#fff;}</style></defs><title>v5</title><path class="cls-1" d="M1447,521.16c0,5.69-1.9,6.85-11.37,6.84q-414.12-.29-828.26,0c-9.46,0-11.39-1.14-11.37-6.84q.51-191.16,0-382.31c0-5.7,1.9-6.86,11.37-6.85q207.07.36,414.13.16,207.07,0,414.13-.16c9.47,0,11.39,1.15,11.37,6.85Q1446.49,330,1447,521.16Z" transform="translate(-596 -132)"/><path class="cls-1" d="M1447,521.16c0,5.69-1.9,6.85-11.37,6.84q-414.12-.29-828.26,0c-9.46,0-11.39-1.14-11.37-6.84q.51-191.16,0-382.31c0-5.7,1.9-6.86,11.37-6.85q207.07.36,414.13.16,207.07,0,414.13-.16c9.47,0,11.39,1.15,11.37,6.85Q1446.49,330,1447,521.16Z" transform="translate(-596 -132)"/><path class="cls-2" d="M1018.62,422.76c-109.63,0-219.26-.4-328.87.24-33.52.19-51.76-10.21-51.48-26.3,1.19-66.31.49-132.63.51-198.94,0-17.3,15.05-25,49-25q328.88,0,657.74,0c40.91,0,54.46,6.87,54.47,27.68q0,97.94,0,195.89c0,15.06-10.05,23.12-31.83,25.75a149,149,0,0,1-17.64.65Q1184.53,422.79,1018.62,422.76Z" transform="translate(-596 -132)"/><path class="cls-3" d="M1159.42,196.49c18.71,0,37.43.2,56.13-.1,5.36-.09,7.44,1.14,7.17,6.89-.46,10-.42,20.11,0,30.15.23,5.32-1.62,6.52-6.65,6.47-22.33-.26-44.68,0-67-.21-4.74-.05-6.06.71-6.94,6.21-2.26,14.23-5.1,17.25-.3,21.56,4.38,3.94,14.33,1.93,21.84,2.05a106.13,106.13,0,0,1,33.45,6.33c42.84,15,48.49,70,21.05,98.65-14.47,15.11-32.93,21.86-52.91,23.67-30.09,2.74-59.44-1-86.89-14.91-5-2.55-6.93-4.62-3.63-10.51,5.42-9.66,9.73-20,14.26-30.1,1.88-4.23,3.63-5.15,8-2.52,16.41,9.82,34.42,13.84,53.47,13.44a38.55,38.55,0,0,0,19-5.25c6.3-3.71,9.28-9.45,8.81-16.8s-4.15-12.3-11.17-15.13a51.35,51.35,0,0,0-18.75-3.46c-17.87-.25-35.75-.65-53.6-.21-6.93.17-8.49-2.13-7.89-8.46,2.15-23,4-46.09,5.93-69.14.88-10.27,2.38-20.53,2.52-30.81.09-6.17,1.54-8.13,7.94-8C1122,196.77,1140.72,196.48,1159.42,196.49Z" transform="translate(-596 -132)"/><path class="cls-3" d="M845.49,198.39c18.57,0,37.2.13,55.82-.08,4.93-.06,5,3.72,6.16,6.52Q932.28,263.9,956.89,323c.42,1,.36,2.25,2.71,2.85,5.8-13.6,11.72-27.42,17.6-41.25,11.18-26.31,22.49-52.56,33.39-79,2.37-5.75,5.4-7.67,11.69-7.43,15.3.57,30.63.19,47.08.19-6.5,15.41-12.65,30.2-19,44.91-21.1,49.2-42.34,98.33-63.23,147.6-2.12,5-4.64,6.53-9.86,6.4-14.23-.36-28.48-.25-42.72,0-3.74.06-6.08-.84-7.61-4.45q-40.82-96.16-81.75-192.29C845.06,200.13,845.34,199.52,845.49,198.39Z" transform="translate(-596 -132)"/><path class="cls-3" d="M764.93,482.54H744.42v15.75h22.94v8.06H734.47V452.67h31.69v8.07H744.42v13.8h20.51Z" transform="translate(-596 -132)"/><path class="cls-3" d="M775.49,497.34a22,22,0,0,0,10,2.83c4.38,0,6.33-1.81,6.33-4.36s-1.62-3.95-6.46-5.65c-7.69-2.6-10.9-6.73-10.86-11.32,0-6.82,5.74-12.13,14.92-12.13A23,23,0,0,1,799.88,469l-2,6.88a18.13,18.13,0,0,0-8.32-2.23c-3.54,0-5.51,1.72-5.51,4.11s1.9,3.64,6.87,5.43c7.15,2.5,10.45,6.09,10.49,11.81,0,7.07-5.59,12.17-16,12.17a25.68,25.68,0,0,1-12-2.72Z" transform="translate(-596 -132)"/><path class="cls-3" d="M821,456.48v11.1h9.46v7.31H821V492c0,4.74,1.29,7.15,5.09,7.15a15,15,0,0,0,3.86-.43l.2,7.46a22.31,22.31,0,0,1-7.23,1,11.63,11.63,0,0,1-8.55-3.19c-2.14-2.23-3.11-5.8-3.11-10.88V474.89h-5.61v-7.31h5.61V458.8Z" transform="translate(-596 -132)"/><path class="cls-3" d="M838,480.05c0-5.2-.11-9-.32-12.47h8.61l.36,7.37h.28c1.94-5.46,6.53-8.24,10.77-8.24a9.35,9.35,0,0,1,2.33.21v9.23a14.06,14.06,0,0,0-2.91-.28,8.74,8.74,0,0,0-8.92,7.42,16.77,16.77,0,0,0-.25,3v20.1H838Z" transform="translate(-596 -132)"/><path class="cls-3" d="M888.14,506.35l-.68-4.31h-.24a14.46,14.46,0,0,1-11.58,5.19c-8,0-12.4-5.62-12.4-11.53,0-9.79,8.84-14.74,23.32-14.68v-.64c0-2.55-1-6.79-8-6.76A21.17,21.17,0,0,0,868,476.51l-2-6.36a28.74,28.74,0,0,1,14.25-3.44c12.61,0,16.21,7.84,16.21,16.34v14a57.65,57.65,0,0,0,.61,9.34Zm-1.31-19c-7-.1-13.73,1.36-13.73,7.27,0,3.79,2.53,5.58,5.67,5.58a8.07,8.07,0,0,0,7.78-5.36,7.5,7.5,0,0,0,.28-2.14Z" transform="translate(-596 -132)"/><path class="cls-3" d="M917.94,456.48v11.1h9.46v7.31h-9.46V492c0,4.74,1.29,7.15,5.09,7.15a15,15,0,0,0,3.86-.43l.2,7.46a22.31,22.31,0,0,1-7.23,1,11.63,11.63,0,0,1-8.55-3.19c-2.14-2.23-3.11-5.8-3.11-10.88V474.89h-5.61v-7.31h5.61V458.8Z" transform="translate(-596 -132)"/><path class="cls-3" d="M941.43,489.68c.27,7,5.78,10.1,12.15,10.1a30.3,30.3,0,0,0,10.85-1.8l1.47,6.75a36,36,0,0,1-13.74,2.46c-12.77,0-20.25-7.78-20.25-19.66,0-10.7,6.59-20.82,19.23-20.82s17,10.36,17,18.85a20,20,0,0,1-.36,4.12Zm17.29-6.83c0-3.59-1.54-9.45-8.2-9.45-6.12,0-8.66,5.48-9.1,9.45Z" transform="translate(-596 -132)"/><path class="cls-3" d="M1012,467.58c-.19,2.61-.34,5.83-.34,11.14v22c0,8.13-1.67,13.91-5.81,17.58s-9.8,4.71-15.22,4.71c-5,0-10.31-1.07-13.68-3.07l2.14-7.48a23.44,23.44,0,0,0,11.47,3c6.46,0,11.3-3.37,11.3-11.72v-3.31h-.16c-2.24,3.38-6.24,5.69-11.45,5.69-9.75,0-16.69-8-16.69-18.92,0-12.79,8.39-20.48,17.79-20.48,6,0,9.55,2.83,11.44,6h.16l.36-5.16Zm-10.28,15.56a9.52,9.52,0,0,0-.31-2.64,8.25,8.25,0,0,0-8.12-6.31c-5.51,0-9.66,4.76-9.66,12.68,0,6.58,3.38,11.93,9.61,11.93a8.36,8.36,0,0,0,8-5.94,12.3,12.3,0,0,0,.44-3.44Z" transform="translate(-596 -132)"/><path class="cls-3" d="M1032.6,456.73c0,2.93-2.15,5.29-5.67,5.29a5.19,5.19,0,0,1-5.45-5.29,5.57,5.57,0,0,1,11.12,0Zm-10.53,49.62V467.58H1032v38.77Z" transform="translate(-596 -132)"/><path class="cls-3" d="M1064.86,506.35l-.68-4.31h-.24a14.48,14.48,0,0,1-11.59,5.19c-8,0-12.39-5.62-12.39-11.53,0-9.79,8.84-14.74,23.32-14.68v-.64c0-2.55-1-6.79-8-6.76a21.17,21.17,0,0,0-10.57,2.89l-2-6.36a28.79,28.79,0,0,1,14.26-3.44c12.61,0,16.21,7.84,16.21,16.34v14a57.65,57.65,0,0,0,.61,9.34Zm-1.32-19c-7-.1-13.72,1.36-13.72,7.27,0,3.79,2.52,5.58,5.66,5.58a8.1,8.1,0,0,0,7.79-5.36,7.48,7.48,0,0,0,.27-2.14Z" transform="translate(-596 -132)"/><path class="cls-3" d="M1100.82,453.41a103.52,103.52,0,0,1,15.87-1.15c10.21,0,17.17,2.09,22.18,6.2,5.3,4.24,8.53,10.64,8.53,19.75,0,9.62-3.33,16.74-8.47,21.36-5.47,4.84-14.08,7.3-24.66,7.3a110,110,0,0,1-13.45-.7Zm9.94,45.46a37.78,37.78,0,0,0,5.55.27c12.91.06,20.59-7,20.59-20.59,0-11.84-6.86-18.67-19.35-18.67a34,34,0,0,0-6.79.58Z" transform="translate(-596 -132)"/><path class="cls-3" d="M1166.43,456.73c0,2.93-2.15,5.29-5.67,5.29a5.19,5.19,0,0,1-5.45-5.29,5.57,5.57,0,0,1,11.12,0Zm-10.54,49.62V467.58h9.95v38.77Z" transform="translate(-596 -132)"/><path class="cls-3" d="M1212.5,467.58c-.19,2.61-.34,5.83-.34,11.14v22c0,8.13-1.67,13.91-5.81,17.58s-9.8,4.71-15.22,4.71c-5,0-10.31-1.07-13.68-3.07l2.14-7.48a23.44,23.44,0,0,0,11.47,3c6.46,0,11.3-3.37,11.3-11.72v-3.31h-.16c-2.24,3.38-6.24,5.69-11.45,5.69-9.75,0-16.69-8-16.69-18.92,0-12.79,8.39-20.48,17.79-20.48,6,0,9.55,2.83,11.44,6h.16l.36-5.16Zm-10.27,15.56a9.51,9.51,0,0,0-.32-2.64,8.25,8.25,0,0,0-8.12-6.31c-5.51,0-9.66,4.76-9.66,12.68,0,6.58,3.38,11.93,9.61,11.93a8.36,8.36,0,0,0,8-5.94,12.3,12.3,0,0,0,.45-3.44Z" transform="translate(-596 -132)"/><path class="cls-3" d="M1233.06,456.73c0,2.93-2.15,5.29-5.67,5.29a5.19,5.19,0,0,1-5.45-5.29,5.57,5.57,0,0,1,11.12,0Zm-10.53,49.62V467.58h10v38.77Z" transform="translate(-596 -132)"/><path class="cls-3" d="M1254.58,456.48v11.1H1264v7.31h-9.46V492c0,4.74,1.28,7.15,5.08,7.15a15,15,0,0,0,3.86-.43l.2,7.46a22.31,22.31,0,0,1-7.23,1,11.63,11.63,0,0,1-8.55-3.19c-2.13-2.23-3.11-5.8-3.11-10.88V474.89h-5.61v-7.31h5.61V458.8Z" transform="translate(-596 -132)"/><path class="cls-3" d="M1293.67,506.35,1293,502h-.24a14.48,14.48,0,0,1-11.59,5.19c-8,0-12.4-5.62-12.4-11.53,0-9.79,8.84-14.74,23.33-14.68v-.64c0-2.55-1-6.79-8-6.76a21.17,21.17,0,0,0-10.57,2.89l-2-6.36a28.76,28.76,0,0,1,14.26-3.44c12.61,0,16.21,7.84,16.21,16.34v14a57.65,57.65,0,0,0,.61,9.34Zm-1.32-19c-7-.1-13.72,1.36-13.72,7.27,0,3.79,2.52,5.58,5.66,5.58a8.1,8.1,0,0,0,7.79-5.36,7.48,7.48,0,0,0,.27-2.14Z" transform="translate(-596 -132)"/><path class="cls-3" d="M1312.58,449.81h10v56.54h-10Z" transform="translate(-596 -132)"/></svg>