<svg id="Capa_1" data-name="Capa 1" xmlns="http://www.w3.org/2000/svg" viewBox="0 0 1126.11 732.78"><defs><style>.cls-1{fill:#565757;}.cls-1,.cls-2,.cls-3{fill-rule:evenodd;}.cls-2{fill:#b1b3b4;}.cls-3{fill:#fff;}</style></defs><title>white-business-wassi-oficial</title><path class="cls-1" d="M727.68,705.76l279.57-572.51h161.46l-276,572.51Zm0,0" transform="translate(-428.4 -133.25)"/><path class="cls-2" d="M1024.85,705.76l279.57-572.51h161.47l-276,572.51Zm0,0" transform="translate(-428.4 -133.25)"/><path class="cls-3" d="M782.45,336.89,680,133.25H518.57L696.36,504.46Zm0,0" transform="translate(-428.4 -133.25)"/><path class="cls-3" d="M1241.39,262.13l-72.72-128.77-77,159.65L1163,422.79Zm0,0" transform="translate(-428.4 -133.25)"/><path class="cls-3" d="M510.1,797.8c8.42,1.88,14.72,4.87,18.92,9.06a28.87,28.87,0,0,1,8.69,21.23,34,34,0,0,1-21.46,31q-10,4-30.5,4H428.4v-3.47h4.52c5.06,0,8.67-1.71,10.88-5.08,1.37-2.19,2.05-6.88,2.05-14V757.78q0-11.87-2.58-14.95c-2.33-2.76-5.76-4.14-10.35-4.14H428.4v-3.47h52.49c9.78,0,17.63.73,23.54,2.25,9,2.28,15.81,6.26,20.51,12A30.37,30.37,0,0,1,532,769.34a28.44,28.44,0,0,1-5.55,17.19q-5.57,7.59-16.38,11.27Zm-47-5.25a62.57,62.57,0,0,0,7.57,1c2.84.24,6,.33,9.36.33,8.72,0,15.31-1,19.7-3a21.39,21.39,0,0,0,10.08-9.07,26.57,26.57,0,0,0,3.45-13.31c0-7.46-2.91-13.79-8.69-19.07s-14.24-7.88-25.33-7.88a58.24,58.24,0,0,0-16.14,2.06Zm0,61.29a86.17,86.17,0,0,0,20.61,2.54q16.31,0,24.87-7.68a24.52,24.52,0,0,0,8.54-19,27.94,27.94,0,0,0-4-14.31q-4-6.9-12.64-10.85t-21.53-4c-3.71,0-6.86.06-9.5.2a50,50,0,0,0-6.37.64Zm865.46-118.62v3.47a14.94,14.94,0,0,0-7.73,1.8c-1.95,1.19-3.85,3.4-5.63,6.69-1.19,2.18-3.09,7.46-5.67,15.76L1275.74,866h-3.61l-27.75-81.81L1217,866h-3.28l-36.08-106.12c-2.69-8-4.4-12.67-5.11-14.12a12,12,0,0,0-4.89-5.34c-2.07-1.19-4.84-1.76-8.4-1.76v-3.47h45v3.47H1202q-4.73,0-7.26,2.28a7.08,7.08,0,0,0-2.5,5.47q0,3.31,4,15.27l24,71.73,20.25-61-3.68-10.73-2.88-8.63a48.86,48.86,0,0,0-4.2-8.35,12,12,0,0,0-2.87-3.06,16.07,16.07,0,0,0-4.51-2.45,18.37,18.37,0,0,0-5.39-.57v-3.47h47.32v3.47H1261q-5,0-7.35,2.28a8.21,8.21,0,0,0-2.33,6.18c0,3.21,1.36,8.87,4,16.91l23.36,69.43,23.13-70.43c2.62-7.84,4-13.29,4-16.31a7.06,7.06,0,0,0-1.3-4.07,7.13,7.13,0,0,0-3.26-2.68,25.63,25.63,0,0,0-8.89-1.31v-3.47ZM615.4,767.38v-2.67h32.94v2.67h-3.51a9.4,9.4,0,0,0-8.48,4.85c-1,1.51-1.44,5-1.44,10.44v39.89q0,14.81-2.78,23c-1.86,5.45-5.54,10.12-11,14s-12.83,5.85-22.21,5.85q-15.32,0-23.24-5.59a29.87,29.87,0,0,1-11.24-15c-1.49-4.31-2.21-12.37-2.21-24.22V782.07c0-6-.81-10-2.38-11.87s-4.16-2.82-7.68-2.82h-3.51v-2.67h40.43v2.67h-3.58q-5.81,0-8.27,3.84c-1.16,1.72-1.73,5.37-1.73,10.85V825a100.63,100.63,0,0,0,1,13.14q1,7.38,3.64,11.54a20.48,20.48,0,0,0,7.55,6.82,25.22,25.22,0,0,0,12.12,2.68,32.31,32.31,0,0,0,16.44-4.21c4.83-2.8,8.13-6.41,9.9-10.76s2.66-11.81,2.66-22.24V782.07c0-6.12-.64-10-1.93-11.49q-2.68-3.2-8-3.2Zm99.41-4.89v34h-2.54q-1.24-9.79-4.46-15.59a23.73,23.73,0,0,0-9.18-9.2,24.46,24.46,0,0,0-12.3-3.42,16.31,16.31,0,0,0-11.91,4.61,14.34,14.34,0,0,0-4.71,10.48,12.84,12.84,0,0,0,3,8.21q4.3,5.45,20.4,14.51,13.15,7.42,18,11.36a27.37,27.37,0,0,1,7.39,9.32A25.59,25.59,0,0,1,721,838a26.06,26.06,0,0,1-8.25,19.25q-8.26,8.09-21.25,8.09a40.82,40.82,0,0,1-7.68-.67A72.58,72.58,0,0,1,675,862c-4.47-1.53-7.33-2.29-8.53-2.29a3.55,3.55,0,0,0-2.74,1.09c-.65.74-1.14,2.24-1.49,4.55h-2.54V831.67h2.54c1.21,7,2.81,12.34,4.84,15.83a23.61,23.61,0,0,0,9.31,8.73,27.63,27.63,0,0,0,13.71,3.49c5.74,0,10.32-1.62,13.64-4.8a15.23,15.23,0,0,0,5-11.36,16.26,16.26,0,0,0-1.89-7.35,21.9,21.9,0,0,0-5.89-6.92c-1.79-1.46-6.71-4.52-14.75-9.23a142.11,142.11,0,0,1-17.15-11.23,30.28,30.28,0,0,1-7.73-9.28,24,24,0,0,1-2.63-11.19,24.71,24.71,0,0,1,7.75-18.23c5.15-5.1,11.75-7.64,19.72-7.64A38.28,38.28,0,0,1,702,766.32c2.58,1.21,4.4,1.8,5.45,1.8a4,4,0,0,0,2.95-1.11c.76-.76,1.37-2.26,1.85-4.52Zm57.41,98v2.67H732.08v-2.67h3.32c3.89,0,6.7-1.18,8.46-3.53q1.67-2.34,1.66-11.17V782.07c0-5-.32-8.25-.91-9.84a6.33,6.33,0,0,0-2.84-3.12,12.67,12.67,0,0,0-6.37-1.73h-3.32v-2.67h40.14v2.67h-3.36c-3.81,0-6.6,1.19-8.33,3.54-1.17,1.56-1.73,5.28-1.73,11.15v63.69q0,7.47.89,9.86a6.31,6.31,0,0,0,2.9,3.11,12.08,12.08,0,0,0,6.27,1.73Zm1.52-95.75h25.18l57.43,73.9V781.79q0-9.1-2-11.36c-1.72-2-4.45-3-8.17-3h-3.29v-2.67h32.93v2.67h-3.34c-4,0-6.86,1.26-8.56,3.79-1,1.56-1.53,5.09-1.53,10.62v82.93h-2.5l-61.69-79.27v60.61c0,6.06.64,9.84,1.88,11.36,1.78,2,4.5,3,8.21,3h3.35v2.67H778.73v-2.67H782c4.06,0,6.91-1.26,8.61-3.79,1-1.56,1.53-5.08,1.53-10.61V777.63A44.29,44.29,0,0,0,786,771a22.93,22.93,0,0,0-6.18-3,21.65,21.65,0,0,0-6.07-.64Zm133.53,5.35V809h20.64c5.34,0,8.91-.83,10.7-2.53,2.39-2.21,3.72-6.14,4-11.73h2.54V829h-2.54q-1-7.2-2-9.26a8.73,8.73,0,0,0-4.07-4c-1.88-1-4.78-1.46-8.69-1.46H907.27v32.47c0,4.35.19,7,.55,7.94a4.41,4.41,0,0,0,1.92,2.24c.92.58,2.69.85,5.25.85h15.86c5.27,0,9.11-.4,11.52-1.16a17.11,17.11,0,0,0,6.89-4.58q4.26-4.5,8.76-13.56h2.83l-8.08,24.64H880.54v-2.67h3.33a12.56,12.56,0,0,0,6.3-1.69,5.87,5.87,0,0,0,3-3.48c.55-1.56.81-4.73.81-9.53v-64q0-9.36-1.79-11.51c-1.68-1.93-4.43-2.9-8.32-2.9h-3.33v-2.67h72.25l1,21.67h-2.69c-1-5.22-2-8.8-3.2-10.76a11.34,11.34,0,0,0-5.21-4.48c-1.84-.71-5.1-1.08-9.73-1.08Zm121.7-7.57v34h-2.55c-.81-6.53-2.31-11.73-4.45-15.59a23.83,23.83,0,0,0-9.19-9.2,24.43,24.43,0,0,0-12.3-3.42,16.26,16.26,0,0,0-11.89,4.61,14.28,14.28,0,0,0-4.72,10.48,12.79,12.79,0,0,0,3,8.21c2.88,3.63,9.66,8.47,20.41,14.51q13.14,7.42,18,11.36a27.28,27.28,0,0,1,7.4,9.32,26.31,26.31,0,0,1-5.65,30.51q-8.3,8.09-21.26,8.09a40.67,40.67,0,0,1-7.68-.67,72,72,0,0,1-8.89-2.68c-4.47-1.53-7.33-2.29-8.53-2.29a3.55,3.55,0,0,0-2.73,1.09c-.66.74-1.15,2.24-1.48,4.55h-2.54V831.67h2.54c1.2,7,2.8,12.34,4.82,15.83a23.68,23.68,0,0,0,9.31,8.73,27.66,27.66,0,0,0,13.71,3.49c5.76,0,10.33-1.62,13.65-4.8a15.24,15.24,0,0,0,5-11.36,16.26,16.26,0,0,0-1.89-7.35,22.2,22.2,0,0,0-5.9-6.92c-1.79-1.46-6.71-4.52-14.74-9.23s-13.77-8.45-17.16-11.23a30.28,30.28,0,0,1-7.73-9.28,24,24,0,0,1-2.64-11.19,24.79,24.79,0,0,1,7.75-18.23c5.17-5.1,11.76-7.64,19.72-7.64a38.18,38.18,0,0,1,15.86,3.83c2.6,1.21,4.4,1.8,5.47,1.8a4,4,0,0,0,2.94-1.11c.76-.76,1.36-2.26,1.84-4.52Zm78.62,0v34h-2.54q-1.23-9.79-4.46-15.59a23.73,23.73,0,0,0-9.18-9.2,24.43,24.43,0,0,0-12.3-3.42,16.3,16.3,0,0,0-11.9,4.61,14.3,14.3,0,0,0-4.71,10.48,12.83,12.83,0,0,0,3,8.21c2.89,3.63,9.67,8.47,20.41,14.51q13.14,7.42,18,11.36a27.4,27.4,0,0,1,7.4,9.32,25.71,25.71,0,0,1,2.58,11.26,26,26,0,0,1-8.24,19.25q-8.28,8.09-21.26,8.09a40.82,40.82,0,0,1-7.68-.67,72.62,72.62,0,0,1-8.87-2.68c-4.48-1.53-7.34-2.29-8.54-2.29a3.58,3.58,0,0,0-2.74,1.09c-.65.74-1.14,2.24-1.47,4.55h-2.55V831.67H1055c1.2,7,2.8,12.34,4.82,15.83a23.61,23.61,0,0,0,9.31,8.73,27.66,27.66,0,0,0,13.71,3.49c5.76,0,10.32-1.62,13.65-4.8a15.26,15.26,0,0,0,5-11.36,16.37,16.37,0,0,0-1.88-7.35,22.43,22.43,0,0,0-5.89-6.92c-1.79-1.46-6.73-4.52-14.75-9.23s-13.77-8.45-17.16-11.23a30.32,30.32,0,0,1-7.74-9.28,24,24,0,0,1-2.63-11.19,24.79,24.79,0,0,1,7.75-18.23q7.76-7.65,19.72-7.64a38.18,38.18,0,0,1,15.86,3.83c2.6,1.21,4.4,1.8,5.47,1.8a4.06,4.06,0,0,0,3-1.11c.75-.76,1.37-2.26,1.83-4.52Zm287.28,67.84h-36.3l-6.28,15.42c-1.54,3.8-2.35,6.67-2.35,8.55a5.07,5.07,0,0,0,2,4c1.34,1.12,4.29,1.86,8.79,2.21v2.67h-29.55v-2.67c3.91-.71,6.43-1.66,7.59-2.82,2.36-2.32,4.94-7,7.8-14.15l33-81h2.33l32.59,81.86c2.61,6.59,5,10.84,7.14,12.82s5.11,3,8.95,3.29v2.67h-36.95v-2.67c3.73-.2,6.25-.84,7.58-2a5.13,5.13,0,0,0,2-4.07c0-2.13-.91-5.5-2.76-10.11Zm-2.11-5.35L1377,785.27,1360.75,825Zm104.32-62.49v34h-2.54q-1.23-9.79-4.46-15.59a23.56,23.56,0,0,0-9.19-9.2,24.38,24.38,0,0,0-12.3-3.42,16.28,16.28,0,0,0-11.89,4.61,14.35,14.35,0,0,0-4.72,10.48,12.85,12.85,0,0,0,3,8.21q4.3,5.45,20.4,14.51,13.14,7.42,18,11.36a27.37,27.37,0,0,1,7.39,9.32,25.59,25.59,0,0,1,2.6,11.26,26.06,26.06,0,0,1-8.25,19.25q-8.26,8.09-21.26,8.09a40.74,40.74,0,0,1-7.68-.67,72.09,72.09,0,0,1-8.87-2.68q-6.74-2.29-8.53-2.29a3.55,3.55,0,0,0-2.74,1.09c-.67.74-1.16,2.24-1.49,4.55H1442V831.67h2.54c1.21,7,2.81,12.34,4.84,15.83a23.58,23.58,0,0,0,9.3,8.73,27.69,27.69,0,0,0,13.72,3.49c5.74,0,10.31-1.62,13.64-4.8a15.26,15.26,0,0,0,5-11.36,16.26,16.26,0,0,0-1.89-7.35,21.9,21.9,0,0,0-5.89-6.92c-1.79-1.46-6.72-4.52-14.75-9.23s-13.76-8.45-17.15-11.23a30.28,30.28,0,0,1-7.73-9.28,23.85,23.85,0,0,1-2.63-11.19,24.71,24.71,0,0,1,7.75-18.23c5.15-5.1,11.75-7.64,19.71-7.64a38.29,38.29,0,0,1,15.87,3.83c2.58,1.21,4.4,1.8,5.45,1.8a4,4,0,0,0,3-1.11c.76-.76,1.37-2.26,1.84-4.52Zm57.42,98v2.67h-40.14v-2.67h3.32c3.89,0,6.7-1.18,8.46-3.53q1.66-2.34,1.66-11.17V782.07c0-5-.32-8.25-.91-9.84a6.52,6.52,0,0,0-2.84-3.12,12.67,12.67,0,0,0-6.37-1.73h-3.32v-2.67h40.14v2.67h-3.36c-3.81,0-6.6,1.19-8.33,3.54-1.17,1.56-1.73,5.28-1.73,11.15v63.69q0,7.47.89,9.86a6.31,6.31,0,0,0,2.9,3.11,12.08,12.08,0,0,0,6.27,1.73Zm0,0" transform="translate(-428.4 -133.25)"/></svg>