<svg id="Capa_1" data-name="Capa 1" xmlns="http://www.w3.org/2000/svg" viewBox="0 0 457.81 444"><defs><style>.cls-1{fill:#898445;}.cls-2{fill:#0b5c29;}</style></defs><title>ico-amazone-lab</title><path class="cls-1" d="M403.76,320.8c-35.67,70.26-90.51,125.56-169.31,125.56A142.68,142.68,0,0,1,91.77,303.68c0-78.8,57.07-138.88,125.56-173.12,15.48-7.74,191.75-64,235.9-57.07C464.64,149.59,410.62,307.31,403.76,320.8Z" transform="translate(-27.51 -30)"/><path class="cls-2" d="M442.83,30.36C409.41,33,376,36,342.76,40.53c-62.72,8.6-124.6,21-182.23,48.76-67.68,32.6-115.15,82-128.91,158.37-10,55.46-2.73,108.23,32.62,153.56,53.85,69.07,126.91,83.19,208.25,66.3a153.61,153.61,0,0,0,77.24-41.41h0c50.62-38.68,75.92-92.81,92.8-152.08h0c1.63-3.46,3.74-6.78,4.83-10.41,18.47-61.63,28.83-124.86,37-188.52C488.87,40.32,477.7,27.62,442.83,30.36ZM302,158.58c-.24-1.44-.34-2.9-.5-4.35,0-19.09-1.18-36.35,0-54.1.41-6.24-1.2-19,7.78-19.46.55-3.77,16.15-3.2,21.46-4.69,8.46-2.37,17.23-3.07,25.78-3.82C374.87,70.57,403,66.92,422.07,69,414.29,76.78,396,92.45,395.6,93.35c-25.82,24.23-51.55,48.55-77.54,72.6-4,3.72-7.59,11.6-13.56,8.79C298.76,172,302.93,164.1,302,158.58Zm-117.21-39c2-5.14,17.79-11,23-12.66,16.58-5.4,32.83-11.77,49.79-16,13.92-3.5,14.91-3,17.55,11.92,1.49,2.39.89,64-.2,92-.7,18.1-.7,14.21-9.78,23.14-21.74,21.38-44.21,42-66.44,62.9-3,2.82-6.13,7.49-11,5.49-5.06-2.09-3.28-7.55-3.3-11.66C184.28,236.44,179.78,120.71,184.76,119.58Zm-84,254.87h0c-.09-1.42-12.5-11-16-17.82C68.37,325,64,291.71,69.79,256.66c7.91-47.78,31.78-85.47,70.69-113.76,10.1-7.34,18.47-16.63,20.94-3.87,0,11.67-7.64,105.65-5.48,147.53,1.65,31.95-11.77,52-35.41,69C114.35,360,102.41,373.86,100.73,374.45Zm268.52-11.26c-27.38,38.56-74.37,68.29-123.59,74-1,.38-2,.71-3,1.12s-2,.95-3.08,1.38c-3.06-1-6.67-.35-10-.7-31.31-.46-60.84-7.73-88.48-22.56-6.79-3.65-20.22-19.26-22.53-20.64.53-1.83,28.87-24,38.92-34.43,11.44-11.87,24-17.35,41.13-16.85,53.77,1.6,107.6,1.57,161.4,2.4,5,.08,11.78-2.43,14.46,3.47C376.65,355,371.93,359.42,369.25,363.19Zm29.46-53.69c-2.79,7-8.38,8.54-15.28,8.43-53.38-.83-106.76-1.5-160.14-2.3-3.27,0-7.48.82-9.14-2.84-2.15-4.73,2.55-6.72,5.16-9.24C237.45,286,254,266.65,273.58,250.9c27.89-22.39,20.11-22.39,45.57-20.54,25.11,2,39.49,1.3,59.22,2.37,15,.81,30,.65,45,.92C419.27,260.27,408.52,284.73,398.71,309.5ZM435.6,186.62c-1.71,12.34-7.45,17.39-20.27,16.95-23.73-.82-47.5-.19-71.25-.37-4.12,0-9.44,1.13-11.2-4.3-1.5-4.61,2.94-6.75,5.6-9.33C371.78,157.2,392.62,136.33,426,104c7.78-7.79,15.56-15.57,27.23-23.35C448.79,109.85,439.65,157.39,435.6,186.62Z" transform="translate(-27.51 -30)"/></svg>