<svg id="Capa_1" data-name="Capa 1" xmlns="http://www.w3.org/2000/svg" xmlns:xlink="http://www.w3.org/1999/xlink" viewBox="0 0 275 41.5"><defs><style>.cls-1{opacity:0.39;fill:url(#Degradado_sin_nombre_22);}</style><radialGradient id="Degradado_sin_nombre_22" cx="332.5" cy="196.25" r="98.33" gradientUnits="userSpaceOnUse"><stop offset="0" stop-color="#fff"/><stop offset="0.18" stop-color="#c8ecdc"/><stop offset="0.39" stop-color="#8dd9b7"/><stop offset="0.59" stop-color="#5fc99a"/><stop offset="0.76" stop-color="#3ebe85"/><stop offset="0.9" stop-color="#29b778"/><stop offset="1" stop-color="#22b573"/></radialGradient></defs><title>como</title><path class="cls-1" d="M332.31,217c-39.57,0-79.15-.07-118.72,0-12.11,0-18.69-1.69-18.59-4.36.43-11,.18-22,.18-33,0-2.87,5.44-4.14,17.69-4.14H450.32c14.77,0,19.67,1.15,19.67,4.59q0,16.24,0,32.49c0,2.49-3.63,3.83-11.49,4.27-2.05.11-4.24.11-6.37.11Z" transform="translate(-195 -175.5)"/><path d="M205.42,209.11a4.32,4.32,0,0,1-1.87-1.84,6.13,6.13,0,0,1-.64-2.91v0a5.94,5.94,0,0,1,.27-1.85,5.73,5.73,0,0,1,.65-1.43c.25-.41.6-.9,1-1.48a17.28,17.28,0,0,0,1.18-1.64,7.41,7.41,0,0,0,.75-1.72,8.11,8.11,0,0,0,.3-2.32h3a9.52,9.52,0,0,1-.35,2.73,9,9,0,0,1-.83,2q-.5.83-1.29,1.89c-.39.53-.69,1-.91,1.31a5,5,0,0,0-.55,1.14,4,4,0,0,0-.22,1.36h0a2.79,2.79,0,0,0,.64,1.95,2.32,2.32,0,0,0,1.81.7,2.14,2.14,0,0,0,1.81-.86,4.09,4.09,0,0,0,.66-2.44v0h3v0a8,8,0,0,1-.72,3.26,4.81,4.81,0,0,1-1.87,2.06,5.53,5.53,0,0,1-2.85.71A6.3,6.3,0,0,1,205.42,209.11Zm4.7-17.51H207v-3.09h3.09Z" transform="translate(-195 -175.5)"/><path d="M221.11,203.86l-1.65-1a6.63,6.63,0,0,1-2.57-2.75A8.9,8.9,0,0,1,216,196v-5.77a8.84,8.84,0,0,1,.91-4.12,6.6,6.6,0,0,1,2.57-2.76,7.41,7.41,0,0,1,3.84-1,7.15,7.15,0,0,1,3.32.78,6.86,6.86,0,0,1,2.54,2.19,8.18,8.18,0,0,1,1.38,3.28h-3a4.72,4.72,0,0,0-.92-1.76,4.56,4.56,0,0,0-1.51-1.19,4.08,4.08,0,0,0-1.79-.42,4,4,0,0,0-3.76,2.37,5.9,5.9,0,0,0-.54,2.61V196a6,6,0,0,0,.54,2.6,4.06,4.06,0,0,0,1.5,1.74,4.14,4.14,0,0,0,2.26.62,4.36,4.36,0,0,0,1.8-.39,4.28,4.28,0,0,0,1.5-1.16,4.54,4.54,0,0,0,.92-1.82h3a8.12,8.12,0,0,1-1.39,3.28,7.06,7.06,0,0,1-5.85,3Z" transform="translate(-195 -175.5)"/><path d="M236.86,203.1a5.11,5.11,0,0,1-2.12-2.24,7.93,7.93,0,0,1-.73-3.53v-2.45a7.79,7.79,0,0,1,.73-3.49,5.09,5.09,0,0,1,2.12-2.21,7.72,7.72,0,0,1,6.68,0,5,5,0,0,1,2.12,2.21,7.65,7.65,0,0,1,.73,3.49v2.49a7.71,7.71,0,0,1-.73,3.51,5.06,5.06,0,0,1-2.12,2.22,7.72,7.72,0,0,1-6.68,0Zm5.74-3a4,4,0,0,0,.84-2.72v-2.49a4,4,0,0,0-.84-2.7,3,3,0,0,0-2.4-1,3,3,0,0,0-2.39,1,3.92,3.92,0,0,0-.85,2.7v2.49a4,4,0,0,0,.85,2.72,3,3,0,0,0,2.39,1A3,3,0,0,0,242.6,200.09Zm-4-15.83,4.14-5.14,2.12,1.77-4.41,4.85Z" transform="translate(-195 -175.5)"/><path d="M250.58,188.64h2.95v15h-2.95Zm9,5.91a3.56,3.56,0,0,0-.78-2.46,2.81,2.81,0,0,0-2.21-.86,3.09,3.09,0,0,0-2.24.76,2.89,2.89,0,0,0-.79,2.16l-.3-2.9a5.33,5.33,0,0,1,1.82-2.09,4.41,4.41,0,0,1,2.48-.74,4.81,4.81,0,0,1,2.68.72,4.4,4.4,0,0,1,1.7,2.09,8.41,8.41,0,0,1,.59,3.31v9.11h-2.95Zm9,0a3.44,3.44,0,0,0-.83-2.46,3,3,0,0,0-2.31-.86,2.7,2.7,0,0,0-2.13.83,3.45,3.45,0,0,0-.75,2.38l-.59-2.9a5.68,5.68,0,0,1,1.87-2.3,4.34,4.34,0,0,1,2.57-.82,5.12,5.12,0,0,1,2.77.72,4.54,4.54,0,0,1,1.75,2.09,8.23,8.23,0,0,1,.6,3.31v9.11h-3Z" transform="translate(-195 -175.5)"/><path d="M278.36,203.1a5.11,5.11,0,0,1-2.12-2.24,7.93,7.93,0,0,1-.73-3.53v-2.45a7.79,7.79,0,0,1,.73-3.49,5.09,5.09,0,0,1,2.12-2.21,7.72,7.72,0,0,1,6.68,0,5,5,0,0,1,2.12,2.21,7.65,7.65,0,0,1,.73,3.49v2.49a7.71,7.71,0,0,1-.73,3.51A5,5,0,0,1,285,203.1a7.72,7.72,0,0,1-6.68,0Zm5.74-3a4,4,0,0,0,.84-2.72v-2.49a4,4,0,0,0-.84-2.7,3,3,0,0,0-2.4-1,3,3,0,0,0-2.39,1,4,4,0,0,0-.85,2.7v2.49a4,4,0,0,0,.85,2.72,3,3,0,0,0,2.39,1A3,3,0,0,0,284.1,200.09Z" transform="translate(-195 -175.5)"/><path d="M298.88,188.64h6.77v2.66h-6.77Zm2.4,14.07a4.48,4.48,0,0,1-.85-3V184.27h2.95v15.5a1.39,1.39,0,0,0,.22.85.71.71,0,0,0,.63.29h1.42v2.81h-1.71A3.28,3.28,0,0,1,301.28,202.71Z" transform="translate(-195 -175.5)"/><path d="M309.7,188.64h2.95v15H309.7Zm7.27,2.83a3.61,3.61,0,0,0-1.37-.24,2.68,2.68,0,0,0-3,2.92l-.3-2.9a5.58,5.58,0,0,1,1.79-2.09,4.27,4.27,0,0,1,2.43-.74,5.5,5.5,0,0,1,1.86.3,4.19,4.19,0,0,1,1.45.87l-1.92,2.6A2.59,2.59,0,0,0,317,191.47Z" transform="translate(-195 -175.5)"/><path d="M323,202.71a4.27,4.27,0,0,1-1.37-3.49,4.22,4.22,0,0,1,1.25-3.34,5.63,5.63,0,0,1,3.81-1.11h4.26l.2,2.37h-4.45a2.54,2.54,0,0,0-1.73.51,2,2,0,0,0-.57,1.57,1.93,1.93,0,0,0,.76,1.69,3.94,3.94,0,0,0,2.31.55,6.69,6.69,0,0,0,2.52-.36,1.18,1.18,0,0,0,.83-1.13l.31,2.12a3.39,3.39,0,0,1-1,1,4.18,4.18,0,0,1-1.32.59,6.72,6.72,0,0,1-1.69.19A6.32,6.32,0,0,1,323,202.71Zm7.82-8.58a3.14,3.14,0,0,0-.79-2.29,3,3,0,0,0-2.23-.82,5.58,5.58,0,0,0-1.76.28,5.28,5.28,0,0,0-1.52.76l-2.16-1.47a5.59,5.59,0,0,1,2.25-1.6,8.11,8.11,0,0,1,3.1-.57,7.13,7.13,0,0,1,3.2.66,4.51,4.51,0,0,1,2,1.91,6.14,6.14,0,0,1,.7,3v9.65h-2.81Z" transform="translate(-195 -175.5)"/><path d="M338.1,182.62h2.95v21H338.1Zm4.28,20.57a3.91,3.91,0,0,1-1.53-1.9l.2-3.14a3.59,3.59,0,0,0,.35,1.65,2.39,2.39,0,0,0,1,1,3.29,3.29,0,0,0,1.6.36,2.86,2.86,0,0,0,2.26-.89,3.59,3.59,0,0,0,.81-2.51v-3.25a3.73,3.73,0,0,0-.81-2.56,2.84,2.84,0,0,0-2.26-.91,3.41,3.41,0,0,0-1.6.35,2.29,2.29,0,0,0-1,1,3.48,3.48,0,0,0-.35,1.61l-.3-2.89a5.12,5.12,0,0,1,1.77-2,4.39,4.39,0,0,1,2.45-.72,5,5,0,0,1,2.72.72,4.39,4.39,0,0,1,1.73,2.09,8.23,8.23,0,0,1,.6,3.31v3.26a8,8,0,0,1-.61,3.27,4.56,4.56,0,0,1-1.78,2.08,5.26,5.26,0,0,1-2.81.71A4.38,4.38,0,0,1,342.38,203.19Z" transform="translate(-195 -175.5)"/><path d="M354.86,202.71a4.27,4.27,0,0,1-1.37-3.49,4.22,4.22,0,0,1,1.25-3.34,5.63,5.63,0,0,1,3.81-1.11h4.26l.2,2.37h-4.45a2.54,2.54,0,0,0-1.73.51,2,2,0,0,0-.57,1.57,1.93,1.93,0,0,0,.76,1.69,3.94,3.94,0,0,0,2.31.55,6.65,6.65,0,0,0,2.52-.36,1.18,1.18,0,0,0,.83-1.13l.31,2.12a3.39,3.39,0,0,1-1,1,4.18,4.18,0,0,1-1.32.59,6.72,6.72,0,0,1-1.69.19A6.32,6.32,0,0,1,354.86,202.71Zm7.82-8.58a3.14,3.14,0,0,0-.79-2.29,3,3,0,0,0-2.23-.82,5.58,5.58,0,0,0-1.76.28,5.28,5.28,0,0,0-1.52.76l-2.16-1.47a5.59,5.59,0,0,1,2.25-1.6,8.15,8.15,0,0,1,3.1-.57,7.13,7.13,0,0,1,3.2.66,4.51,4.51,0,0,1,2,1.91,6,6,0,0,1,.7,3v9.65h-2.81Z" transform="translate(-195 -175.5)"/><path d="M368,206.94h1.64a.73.73,0,0,0,.63-.29,1.39,1.39,0,0,0,.23-.85V188.64h2.95v17.13a4.31,4.31,0,0,1-.92,2.94,3.29,3.29,0,0,1-2.6,1H368Zm2.47-24.32h3v2.95h-3Z" transform="translate(-195 -175.5)"/><path d="M378.56,202.71a5.11,5.11,0,0,1-.12-6.83,5.63,5.63,0,0,1,3.81-1.11h4.26l.21,2.37h-4.46a2.55,2.55,0,0,0-1.73.51,2,2,0,0,0-.57,1.57,2,2,0,0,0,.76,1.69,3.94,3.94,0,0,0,2.31.55,6.65,6.65,0,0,0,2.52-.36,1.18,1.18,0,0,0,.83-1.13l.31,2.12a3.49,3.49,0,0,1-1,1,4.35,4.35,0,0,1-1.33.59,6.72,6.72,0,0,1-1.69.19A6.34,6.34,0,0,1,378.56,202.71Zm7.82-8.58a3.14,3.14,0,0,0-.79-2.29,3,3,0,0,0-2.23-.82,5.58,5.58,0,0,0-1.76.28,5.28,5.28,0,0,0-1.52.76l-2.16-1.47a5.59,5.59,0,0,1,2.25-1.6,8.15,8.15,0,0,1,3.1-.57,7.13,7.13,0,0,1,3.2.66,4.51,4.51,0,0,1,2,1.91,6,6,0,0,1,.7,3v9.65h-2.81Z" transform="translate(-195 -175.5)"/><path d="M393.67,188.64h2.95v15h-2.95Zm9,5.91a3.56,3.56,0,0,0-.78-2.46,2.84,2.84,0,0,0-2.22-.86,3.06,3.06,0,0,0-2.23.76,2.85,2.85,0,0,0-.79,2.16l-.3-2.9a5.31,5.31,0,0,1,1.81-2.09,4.45,4.45,0,0,1,2.48-.74,4.84,4.84,0,0,1,2.69.72,4.45,4.45,0,0,1,1.7,2.09,8.41,8.41,0,0,1,.59,3.31v9.11h-2.95Zm9,0a3.43,3.43,0,0,0-.82-2.46,3,3,0,0,0-2.32-.86,2.69,2.69,0,0,0-2.12.83,3.45,3.45,0,0,0-.75,2.38l-.6-2.9a5.78,5.78,0,0,1,1.88-2.3,4.31,4.31,0,0,1,2.56-.82,5.1,5.1,0,0,1,2.77.72,4.43,4.43,0,0,1,1.75,2.09,8.23,8.23,0,0,1,.6,3.31v9.11H411.6Z" transform="translate(-195 -175.5)"/><path d="M421.45,203.1a5.05,5.05,0,0,1-2.12-2.24,7.8,7.8,0,0,1-.73-3.53v-2.45a7.65,7.65,0,0,1,.73-3.49,5,5,0,0,1,2.12-2.21,7.72,7.72,0,0,1,6.68,0,5,5,0,0,1,2.12,2.21,7.65,7.65,0,0,1,.73,3.49v2.49a7.71,7.71,0,0,1-.73,3.51,5.06,5.06,0,0,1-2.12,2.22,7.72,7.72,0,0,1-6.68,0Zm5.73-3a4,4,0,0,0,.85-2.72v-2.49a3.92,3.92,0,0,0-.85-2.7,3.48,3.48,0,0,0-4.78,0,3.92,3.92,0,0,0-.85,2.7v2.49a4,4,0,0,0,.85,2.72,3.43,3.43,0,0,0,4.78,0Z" transform="translate(-195 -175.5)"/><path d="M439.15,203.86,438,203.6a8.69,8.69,0,0,1-2.18-.78,8.25,8.25,0,0,1-1.87-1.3l1.75-2.15a9.82,9.82,0,0,0,2.42,1.38,6.53,6.53,0,0,0,2.37.47,5,5,0,0,0,2.62-.54,1.8,1.8,0,0,0,.88-1.63,1.3,1.3,0,0,0-.48-1.09,2.68,2.68,0,0,0-1.18-.48c-.48-.08-1.14-.16-2-.22h-.24l-.25,0h-.23a12.23,12.23,0,0,1-2.47-.42,3.38,3.38,0,0,1-1.69-1.17,3.85,3.85,0,0,1-.67-2.44,5,5,0,0,1,.65-2.65,3.94,3.94,0,0,1,1.94-1.58,8.53,8.53,0,0,1,3.22-.53,10.84,10.84,0,0,1,2.24.22,10.19,10.19,0,0,1,2,.64,9.76,9.76,0,0,1,1.86,1.08l-1.78,2.15a9.84,9.84,0,0,0-2.22-1.08,6.71,6.71,0,0,0-2.13-.36,4,4,0,0,0-2.25.51,1.73,1.73,0,0,0-.76,1.54,1.06,1.06,0,0,0,.43.91,2.52,2.52,0,0,0,1.08.41c.43.06,1.05.12,1.85.17h.18l.19,0h.18a13.12,13.12,0,0,1,2.68.42,3.58,3.58,0,0,1,1.86,1.26,4.28,4.28,0,0,1,.75,2.72,4.83,4.83,0,0,1-.69,2.68,4.24,4.24,0,0,1-2.09,1.6,9.83,9.83,0,0,1-3.51.53Z" transform="translate(-195 -175.5)"/><path d="M452.9,195.52a8.3,8.3,0,0,1,.84-2c.33-.55.76-1.19,1.29-1.9.38-.53.69-1,.91-1.31a5.48,5.48,0,0,0,.55-1.14,4.24,4.24,0,0,0,.22-1.35v0a2.75,2.75,0,0,0-.65-1.95,2.34,2.34,0,0,0-1.8-.69,2.11,2.11,0,0,0-1.81.86,4,4,0,0,0-.66,2.43v0h-3v0a8,8,0,0,1,.73-3.26,4.78,4.78,0,0,1,1.86-2.06,5.53,5.53,0,0,1,2.85-.71,6.39,6.39,0,0,1,2.95.64,4.26,4.26,0,0,1,1.87,1.84,6.14,6.14,0,0,1,.65,2.92h0a5.9,5.9,0,0,1-.27,1.85,6.39,6.39,0,0,1-.65,1.44q-.39.6-1,1.47c-.48.62-.87,1.16-1.17,1.64a7,7,0,0,0-.75,1.72,8.14,8.14,0,0,0-.31,2.32h-2.95A9.88,9.88,0,0,1,452.9,195.52Zm-.42,5h3.1v3.1h-3.1Z" transform="translate(-195 -175.5)"/></svg>